<?xml version="1.0" encoding="UTF-8" standalone="no"?>
<svg
   xmlns:dc="http://purl.org/dc/elements/1.1/"
   xmlns:cc="http://creativecommons.org/ns#"
   xmlns:rdf="http://www.w3.org/1999/02/22-rdf-syntax-ns#"
   xmlns:svg="http://www.w3.org/2000/svg"
   xmlns="http://www.w3.org/2000/svg"
   xmlns:sodipodi="http://sodipodi.sourceforge.net/DTD/sodipodi-0.dtd"
   xmlns:inkscape="http://www.inkscape.org/namespaces/inkscape"
   version="1.0"
   width="980.000000pt"
   height="974.000000pt"
   viewBox="0 0 980.000000 974.000000"
   preserveAspectRatio="xMidYMid meet"
   id="svg46"
   sodipodi:docname="logo.svg"
   inkscape:version="1.0.1 (1.0.1+r74)">
  <defs
     id="defs50" />
  <sodipodi:namedview
     pagecolor="#ffffff"
     bordercolor="#666666"
     borderopacity="1"
     objecttolerance="10"
     gridtolerance="10"
     guidetolerance="10"
     inkscape:pageopacity="0"
     inkscape:pageshadow="2"
     inkscape:window-width="1366"
     inkscape:window-height="704"
     id="namedview48"
     showgrid="false"
     inkscape:zoom="0.31775852"
     inkscape:cx="751.66563"
     inkscape:cy="615.87331"
     inkscape:window-x="0"
     inkscape:window-y="27"
     inkscape:window-maximized="1"
     inkscape:current-layer="g44"
     inkscape:snap-bbox="true"
     inkscape:snap-bbox-midpoints="false"
     fit-margin-top="2"
     fit-margin-bottom="2"
     fit-margin-left="2"
     fit-margin-right="2"
     units="px" />
  <metadata
     id="metadata2">
Created by potrace 1.16, written by Peter Selinger 2001-2019
<rdf:RDF>
  <cc:Work
     rdf:about="">
    <dc:format>image/svg+xml</dc:format>
    <dc:type
       rdf:resource="http://purl.org/dc/dcmitype/StillImage" />
    <dc:title></dc:title>
  </cc:Work>
</rdf:RDF>
</metadata>
  <g
     transform="matrix(0.1,0,0,-0.1,0,974)"
     fill="#000000"
     stroke="none"
     id="g44">
    <path
       d="m 3435.2565,5116.0815 c -12.1971,-19.5155 20.735,-37.8112 67.0839,-39.0309 h 45.1293 l 1.2197,-124.4111 c 1.2197,-69.5239 0,-125.631 -1.2197,-125.631 -1.2197,0 -26.8336,10.9775 -57.3264,24.3944 -45.1292,19.5154 -65.8642,21.9549 -120.7512,13.4168 -36.5912,-6.0985 -65.8643,-9.7577 -65.8643,-9.7577 0,0 -14.6364,-8.538 -31.7124,-20.7352 -93.9175,-60.9858 -142.706,-226.8673 -102.4556,-351.2784 31.7125,-103.676 80.5009,-146.3661 179.2973,-159.783 69.5234,-9.7577 102.4555,1.2198 161.0016,52.4479 41.4701,36.5915 43.9095,37.8112 45.1292,13.4169 1.2197,-14.6366 2.4394,-32.9324 3.6592,-40.2507 2.4394,-23.1746 184.176,-19.5155 184.176,3.6592 0,9.7577 -17.0759,19.5155 -42.6898,23.1746 l -41.4701,6.0986 -4.8788,365.9151 c -2.4394,201.2532 -6.0986,367.1348 -8.538,369.5742 -9.7576,9.7577 -203.6914,7.3183 -209.7899,-1.2197 z m 58.546,-320.7856 c 40.2504,-35.3718 62.2051,-130.5097 53.6672,-218.3293 -9.7577,-91.4787 -40.2504,-145.1463 -101.2359,-180.5181 -34.1518,-19.5155 -45.1292,-20.7352 -75.6219,-8.538 -64.6447,26.8337 -91.4782,89.0393 -91.4782,207.3518 0,117.0929 24.3941,184.1773 78.0613,213.4505 37.8111,21.9549 104.895,15.8563 136.6075,-13.4169 z"
       id="path6"
       style="stroke-width:1.21971" />
    <path
       d="m 8633.6568,5119.7406 c -58.5461,-24.3943 -115.8724,-121.9717 -115.8724,-200.0335 0,-45.1296 -14.6365,-60.9859 -54.8869,-62.2056 -13.4167,0 -25.6138,-9.7578 -28.0533,-20.7352 -2.4394,-14.6366 6.0985,-20.7352 36.5912,-24.3943 l 40.2505,-3.6592 v -201.2533 -201.2533 l -45.1292,-20.7352 c -25.614,-12.1972 -46.349,-28.0535 -46.349,-34.152 0,-14.6367 -10.9774,-13.4169 164.6607,-15.8564 121.971,-1.2196 146.3651,1.2197 146.3651,15.8564 0,12.1971 -15.8562,19.5154 -52.4475,21.9548 l -51.2278,3.6592 2.4395,215.8899 3.6591,215.8899 64.6446,3.6592 c 43.9095,2.4394 63.4248,8.5379 63.4248,20.7351 0,12.1973 -19.5153,18.2958 -63.4248,20.7352 l -64.6446,3.6592 1.2197,87.8196 c 0,75.6225 4.8788,92.6985 29.273,119.5323 39.0307,41.4703 44.7214,30.8678 96.6083,-18.3676 41.2891,-39.0873 88.3774,11.0406 58.9081,53.7626 -25.0854,21.2569 -29.8863,31.6894 -87.2127,30.4697 -40.2504,0 -85.3796,-4.8789 -98.7964,-10.9775 z"
       id="path8"
       sodipodi:nodetypes="cscccccccscscccccscccccccc"
       style="stroke-width:1.21971" />
    <path
       d="m 1184.8931,5086.8082 c -52.4475,-57.3267 -29.273,-129.2899 40.2503,-129.2899 90.2586,0 98.7965,123.1914 10.9774,143.9266 -21.9547,4.8788 -37.8109,1.2197 -51.2277,-14.6367 z"
       id="path10"
       style="stroke-width:1.21971" />
    <path
       d="m 126.18554,5068.5125 c 0,-6.0986 0,-13.4169 0,-18.2957 -1.21972,-6.0986 19.51534,-12.1972 45.12924,-15.8563 l 46.34894,-6.0986 3.65913,-302.4899 c 1.21971,-193.935 -1.21971,-311.0278 -9.75767,-325.6644 -8.53797,-15.8563 -25.61389,-24.3943 -48.78837,-24.3943 -32.93214,0 -58.54604,-18.2958 -45.12924,-32.9324 3.65913,-3.6591 60.98546,-7.3183 126.84975,-7.3183 102.45557,-1.2196 119.5315,2.4395 123.19063,19.5155 3.65912,15.8563 -4.87884,20.7352 -32.93215,20.7352 -23.17447,0 -41.47011,8.538 -48.78836,21.9549 -10.97739,20.7352 -19.51535,441.5375 -8.53797,441.5375 4.87884,0 47.56866,-86.5999 164.66073,-335.4221 80.50081,-170.7604 79.2811,-169.5406 101.23586,-174.4196 18.29564,-3.6591 59.76576,76.8422 156.12278,307.3688 28.05331,67.0843 65.86429,151.2449 85.37964,187.8363 l 34.15185,67.0844 -1.21971,-254.9207 c -2.43942,-245.1632 -3.65912,-254.9209 -26.8336,-252.4815 -30.49273,2.4394 -69.52342,-18.2957 -64.64459,-35.3718 4.87884,-13.4169 286.63167,-17.076 298.82877,-4.8789 10.9774,10.9775 -9.7576,31.7127 -32.93218,31.7127 -56.10662,0 -54.8869,-3.6591 -51.22777,308.5884 1.2197,162.2223 2.43941,307.3686 2.43941,323.225 0,23.1746 6.09854,26.8338 42.68982,26.8338 30.49272,0 42.68982,4.8788 42.68982,18.2957 0,15.8563 -17.0759,18.2958 -104.89498,15.8563 l -103.67528,-3.6591 -28.05331,-67.0845 c -54.88692,-128.0702 -118.31179,-274.4363 -147.5848,-335.4221 -15.85623,-32.9324 -37.81099,-84.1605 -48.78837,-113.4337 l -20.73505,-52.4478 -26.83361,52.4478 c -14.63651,29.2732 -41.47011,87.8197 -60.98546,131.7295 -40.2504,89.0393 -162.22131,351.2784 -175.63811,375.6727 -9.75768,17.076 -185.39579,28.0536 -185.39579,12.1972 z"
       id="path12"
       style="stroke-width:1.21971" />
    <path
       d="m 4619.594,5072.1717 c -18.2956,-19.5155 0,-37.8112 37.811,-37.8112 h 42.6898 l -2.4394,-325.6645 -3.6591,-326.8841 -42.6898,-6.0986 c -25.614,-3.6591 -42.6899,-13.4169 -42.6899,-23.1746 0,-13.4169 34.1519,-17.0761 176.8579,-15.8564 137.8271,0 176.8578,3.6592 176.8578,17.076 0,10.9776 -21.9548,18.2959 -65.8643,21.955 l -67.084,6.0986 3.6591,146.366 c 1.2197,80.5013 6.0986,148.8055 8.538,151.2449 3.6591,3.6591 53.6671,6.0986 112.2132,6.0986 96.357,1.2197 106.1148,3.6591 106.1148,24.3943 0,20.7352 -9.7578,23.1746 -113.4331,20.7352 l -113.4329,-2.4394 3.6591,150.0251 3.6592,150.0253 48.7883,3.6591 c 70.7431,6.0986 147.5849,-8.538 176.8579,-31.7126 14.6365,-12.1972 36.5912,-51.2282 48.7883,-87.8196 15.8563,-48.7887 29.273,-67.0844 45.1293,-67.0844 18.2956,0 21.9547,12.1971 25.6138,85.3801 6.0986,152.4646 32.9322,139.0477 -285.4119,142.7068 -151.244,2.4395 -278.0936,1.2198 -280.5331,-1.2196 z"
       id="path14"
       style="stroke-width:1.21971" />
    <path
       d="m 5932.0011,4986.7915 c -25.614,-7.3183 -30.4927,-17.076 -34.1519,-62.2056 -4.8789,-57.3267 -19.5153,-76.8422 -52.4475,-67.0844 -10.9774,3.6591 -26.8336,-1.2197 -35.3716,-12.1971 -17.0759,-19.5155 -7.3182,-25.6141 48.7884,-32.9324 l 30.4928,-3.6592 6.0985,-201.2533 c 7.3182,-223.2082 14.6365,-247.6025 79.2811,-275.656 52.4474,-21.955 84.1599,-21.955 125.63,0 41.4701,20.7352 96.357,113.4337 78.0614,131.7294 -14.6366,14.6366 -52.4475,8.5381 -53.6672,-8.5381 -1.2197,-25.614 -48.7884,-79.2815 -69.5234,-79.2815 -46.349,0 -51.2278,26.8338 -47.5687,234.1857 l 3.6591,198.8138 85.3797,6.0986 c 64.6446,4.8789 85.3797,10.9775 85.3797,24.3943 0,14.6366 -17.076,18.2958 -85.3797,18.2958 h -85.3797 l -6.0985,67.0844 c -6.0986,70.7436 -15.8562,79.2816 -73.1825,62.2056 z"
       id="path16"
       style="stroke-width:1.21971" />
    <path
       d="m 7240.749,4918.4873 c -20.7351,-8.538 -43.9096,-26.8338 -51.2278,-40.2507 -12.1971,-23.1746 -21.9548,-24.3943 -102.4556,-18.2957 -74.4022,6.0986 -96.357,2.4395 -139.0468,-18.2957 -114.6527,-58.5465 -147.5849,-203.6928 -65.8644,-290.2927 l 32.9322,-34.152 -34.1519,-29.2733 c -39.0306,-34.152 -46.3489,-101.2365 -15.8562,-146.366 14.6365,-19.5154 15.8562,-32.9323 6.0986,-50.0084 -21.9548,-41.4703 -14.6365,-104.8956 15.8562,-132.9492 63.4249,-59.766 163.441,-76.8421 287.8514,-50.0084 84.1599,18.2958 159.7819,91.4789 159.7819,156.1239 0,35.3717 -8.538,53.6675 -41.4701,85.3801 l -41.4701,40.2507 -153.6835,2.4394 c -153.6833,1.2197 -189.0548,10.9775 -174.4183,47.569 6.0986,15.8563 117.0921,31.7127 237.8432,34.152 15.8563,1.2198 25.614,3.6592 23.1745,6.0986 -2.4394,3.6592 15.8563,25.6141 40.2504,51.2281 71.9628,71.9634 78.0614,186.6168 14.6366,261.0195 -19.5154,23.1746 -12.1972,58.5464 10.9773,58.5464 8.538,0 25.6139,-8.538 37.811,-20.7352 20.735,-18.2957 23.1745,-18.2957 46.349,2.4394 62.2051,56.1071 -9.7577,121.9717 -93.9176,85.3802 z m -110.9936,-124.4111 c 12.1971,-10.9775 21.9548,-32.9323 21.9548,-48.7887 0,-15.8563 6.0986,-39.0309 14.6365,-51.228 20.7351,-32.9324 -9.7577,-129.2901 -50.0081,-161.0027 -40.2503,-31.7127 -93.9176,-23.1746 -131.7286,20.7352 -23.1744,25.614 -28.0533,45.1295 -28.0533,115.873 0,74.4028 3.6592,89.0394 30.4927,114.6534 35.3716,36.5915 108.5542,41.4705 142.706,9.7578 z m 84.1599,-520.8192 c 45.1293,-21.9548 39.0308,-67.0844 -13.4167,-97.5773 -32.9322,-19.5154 -63.4249,-25.614 -130.5089,-25.614 -74.4023,0 -91.4782,3.6591 -117.0921,29.2731 -29.273,25.6141 -31.7125,39.031 -21.9547,102.4563 2.4393,14.6366 251.26,7.3183 282.9724,-8.5381 z"
       id="path18"
       style="stroke-width:1.21971" />
    <path
       d="m 2781.4924,4867.2592 c -19.5154,-2.4395 -57.3264,-28.0535 -84.16,-54.8872 -46.349,-46.3493 -50.008,-47.569 -43.9095,-18.2958 9.7576,52.4478 -4.8789,62.2056 -96.3571,60.9858 -63.4249,-1.2197 -84.1599,-6.0985 -86.5992,-19.5154 -2.4395,-13.4169 8.5379,-20.7352 36.5912,-23.1746 l 40.2504,-3.6592 2.4394,-195.1547 c 2.4394,-107.3351 -1.2197,-202.4731 -6.0985,-209.7913 -4.8789,-8.538 -23.1745,-17.0761 -39.0308,-19.5155 -18.2956,-3.6592 -30.4927,-13.4169 -30.4927,-25.614 0,-18.2958 15.8563,-20.7352 134.168,-21.955 106.1147,-1.2197 134.168,2.4395 134.168,15.8564 0,9.7577 -15.8562,18.2957 -39.0307,20.7351 l -40.2504,3.6592 v 152.4647 c 0,165.8814 9.7577,201.2532 68.3037,247.6024 59.7658,47.569 139.0469,21.955 157.3425,-50.0084 3.6592,-15.8562 4.8789,-96.3575 3.6592,-180.518 l -3.6592,-152.4647 -37.8109,-12.1971 c -74.4023,-24.3944 -42.6899,-36.5915 98.7964,-40.2507 119.5315,-2.4394 140.2666,0 140.2666,15.8563 0,12.1972 -12.1972,18.2958 -41.4702,18.2958 h -41.4701 l -4.8788,186.6166 c -3.6591,165.8816 -6.0986,190.2759 -30.4928,228.0871 -14.6364,23.1747 -37.8109,48.7887 -50.008,57.3267 -29.273,17.076 -95.1374,26.8338 -140.2665,19.5155 z"
       id="path20"
       style="stroke-width:1.21971" />
    <path
       d="m 5435.5794,4863.6001 c -113.433,-23.1747 -185.3958,-95.1379 -212.2293,-212.2308 -14.6366,-65.8647 -7.3184,-109.7745 29.273,-190.2759 40.2503,-90.259 157.3425,-152.4645 261.0177,-137.828 152.4636,19.5155 240.2827,119.5323 240.2827,271.9969 0,184.1773 -141.4863,302.4898 -318.3441,268.3378 z m 112.2133,-59.7662 c 81.7205,-46.3493 114.6527,-208.5716 67.084,-334.2024 -28.0533,-74.4027 -42.6899,-87.8196 -109.7738,-98.7971 -58.5461,-10.9774 -97.5768,13.4169 -131.7287,78.0619 -25.6138,47.569 -28.0533,68.3042 -24.3941,164.6618 2.4393,91.4788 8.538,115.8731 32.9322,150.0251 45.1291,64.6451 101.2358,78.062 165.8804,40.2507 z"
       id="path22"
       style="stroke-width:1.21971" />
    <path
       d="m 6450.3775,4867.2592 c -143.9257,-13.4169 -241.5025,-135.3885 -230.5251,-286.6334 6.0985,-87.8197 21.9548,-128.0703 69.5234,-178.0787 56.1067,-58.5465 112.2132,-81.721 198.8126,-81.721 98.7965,0 179.2973,47.5689 226.8659,134.1687 60.9854,110.9943 39.0308,269.5576 -48.7884,350.0589 -34.1518,31.7126 -125.63,71.9632 -152.4636,68.3041 -7.3183,-1.2197 -36.5913,-3.6591 -63.4248,-6.0986 z m 112.2132,-71.9633 c 21.9547,-17.076 40.2504,-41.4704 40.2504,-53.6675 0,-12.1972 6.0986,-26.8338 12.1971,-30.4929 21.9547,-13.4169 13.4168,-202.4731 -10.9774,-257.3603 -47.5686,-103.676 -131.7286,-120.752 -209.79,-42.6902 -45.1292,43.9098 -47.5686,51.2282 -48.7883,124.4112 -3.6592,182.9576 8.5379,231.7462 73.1825,270.7772 46.3489,29.2732 96.3571,25.6141 143.9257,-10.9775 z"
       id="path24"
       style="stroke-width:1.21971" />
    <path
       d="m 1087.3164,4850.1832 c -23.1745,-14.6366 3.659,-35.3718 45.1292,-35.3718 54.8869,0 57.3263,-12.1972 52.4475,-231.7462 -3.6591,-154.9041 -6.0986,-174.4195 -26.8336,-190.2759 -13.4168,-9.7577 -36.5913,-17.076 -52.4475,-17.076 -26.8337,0 -42.6898,-36.5915 -15.8563,-36.5915 7.3183,-1.2197 67.0841,-1.2197 134.168,-1.2197 67.0841,0 130.509,0 140.2666,1.2197 10.9774,0 14.6366,7.3183 10.9774,18.2957 -4.8789,10.9775 -23.1745,18.2958 -48.7883,18.2958 h -41.4701 l -2.4395,239.0645 -3.6591,237.8448 -89.0388,2.4394 c -50.008,1.2198 -96.357,-1.2197 -102.4555,-4.8788 z"
       id="path26"
       style="stroke-width:1.21971" />
    <path
       d="m 1436.1532,4852.6226 c -18.2957,-18.2958 0,-37.8112 36.5913,-37.8112 52.4474,0 52.4474,2.4394 43.9094,-237.8448 l -6.0985,-182.9576 -40.2504,-12.1971 c -23.1745,-6.0986 -37.811,-18.2958 -36.5913,-28.0536 6.0986,-25.6139 296.3894,-28.0534 296.3894,-2.4393 0,12.1971 -15.8563,20.7352 -48.7885,24.3943 l -48.7883,6.0986 -3.6592,128.0703 c -2.4393,73.183 2.4395,150.0251 10.9774,179.2983 24.3943,90.2591 101.236,147.5858 117.0921,89.0394 7.3183,-29.2732 59.7658,-45.1296 87.8191,-28.0535 28.0533,17.076 31.7125,62.2056 6.0985,90.259 -31.7124,35.3719 -126.8497,31.7127 -173.1986,-7.3183 -43.9096,-36.5915 -51.2278,-37.8112 -51.2278,-6.0986 0,13.4169 -7.3183,24.3944 -14.6365,25.6141 -60.9855,3.6592 -170.7593,3.6592 -175.6381,0 z"
       id="path28"
       style="stroke-width:1.21971" />
    <path
       d="m 2000.8785,4842.8649 c -18.2957,-9.7578 -42.6898,-30.4929 -53.6672,-47.569 -39.0307,-59.7661 25.6138,-120.7519 74.4023,-70.7435 10.9774,9.7577 19.5153,24.3943 19.5153,30.4929 0,25.614 51.2278,59.7661 89.0387,59.7661 52.4475,0 89.0389,-39.0309 100.0162,-106.1154 7.3183,-48.7887 6.0985,-53.6675 -24.3942,-64.645 -17.0759,-6.0986 -52.4475,-12.1972 -78.0613,-12.1972 -54.887,0 -142.7061,-28.0534 -182.9564,-59.7661 -36.5913,-28.0535 -53.6673,-114.6534 -31.7125,-165.8815 25.614,-64.645 68.3038,-82.9408 178.0776,-80.5013 45.1292,1.2197 63.4248,8.5381 101.2358,42.6901 24.3942,23.1746 42.6898,36.5915 40.2504,28.0535 -2.4394,-8.538 10.9774,-30.4929 31.7124,-50.0084 30.4927,-29.2733 42.6899,-32.9324 79.2812,-26.8338 56.1065,8.5381 85.3796,39.031 90.2584,92.6985 2.4395,31.7126 -1.2197,42.69 -17.0759,46.3493 -14.6365,2.4393 -21.9547,-3.6593 -21.9547,-18.2958 0,-30.4929 -31.7125,-73.1831 -45.1293,-60.9859 -4.8788,6.0986 -12.1971,93.9183 -15.8562,196.3744 -7.3183,208.5716 -17.076,237.8449 -92.6979,269.5576 -56.1066,23.1745 -193.9338,21.9548 -240.2827,-2.4395 z m 220.7673,-263.4589 c 8.538,-9.7577 8.538,-32.9323 0,-73.183 -20.7351,-100.0168 -131.7286,-157.3435 -182.9563,-93.9182 -29.273,36.5915 -28.0533,103.676 1.2197,132.9491 13.4168,13.4169 45.1293,28.0536 70.7431,31.7127 25.6139,4.8788 52.4475,9.7578 58.5461,12.1971 24.3941,8.5381 40.2504,6.0986 52.4474,-9.7577 z"
       id="path30"
       style="stroke-width:1.21971" />
    <path
       d="m 3888.9882,4836.7663 c -39.0306,-23.1746 -50.008,-36.5915 -52.4475,-69.5239 -4.8788,-45.1295 10.9774,-62.2055 56.1067,-62.2055 18.2956,0 31.7124,10.9774 40.2504,32.9324 19.5153,52.4477 47.5686,76.8421 90.2584,76.8421 54.887,0 80.5008,-24.3944 92.6979,-91.4788 13.4168,-71.9633 0,-91.4788 -63.4249,-91.4788 -148.8044,0 -254.9191,-65.8647 -254.9191,-158.5631 0,-98.7971 50.008,-147.5858 150.0241,-148.8055 64.6446,-1.2198 124.4105,20.7352 153.6835,56.1069 13.4167,15.8564 19.5153,14.6367 45.1291,-17.076 57.3264,-68.3041 150.0243,-58.5464 182.9565,19.5155 20.735,48.7887 15.8561,78.0618 -13.4169,78.0618 -10.9774,0 -21.9547,-14.6365 -25.6138,-35.3717 -8.5381,-37.8112 -39.0308,-60.9858 -47.5687,-34.1521 -2.4395,7.3183 -6.0985,93.9183 -8.538,191.4956 -3.6591,140.2674 -8.5379,182.9575 -24.3942,204.9125 -37.8109,53.6675 -70.7431,68.3041 -173.1987,71.9632 -85.3796,3.6592 -104.8949,1.2197 -147.5848,-23.1746 z m 225.6462,-264.6786 c 36.5913,-70.7436 -34.1518,-184.1772 -115.8723,-184.1772 -48.7884,0 -65.8643,12.1971 -79.2812,59.7661 -20.735,71.9633 9.7577,113.4337 97.5768,132.9492 79.2811,17.076 82.9402,17.076 97.5767,-8.5381 z"
       id="path32"
       style="stroke-width:1.21971" />
    <path
       d="m 7387.1141,4847.7437 c -9.7577,-15.8562 10.9774,-30.4929 51.2278,-35.3717 l 36.5912,-3.6592 v -196.3745 c 0,-208.5715 -6.0985,-231.7462 -58.546,-239.0645 -14.6366,-2.4394 -26.8337,-10.9774 -26.8337,-19.5155 0,-12.1971 34.1519,-17.076 143.9258,-18.2957 79.281,-2.4394 150.0242,1.2197 157.3424,4.8789 21.9548,14.6366 -1.2196,32.9323 -51.2278,41.4704 l -48.7883,8.538 v 151.2449 c 0,153.6843 4.8789,176.859 53.6672,234.1857 30.4927,35.3717 48.7883,34.152 73.1825,-3.6592 41.4701,-63.4253 143.9257,-17.076 113.433,51.2281 -28.0533,62.2056 -178.0776,51.2281 -219.5477,-17.076 -13.4168,-20.7352 -32.9321,-8.5381 -32.9321,20.7351 0,19.5155 -12.1971,23.1747 -92.6979,26.8338 -51.2278,2.4395 -95.1374,-1.2197 -98.7964,-6.0986 z"
       id="path34"
       style="stroke-width:1.21971" />
    <path
       d="m 7977.4533,4848.9635 c -53.6672,-14.6367 -85.3797,-54.8873 -79.2811,-103.676 6.0985,-51.228 58.546,-53.6675 93.9176,-6.0986 14.6365,20.7352 25.6139,42.6902 25.6139,48.7888 0,26.8337 67.084,35.3717 113.4329,13.4168 36.5913,-15.8563 57.3264,-58.5464 57.3264,-113.4337 0,-47.5689 -13.4168,-56.107 -95.1373,-56.107 -58.5461,0 -114.6527,-15.8563 -180.517,-51.228 -50.0081,-26.8338 -70.7431,-100.0169 -48.7884,-165.8816 34.1519,-97.5774 179.2973,-126.8505 273.2149,-56.1069 l 41.4701,32.9323 29.273,-31.7126 c 15.8562,-17.0761 48.7884,-35.3718 73.1826,-40.2507 36.5912,-6.0986 48.7883,-3.6592 73.1825,20.7352 32.9321,34.1521 46.3489,114.6533 18.2956,114.6533 -9.7576,0 -23.1744,-18.2957 -28.0532,-40.2506 -6.0986,-23.1746 -17.076,-39.0309 -25.614,-35.3718 -9.7576,2.4395 -17.0759,59.7662 -20.735,186.6167 -7.3183,192.7153 -19.5154,236.6251 -78.0614,273.2166 -32.9321,20.7352 -182.9564,26.8338 -242.7221,9.7578 z m 203.6914,-318.3462 c 0,-76.8421 -32.9322,-120.7519 -102.4556,-135.3885 -48.7883,-10.9775 -54.8869,-9.7578 -81.7205,21.9548 -56.1066,65.8648 -17.0759,145.1463 81.7205,164.6618 96.3571,19.5155 103.6753,15.8564 102.4556,-51.2281 z"
       id="path36"
       style="stroke-width:1.21971" />
    <path
       d="m 8875.1592,4853.8423 c -65.8643,-2.4394 -89.0388,-7.3183 -89.0388,-20.7352 0,-10.9774 17.0759,-18.2957 46.349,-20.7351 l 45.1292,-3.6592 3.6592,-193.935 c 2.4394,-167.1012 0,-196.3744 -17.0759,-215.8899 -12.1972,-13.4169 -34.1519,-23.1746 -50.0082,-23.1746 -15.8562,0 -28.0533,-7.3183 -28.0533,-17.076 0,-14.6367 28.0533,-18.2958 143.9257,-21.955 78.0614,-2.4393 147.5848,-1.2197 152.4637,0 20.735,9.7578 -20.7351,39.031 -53.6672,39.031 h -35.3716 l -2.4395,240.2842 c -2.4393,147.5857 -8.5379,240.2843 -15.8561,241.504 -6.0985,0 -52.4475,-1.2197 -100.0162,-3.6592 z"
       id="path38"
       style="stroke-width:1.21971" />
    <path
       d="m 9260.5873,4844.0846 c -62.2052,-18.2957 -101.2359,-63.4253 -87.8191,-98.7971 20.7351,-54.8872 67.084,-52.4478 102.4556,6.0986 15.8563,24.3944 34.1519,48.7887 40.2504,53.6676 26.8336,19.5154 91.4781,9.7577 115.8724,-15.8564 25.6139,-28.0534 46.349,-121.9716 31.7124,-143.9266 -3.6592,-7.3183 -45.1293,-13.4169 -91.4782,-13.4169 -46.349,0 -87.8191,-4.8788 -91.4781,-12.1972 -3.6592,-6.0985 -18.2957,-12.1971 -32.9322,-12.1971 -13.4168,0 -42.6898,-18.2958 -65.8643,-41.4704 -34.1519,-34.1521 -41.4701,-51.2281 -41.4701,-91.4788 0,-69.5238 26.8336,-115.873 80.5008,-141.4871 39.0307,-18.2957 53.6672,-19.5155 115.8723,-6.0986 39.0307,8.538 82.9403,25.6141 96.3571,39.031 l 26.8335,24.3943 35.3716,-34.1521 c 68.3037,-64.645 181.7367,-24.3943 181.7367,64.645 0,31.7127 -4.8788,40.2506 -23.1744,40.2506 -17.076,0 -25.614,-12.1971 -30.4928,-42.69 -4.8788,-23.1746 -13.4168,-42.6901 -18.2957,-42.6901 -19.5153,0 -25.6138,53.6675 -25.6138,212.2307 0,175.6392 -12.1971,212.2308 -87.8191,254.9209 -43.9095,25.614 -151.2439,25.614 -230.525,1.2197 z m 201.252,-290.2926 c 6.0986,-30.4929 1.2197,-54.8873 -15.8562,-86.6 -30.4927,-57.3266 -58.5461,-78.0618 -106.1147,-79.2815 -50.0081,0 -73.1826,21.9549 -81.7205,76.8421 -9.7577,60.9859 26.8336,102.4563 101.2358,117.0928 91.4782,18.2958 93.9176,17.0761 102.4556,-28.0534 z"
       id="path40"
       style="stroke-width:1.21971" />
  </g>
  <ellipse
     style="opacity:0.995;fill:#000000;fill-opacity:1;stroke:#000000;stroke-width:0.933081;stroke-linecap:round;stroke-miterlimit:4;stroke-dasharray:none;stroke-opacity:1"
     id="path879"
     cx="893.24817"
     cy="471.28845"
     rx="7.0980153"
     ry="7.093256" />
  <path
     d="m 691.51461,617.71857 c -6.20149,0.63739 -12.92706,1.639 -14.84865,2.18532 -1.92159,0.63739 -4.80397,1.45689 -6.37619,1.91217 -1.65955,0.36422 -3.58114,1.36582 -4.36724,2.00321 -0.7861,0.72845 -3.40646,2.4585 -5.85212,3.91537 -6.63821,3.91538 -16.85758,15.57046 -20.52607,23.40121 -0.9608,2.18533 -2.35831,4.91699 -3.05708,6.19176 -0.69875,1.27477 -1.31017,3.09588 -1.31017,4.18854 0,2.09428 -2.53301,4.917 -4.27991,4.917 -0.61142,0 -4.80397,1.82109 -9.43325,4.09748 -4.54195,2.27637 -9.34593,4.37065 -10.56875,4.64382 -1.31017,0.36422 -3.14442,1.09266 -4.10522,1.63899 -1.9216,1.18372 -13.27644,5.82753 -19.91466,8.01286 -2.27097,0.81951 -4.36725,1.09266 -4.62928,0.63739 -0.17469,-0.45528 0.43671,-2.54955 1.48486,-4.64382 1.04814,-2.18533 3.05708,-7.37548 4.36725,-11.56403 1.39753,-4.18853 2.79504,-8.01285 3.23177,-8.65024 0.43672,-0.54633 1.22283,-2.82272 1.83423,-5.09909 0.61142,-2.27639 2.00896,-5.64543 3.23177,-7.46653 1.13549,-1.91216 2.09629,-3.73327 2.09629,-4.18855 0,-0.36422 2.00893,-2.64059 4.36724,-5.00804 6.90027,-6.82914 7.94839,-11.65507 3.31911,-15.66151 -2.53299,-2.18532 -3.31911,-2.45849 -7.33698,-1.91215 -3.93052,0.45528 -11.70423,3.09587 -15.19802,5.09909 -0.69877,0.45528 -3.6685,2.00321 -6.55088,3.55116 -5.59009,3.00482 -14.67396,10.92664 -16.59555,14.6599 -1.39753,2.73164 -5.59009,11.56401 -6.63822,14.11355 -2.27098,5.46333 -3.58115,15.75257 -3.05708,23.76544 l 0.52407,8.28602 -4.19257,2.82272 c -3.66848,2.45848 -5.67742,3.00483 -18.08041,4.82593 -16.24617,2.27639 -56.33752,3.82431 -56.33752,2.09427 0,-1.18373 2.88238,-4.00643 4.10521,-4.00643 0.52407,0 1.1355,-0.63739 1.48487,-1.36583 0.26204,-0.72845 1.48485,-1.8211 2.70769,-2.45849 1.22283,-0.54634 2.18363,-1.54795 2.18363,-2.27639 0,-0.63738 0.52406,-1.18372 1.13548,-1.18372 0.69876,0 1.65955,-1.00161 2.18363,-2.18532 0.52407,-1.27477 2.27097,-3.82432 3.93053,-5.73649 1.5722,-1.91216 4.10521,-5.55437 5.67741,-8.10392 1.48487,-2.54953 4.36726,-6.37386 6.28885,-8.55919 1.92159,-2.18532 3.49379,-4.18854 3.49379,-4.55276 0,-0.91054 6.55088,-7.28442 7.51168,-7.28442 0.96079,0 2.96973,-5.19016 2.96973,-7.7397 0,-3.18693 -3.75583,-7.73969 -7.24964,-8.7413 -1.7469,-0.45529 -3.58114,-0.72845 -3.93053,-0.45529 -0.34937,0.18212 -4.71662,0.54634 -9.78264,0.6374 -5.066,0.18211 -9.95733,0.72844 -10.91811,1.36582 -0.96081,0.54634 -3.6685,1.36584 -6.02681,1.73006 -4.2799,0.63738 -17.73104,5.46331 -19.2159,6.9202 -0.52407,0.45527 -1.39753,0.81948 -2.09628,0.81948 -1.57222,0 -11.09282,7.64865 -14.58661,11.74614 -4.80399,5.64543 -9.78264,14.20462 -13.01441,22.3996 -0.87345,2.00321 -1.83425,4.2796 -2.27097,5.09909 -0.34938,0.8195 -1.04813,3.36905 -1.31018,5.73648 l -0.69876,4.37066 -6.20149,-0.6374 c -8.99654,-0.81949 -18.77918,-2.18531 -22.79705,-3.18691 -1.92159,-0.4553 -5.24069,-1.09268 -7.42432,-1.27479 -2.18362,-0.27316 -6.46352,-1.09266 -9.60795,-1.91215 -18.2551,-4.73489 -21.83626,-5.9186 -21.83626,-7.10232 0,-1.09266 0.61142,-1.54795 6.63823,-4.64381 2.96973,-1.54795 8.12308,-7.01127 17.38165,-18.39316 1.48487,-1.82112 3.31911,-4.0975 4.19257,-5.00806 0.78611,-0.91054 1.48486,-2.09426 1.48486,-2.54953 0,-0.45528 0.96079,-1.639 2.09628,-2.54955 1.13549,-0.91056 4.10521,-5.37227 6.55087,-9.83397 4.97867,-9.01448 5.06602,-10.47135 1.31018,-15.66151 -2.27096,-3.09589 -2.62035,-3.27799 -10.21937,-4.82593 -7.33698,-1.54795 -21.83625,0.54634 -33.36579,4.64381 -1.39752,0.54634 -3.75583,1.27478 -5.2407,1.73006 -1.39752,0.36423 -4.19256,1.54794 -6.11415,2.6406 -1.83425,1.09267 -4.10521,1.91216 -4.89131,1.91216 -0.78612,0 -1.92159,0.63738 -2.533,1.36583 -0.61143,0.72844 -1.57222,1.36583 -2.18365,1.36583 -1.57219,0 -11.79157,8.28603 -15.11068,12.20141 -1.57221,1.91215 -3.66849,5.2812 -4.62929,7.64863 -1.04813,2.36744 -2.27097,5.28122 -2.79504,6.556 -0.52407,1.27476 -1.48486,3.00481 -2.18362,3.82431 -1.48486,1.82111 -1.22283,1.91216 -23.93252,-9.65186 -8.55981,-4.27959 -15.89679,-7.83075 -16.42086,-7.83075 -0.52408,0 -2.35832,-0.91055 -4.19256,-2.09428 -6.11415,-4.00643 -10.13202,-5.4633 -15.02335,-5.55437 -4.6293,-0.0911 -4.80399,0 -5.06602,2.36744 -0.17469,1.73005 0.43672,3.18693 1.83425,4.73488 1.13549,1.18372 2.35833,2.82272 2.62037,3.64221 0.34937,0.8195 1.57221,1.91215 2.79503,2.36742 1.22284,0.45529 2.44567,1.4569 2.7077,2.27639 0.26203,0.72845 2.62035,2.36745 5.2407,3.73327 2.62035,1.27477 4.71663,2.73166 4.71663,3.18694 0,0.45527 0.43673,0.81949 0.9608,0.81949 0.52405,0 7.7737,3.55116 16.15881,7.83075 8.38512,4.2796 18.86651,9.3787 23.32111,11.29086 7.33697,3.09588 8.12309,3.64221 9.08388,6.64703 0.69876,2.09427 0.78611,4.82593 0.34938,7.83076 -0.34938,2.54955 -0.43672,4.91698 -0.0873,5.2812 0.26203,0.36423 1.04813,2.36743 1.65954,4.37065 0.69877,2.00322 2.7077,5.55438 4.54195,7.83077 1.92159,2.36743 3.40644,4.46171 3.40644,4.64381 0,0.18212 3.14443,3.82433 6.98762,8.01287 3.84318,4.27959 6.9876,8.19497 6.9876,8.83236 0,0.54634 0.34938,1.18373 0.78611,1.36583 0.43672,0.0911 2.09628,1.36582 3.75583,2.73166 3.75584,3.27799 9.34592,7.1023 10.21937,7.1023 0.34937,0 1.39752,0.81951 2.27096,1.82112 0.87346,1.0016 2.09629,1.82109 2.70771,1.82109 0.6114,0 1.22281,0.27317 1.39751,0.6374 0.26203,0.72845 9.43326,5.73648 10.48141,5.73648 0.34937,0 1.48485,0.36422 2.62034,0.81949 2.53301,1.00161 2.00894,0.81951 8.12308,2.36745 11.44221,2.82271 19.65263,0.63738 21.31219,-5.73649 1.13547,-4.09748 1.22283,-11.74613 0.17469,-12.38352 -0.34939,-0.27317 -0.96081,-1.73004 -1.31018,-3.27799 -1.39752,-7.64864 -16.5082,-22.49065 -32.92906,-32.59778 -1.83424,-1.18373 -3.40646,-2.54955 -3.40646,-3.00484 0,-0.54632 -0.43672,-0.63738 -1.04814,-0.27315 -0.52407,0.36422 -0.69876,0.27315 -0.43673,-0.36423 0.34939,-0.45528 1.48487,-0.72845 2.62035,-0.45528 2.7077,0.63739 15.02334,3.73327 20.70077,5.28121 8.7345,2.27637 16.94493,4.00644 22.53501,4.55277 3.05708,0.36422 8.29777,1.09266 11.70423,1.73005 l 6.2015,1.09267 1.04814,4.09748 c 0.52407,2.27639 2.09627,6.10071 3.4938,8.55919 2.53299,4.55276 8.55981,11.38191 10.04467,11.38191 0.52408,0 1.31018,0.8195 1.92159,1.82112 0.61142,1.0016 1.65955,1.82109 2.27096,1.82109 0.61142,0 1.31018,0.63739 1.57222,1.36583 0.34937,0.72845 1.13548,1.36584 1.74689,1.36584 0.69876,0 1.48488,0.63738 1.74691,1.36582 0.34938,0.72845 1.04815,1.36583 1.7469,1.36583 0.61142,0 1.48487,0.54634 1.83425,1.27478 0.7861,1.36582 8.82184,6.00964 10.39405,6.00964 0.52406,0 1.48487,0.63739 2.09628,1.36583 1.31018,1.63899 13.36379,5.46331 20.52607,6.55599 7.33698,1.18371 35.02535,-0.27317 38.51915,-2.00323 2.53301,-1.27477 4.71663,-4.55276 4.71663,-7.28442 0,-2.09426 -7.77371,-13.0209 -13.0144,-18.30211 -5.76478,-5.82753 -19.56529,-15.84361 -21.83625,-15.84361 -0.61142,0 -0.78611,-0.36422 -0.52408,-0.91055 0.34939,-0.54634 6.55088,-0.91055 15.7221,-0.91055 8.29778,0 19.12856,-0.45527 24.10722,-0.91057 4.97868,-0.54632 10.04467,-1.09265 11.09282,-1.1837 1.74691,-0.18212 2.35831,0.54632 3.75584,4.18853 0.96079,2.4585 3.4938,6.73809 5.59008,9.46975 2.18362,2.73166 3.93052,5.37226 3.93052,5.82753 0,0.45529 0.43673,0.81951 0.87344,0.81951 0.52407,0 1.83425,0.81949 2.88239,1.8211 1.04815,1.09267 2.88239,2.4585 4.10521,3.09588 1.22285,0.63739 4.19258,2.27638 6.55089,3.64221 2.44567,1.36583 8.12308,3.55116 12.66502,4.73487 10.74345,3.00483 26.46555,3.36905 34.50129,0.91055 5.50272,-1.73004 16.68289,-7.1023 22.7097,-11.01768 3.40645,-2.09427 6.0268,-3.55115 12.8397,-6.64703 3.40647,-1.639 4.19258,-3.18694 4.19258,-8.5592 0,-4.46171 -2.35833,-6.19175 -8.47248,-6.19175 -2.533,0 -5.41538,-0.36422 -6.55087,-0.8195 -1.13549,-0.45529 -6.0268,-2.09428 -10.83078,-3.73328 -4.89132,-1.54794 -9.60794,-3.36904 -10.48141,-4.09749 -0.96078,-0.72844 -2.27096,-1.36582 -3.05706,-1.36582 -0.78612,0 -4.6293,-1.63899 -8.47246,-3.64221 -3.84318,-2.00323 -7.42434,-3.64222 -7.94842,-3.64222 -1.83422,0 -0.17468,-1.63899 2.27099,-2.27639 1.39751,-0.27315 8.12308,-3.55114 15.11068,-7.10229 l 12.66502,-6.46493 8.38512,-0.18212 c 9.17122,-0.27316 19.21591,-2.54954 27.51368,-6.28281 7.24963,-3.27799 10.83078,-5.2812 10.83078,-6.10071 0,-0.45527 0.52407,-0.72844 1.22283,-0.72844 0.61142,0 2.18363,-1.0016 3.49379,-2.27637 1.31018,-1.27479 2.96974,-2.27639 3.6685,-2.27639 0.61142,0 1.22283,-0.45527 1.22283,-0.91055 0,-0.54632 0.52406,-0.91054 1.22282,-0.91054 0.69877,0 1.39753,-0.6374 1.7469,-1.36584 0.26203,-0.72845 1.04815,-1.36583 1.65957,-1.36583 0.69876,0 2.88238,-1.639 4.97866,-3.64221 2.09628,-2.00322 4.27991,-3.64221 4.80398,-3.64221 0.52406,0 2.27096,-1.639 3.84317,-3.64221 1.48487,-2.00322 3.31911,-3.64221 4.01788,-3.64221 0.69876,0 1.31018,-0.54633 1.31018,-1.18372 0,-0.63739 1.22281,-2.36744 2.70769,-3.91538 7.51166,-7.37547 8.55981,-14.29568 2.96973,-19.30372 -4.54195,-4.18854 -10.83078,-5.00803 -27.07696,-3.36904 z m 10.56875,16.11678 c -2.62035,3.91538 -17.99307,16.20784 -20.1767,16.20784 -0.61141,0 -2.96972,1.54794 -5.32805,3.4601 -4.71662,3.91537 -12.49033,8.10392 -17.55635,9.46975 -8.5598,2.27638 -9.95731,1.91216 -7.77369,-2.36744 2.09628,-4.27959 11.96627,-16.11677 14.06255,-16.93628 1.22282,-0.45528 2.18362,-1.27478 2.18362,-1.73005 0,-1.27477 10.13202,-6.00966 15.7221,-7.28442 5.32804,-1.27477 15.11068,-2.54955 18.08042,-2.4585 1.57219,0 1.65955,0.27317 0.7861,1.639 z m -321.42961,1.73005 c 0.26203,0.54633 -0.61142,2.27638 -2.00893,3.82432 -2.62036,3.00482 -6.72557,8.46815 -8.99654,12.0193 -5.15336,8.10393 -14.49927,16.02573 -21.05014,17.84682 -5.59009,1.54795 -12.49034,1.91217 -20.00202,1.09268 -5.85212,-0.63739 -6.55087,-0.91056 -6.28884,-2.54955 0.52407,-3.18694 6.63823,-13.56725 8.64717,-14.56885 1.04814,-0.54632 3.14441,-2.27639 4.71662,-3.91538 1.57222,-1.63899 3.4938,-2.91376 4.27991,-2.91376 0.69876,0 2.79504,-0.8195 4.62929,-1.8211 10.83077,-6.10071 34.32658,-11.92826 36.07348,-9.01448 z m 199.49599,12.20142 c 0,0.72843 -0.34938,2.09426 -0.78612,3.00481 -2.09628,4.09748 -4.45458,10.38031 -4.45458,11.83718 0,0.91056 -0.34939,2.00322 -0.69876,2.4585 -0.43672,0.54632 -1.65956,3.18693 -2.70771,6.00965 -1.83423,4.91698 -5.67742,9.92501 -6.72557,8.83236 -0.52406,-0.63739 1.65957,-12.38352 3.23178,-17.11838 1.83425,-5.28121 6.9876,-13.84042 8.7345,-14.29569 0.9608,-0.27316 1.65956,-0.8195 1.65956,-1.27478 0,-0.45527 0.43672,-0.81949 0.87344,-0.81949 0.52408,0 0.87346,0.63738 0.87346,1.36584 z m -89.96536,6.73807 c 0,1.27478 -5.59008,9.92504 -11.09282,17.20946 -5.41539,7.10231 -14.84864,15.29728 -18.51714,16.29889 -1.22283,0.27316 -2.79504,0.91056 -3.40645,1.45688 -0.61141,0.45528 -4.01787,1.09267 -7.59902,1.36584 -8.29777,0.54632 -8.64715,-0.18212 -4.2799,-9.10553 3.4938,-7.19336 13.1891,-18.02895 16.07147,-18.02895 0.87347,0 1.92159,-0.45527 2.18363,-0.91054 0.9608,-1.639 8.38511,-4.91699 15.7221,-6.9202 7.77371,-2.18534 10.91813,-2.54956 10.91813,-1.36585 z M 345.54106,707.408 c 0.52406,0.54635 1.39752,0.91058 2.00893,0.91058 0.61141,0 1.13549,0.45527 1.13549,0.91055 0,0.54632 1.04814,1.45687 2.44566,2.00321 1.31017,0.63739 4.10521,2.45849 6.11415,4.18854 2.09628,1.73005 6.0268,4.37066 8.64715,5.73648 2.70769,1.4569 6.63821,4.46171 8.73451,6.7381 2.18362,2.27638 4.36724,4.09748 4.89131,4.09748 1.31018,0.091 6.46353,7.37548 6.90027,9.65187 0.87344,5.19014 -18.08043,-2.18534 -30.92015,-12.01931 -12.49033,-9.56079 -27.25163,-26.6792 -25.50474,-29.59297 0.43673,-0.72845 13.97521,5.73648 15.54742,7.37547 z m 245.00273,2.82273 c 3.66849,1.09267 9.95733,3.4601 14.06254,5.37227 4.10522,1.91215 10.21937,4.64381 13.53848,5.91858 6.28884,2.4585 11.00548,5.9186 8.12308,5.9186 -0.69875,0 -1.83424,0.54633 -2.35831,1.27477 -1.83424,2.27638 -11.52954,4.46171 -19.73997,4.46171 -8.12308,0.0911 -18.42979,-2.36743 -24.89333,-5.73648 -1.65954,-0.81949 -4.4546,-2.27639 -6.11415,-3.18693 -2.70769,-1.45689 -12.2283,-10.65347 -12.2283,-11.74613 0,-0.72845 3.75583,-2.64062 6.55087,-3.36905 5.50275,-1.36584 16.42087,-0.81949 23.05909,1.09266 z m -132.9391,9.19659 c 1.31018,0.54632 2.7077,0.91055 3.14442,0.91055 0.9608,-0.27316 8.7345,1.8211 9.78264,2.54954 0.52407,0.27317 2.88239,1.36584 5.2407,2.27638 2.44567,0.91055 5.76477,2.4585 7.42433,3.46011 1.65955,1.0016 5.32805,3.09587 8.12308,4.55276 2.88238,1.54795 5.32805,3.27799 5.59009,4.00643 0.26203,0.63739 0.87344,1.18373 1.48486,1.18373 1.48486,0.0911 6.90025,6.10068 6.0268,6.64703 -1.39752,0.91055 -17.99306,0.72844 -22.79705,-0.27318 -2.533,-0.54632 -6.37617,-1.82109 -8.64715,-2.8227 -5.85211,-2.64061 -20.00201,-12.65669 -26.02881,-18.48422 l -5.2407,-5.00804 6.72558,-0.0911 c 3.66847,0 7.77368,0.4553 9.17121,1.09268 z"
     id="path997"
     style="fill:#000000;stroke:none;stroke-width:0.0891808" />
  <path
     d="m 273.76428,394.58352 c 6.2015,-0.63738 12.92706,-1.639 14.84865,-2.18532 1.92159,-0.63739 4.80398,-1.45689 6.3762,-1.91216 1.65954,-0.36422 3.58113,-1.36583 4.36724,-2.00322 0.7861,-0.72845 3.40644,-2.4585 5.85211,-3.91537 6.63822,-3.91538 16.85759,-15.57046 20.52608,-23.40121 0.9608,-2.18533 2.35831,-4.91699 3.05708,-6.19176 0.69875,-1.27477 1.31016,-3.09588 1.31016,-4.18854 0,-2.09428 2.53301,-4.91699 4.27991,-4.91699 0.61142,0 4.80398,-1.8211 9.43326,-4.09748 4.54194,-2.27638 9.34593,-4.37066 10.56874,-4.64383 1.31018,-0.36422 3.14443,-1.09266 4.10523,-1.63899 1.92159,-1.18371 13.27643,-5.82753 19.91465,-8.01286 2.27098,-0.8195 4.36726,-1.09266 4.62929,-0.63738 0.17469,0.45527 -0.43672,2.54954 -1.48487,4.64381 -1.04814,2.18533 -3.05708,7.37548 -4.36725,11.56403 -1.39752,4.18853 -2.79504,8.01285 -3.23177,8.65024 -0.43671,0.54633 -1.22282,2.82272 -1.83423,5.0991 -0.61142,2.27638 -2.00895,5.64542 -3.23176,7.46653 -1.1355,1.91215 -2.09629,3.73327 -2.09629,4.18854 0,0.36422 -2.00894,2.64059 -4.36724,5.00804 -6.90027,6.82914 -7.9484,11.65507 -3.31912,15.66151 2.533,2.18532 3.31912,2.45849 7.33699,1.91215 3.93051,-0.45527 11.70422,-3.09587 15.19802,-5.09909 0.69875,-0.45528 3.66849,-2.00321 6.55087,-3.55116 5.59009,-3.00481 14.67397,-10.92663 16.59556,-14.65989 1.39752,-2.73165 5.59009,-11.56402 6.63822,-14.11356 2.27097,-5.46333 3.58115,-15.75256 3.05708,-23.76544 l -0.52408,-8.28602 4.19258,-2.82272 c 3.66847,-2.45848 5.67741,-3.00482 18.0804,-4.82593 16.24617,-2.27638 56.33752,-3.82431 56.33752,-2.09426 0,1.18372 -2.88237,4.00643 -4.10521,4.00643 -0.52407,0 -1.13549,0.63738 -1.48486,1.36582 -0.26204,0.72845 -1.48486,1.8211 -2.70769,2.4585 -1.22284,0.54633 -2.18363,1.54794 -2.18363,2.27638 0,0.63738 -0.52406,1.18373 -1.13548,1.18373 -0.69876,0 -1.65957,1.0016 -2.18364,2.18531 -0.52406,1.27478 -2.27096,3.82432 -3.93052,5.73649 -1.57221,1.91216 -4.10521,5.55437 -5.67742,8.10392 -1.48487,2.54954 -4.36725,6.37387 -6.28884,8.55919 -1.92159,2.18532 -3.4938,4.18854 -3.4938,4.55276 0,0.91055 -6.55087,7.28442 -7.51168,7.28442 -0.96078,0 -2.96972,5.19016 -2.96972,7.7397 0,3.18693 3.75583,7.73969 7.24964,8.7413 1.74688,0.45529 3.58113,0.72845 3.93052,0.45529 0.34938,-0.18212 4.71663,-0.54634 9.78265,-0.63739 5.06599,-0.18211 9.95732,-0.72845 10.91811,-1.36583 0.9608,-0.54634 3.66849,-1.36584 6.02681,-1.73006 4.2799,-0.63738 17.73104,-5.46331 19.2159,-6.9202 0.52407,-0.45527 1.39751,-0.81948 2.09628,-0.81948 1.57222,0 11.09281,-7.64865 14.58661,-11.74613 4.80399,-5.64544 9.78264,-14.20463 13.01441,-22.3996 0.87345,-2.00322 1.83425,-4.2796 2.27097,-5.0991 0.34938,-0.8195 1.04813,-3.36905 1.31017,-5.73648 l 0.69877,-4.37065 6.20149,0.63739 c 8.99653,0.81949 18.77917,2.18531 22.79704,3.18692 1.92159,0.45529 5.2407,1.09267 7.42433,1.27478 2.18362,0.27316 6.46352,1.09266 9.60795,1.91215 18.2551,4.73489 21.83625,5.9186 21.83625,7.10232 0,1.09267 -0.61141,1.54795 -6.63823,4.64382 -2.96972,1.54794 -8.12308,7.01126 -17.38164,18.39316 -1.48487,1.82111 -3.31912,4.0975 -4.19257,5.00805 -0.78611,0.91054 -1.48486,2.09426 -1.48486,2.54954 0,0.45528 -0.96079,1.63899 -2.09628,2.54954 -1.13549,0.91056 -4.10521,5.37228 -6.55087,9.83397 -4.97868,9.01448 -5.06602,10.47136 -1.31018,15.66151 2.27096,3.09589 2.62035,3.27799 10.21937,4.82593 7.33698,1.54795 21.83624,-0.54634 33.36579,-4.64381 1.39752,-0.54634 3.75583,-1.27478 5.2407,-1.73005 1.39751,-0.36423 4.19256,-1.54795 6.11415,-2.64061 1.83425,-1.09266 4.10521,-1.91216 4.89131,-1.91216 0.78611,0 1.92159,-0.63738 2.533,-1.36583 0.61142,-0.72844 1.57222,-1.36583 2.18363,-1.36583 1.57221,0 11.79158,-8.28603 15.1107,-12.20141 1.57221,-1.91215 3.66849,-5.2812 4.62929,-7.64863 1.04813,-2.36744 2.27097,-5.28122 2.79504,-6.55599 0.52406,-1.27477 1.48486,-3.00482 2.18362,-3.82431 1.48486,-1.82112 1.22283,-1.91217 23.93252,9.65185 8.55981,4.27959 15.89679,7.83075 16.42086,7.83075 0.52407,0 2.35831,0.91056 4.19256,2.09428 6.11415,4.00643 10.13202,5.4633 15.02335,5.55437 4.62929,0.0911 4.80397,0 5.066,-2.36744 0.17471,-1.73005 -0.43671,-3.18693 -1.83424,-4.73488 -1.13549,-1.18372 -2.35832,-2.82271 -2.62036,-3.64221 -0.34937,-0.8195 -1.57221,-1.91215 -2.79503,-2.36742 -1.22284,-0.45529 -2.44567,-1.4569 -2.7077,-2.27639 -0.26203,-0.72845 -2.62035,-2.36744 -5.2407,-3.73327 -2.62035,-1.27477 -4.71663,-2.73166 -4.71663,-3.18694 0,-0.45527 -0.43673,-0.81949 -0.9608,-0.81949 -0.52406,0 -7.7737,-3.55116 -16.15881,-7.83075 -8.38513,-4.2796 -18.86652,-9.37869 -23.32112,-11.29086 -7.33697,-3.09588 -8.12309,-3.64221 -9.08387,-6.64703 -0.69877,-2.09426 -0.78611,-4.82593 -0.34939,-7.83076 0.34939,-2.54955 0.43673,-4.91698 0.0873,-5.2812 -0.26203,-0.36422 -1.04813,-2.36743 -1.65955,-4.37064 -0.69876,-2.00323 -2.70769,-5.55439 -4.54194,-7.83078 -1.92159,-2.36743 -3.40646,-4.46171 -3.40646,-4.64381 0,-0.18212 -3.14441,-3.82433 -6.9876,-8.01287 -3.84319,-4.27959 -6.9876,-8.19497 -6.9876,-8.83236 0,-0.54633 -0.34939,-1.18373 -0.78611,-1.36583 -0.43672,-0.0911 -2.09628,-1.36582 -3.75583,-2.73165 -3.75584,-3.278 -9.34593,-7.10231 -10.21937,-7.10231 -0.34937,0 -1.39752,-0.8195 -2.27096,-1.82112 -0.87346,-1.0016 -2.0963,-1.82109 -2.70771,-1.82109 -0.6114,0 -1.22282,-0.27317 -1.39752,-0.63739 -0.26203,-0.72846 -9.43325,-5.73649 -10.4814,-5.73649 -0.34937,0 -1.48486,-0.36422 -2.62035,-0.81949 -2.533,-1.0016 -2.00893,-0.8195 -8.12308,-2.36745 -11.4422,-2.82271 -19.65262,-0.63738 -21.31218,5.73649 -1.13548,4.09748 -1.22284,11.74613 -0.17469,12.38352 0.34938,0.27317 0.9608,1.73005 1.31018,3.27799 1.39751,7.64864 16.5082,22.49065 32.92905,32.59779 1.83425,1.18372 3.40647,2.54954 3.40647,3.00483 0,0.54633 0.43672,0.63739 1.04813,0.27316 0.52408,-0.36423 0.69876,-0.27316 0.43673,0.36423 -0.34938,0.45527 -1.48486,0.72844 -2.62035,0.45527 -2.70769,-0.63738 -15.02334,-3.73327 -20.70077,-5.28121 -8.73449,-2.27637 -16.94493,-4.00644 -22.535,-4.55277 -3.05708,-0.36422 -8.29778,-1.09266 -11.70423,-1.73004 l -6.2015,-1.09268 -1.04814,-4.09748 c -0.52407,-2.27638 -2.09628,-6.1007 -3.49381,-8.55919 -2.53299,-4.55276 -8.5598,-11.38191 -10.04467,-11.38191 -0.52407,0 -1.31017,-0.8195 -1.92159,-1.82112 -0.61141,-1.0016 -1.65954,-1.82109 -2.27096,-1.82109 -0.61142,0 -1.31017,-0.63739 -1.57222,-1.36582 -0.34938,-0.72846 -1.13547,-1.36585 -1.74689,-1.36585 -0.69876,0 -1.48487,-0.63738 -1.7469,-1.36582 -0.34939,-0.72844 -1.04815,-1.36583 -1.74691,-1.36583 -0.61141,0 -1.48486,-0.54634 -1.83424,-1.27478 -0.7861,-1.36582 -8.82184,-6.00963 -10.39405,-6.00963 -0.52407,0 -1.48487,-0.6374 -2.09628,-1.36584 -1.31018,-1.63899 -13.36379,-5.46331 -20.52608,-6.55599 -7.33697,-1.18371 -35.02535,0.27318 -38.51915,2.00323 -2.533,1.27477 -4.71662,4.55276 -4.71662,7.28442 0,2.09426 7.77371,13.0209 13.0144,18.30211 5.76477,5.82753 19.56528,15.84361 21.83625,15.84361 0.61141,0 0.7861,0.36422 0.52407,0.91055 -0.34939,0.54634 -6.55088,0.91056 -15.72209,0.91056 -8.29779,0 -19.12856,0.45527 -24.10723,0.91056 -4.97867,0.54632 -10.04468,1.09265 -11.09281,1.1837 -1.74691,0.18212 -2.35831,-0.54632 -3.75584,-4.18853 -0.96079,-2.4585 -3.4938,-6.73809 -5.59008,-9.46975 -2.18362,-2.73166 -3.93052,-5.37226 -3.93052,-5.82753 0,-0.45529 -0.43673,-0.8195 -0.87345,-0.8195 -0.52407,0 -1.83424,-0.8195 -2.88239,-1.82111 -1.04814,-1.09267 -2.88238,-2.45849 -4.10522,-3.09588 -1.22284,-0.63739 -4.19256,-2.27638 -6.55088,-3.64221 -2.44566,-1.36583 -8.12308,-3.55116 -12.66502,-4.73487 -10.74344,-3.00483 -26.46554,-3.36905 -34.50128,-0.91055 -5.50273,1.73004 -16.6829,7.1023 -22.7097,11.01768 -3.40645,2.09427 -6.0268,3.55115 -12.83971,6.64704 -3.40647,1.63899 -4.19257,3.18693 -4.19257,8.55919 0,4.46171 2.35832,6.19176 8.47247,6.19176 2.53301,0 5.41539,0.36422 6.55088,0.81949 1.13548,0.45529 6.0268,2.09428 10.83078,3.73328 4.89132,1.54794 9.60794,3.36905 10.48139,4.09749 0.9608,0.72844 2.27097,1.36582 3.05708,1.36582 0.78611,0 4.62929,1.639 8.47246,3.64221 3.84318,2.00323 7.42433,3.64222 7.9484,3.64222 1.83424,0 0.17469,1.639 -2.27097,2.27639 -1.39752,0.27315 -8.12308,3.55114 -15.11069,7.1023 l -12.66502,6.46492 -8.38512,0.18212 c -9.17122,0.27317 -19.21591,2.54954 -27.51367,6.28281 -7.24963,3.27799 -10.83078,5.28121 -10.83078,6.10071 0,0.45527 -0.52408,0.72844 -1.22284,0.72844 -0.61141,0 -2.18362,1.0016 -3.4938,2.27638 -1.31016,1.27478 -2.96973,2.27638 -3.66849,2.27638 -0.61141,0 -1.22283,0.45527 -1.22283,0.91055 0,0.54633 -0.52406,0.91055 -1.22282,0.91055 -0.69876,0 -1.39753,0.63739 -1.74691,1.36583 -0.26203,0.72845 -1.04814,1.36583 -1.65956,1.36583 -0.69875,0 -2.88237,1.639 -4.97865,3.64221 -2.09628,2.00322 -4.27991,3.64221 -4.80399,3.64221 -0.52406,0 -2.27096,1.639 -3.84316,3.64221 -1.48488,2.00322 -3.31911,3.64221 -4.01788,3.64221 -0.69877,0 -1.31018,0.54633 -1.31018,1.18373 0,0.63738 -1.22282,2.36743 -2.70769,3.91538 -7.51167,7.37547 -8.55981,14.29567 -2.96973,19.30371 4.54194,4.18854 10.83077,5.00803 27.07695,3.36904 z m -10.56874,-16.11678 c 2.62035,-3.91538 17.99307,-16.20784 20.1767,-16.20784 0.61141,0 2.96972,-1.54793 5.32803,-3.4601 4.71664,-3.91537 12.49035,-8.10392 17.55635,-9.46974 8.55982,-2.27639 9.95733,-1.91217 7.77371,2.36743 -2.09628,4.27959 -11.96627,16.11678 -14.06255,16.93628 -1.22283,0.45528 -2.18362,1.27478 -2.18362,1.73005 0,1.27478 -10.13202,6.00966 -15.7221,7.28442 -5.32805,1.27478 -15.11068,2.54955 -18.08042,2.4585 -1.57221,0 -1.65955,-0.27317 -0.7861,-1.639 z m 321.42961,-1.73005 c -0.26203,-0.54633 0.61141,-2.27638 2.00893,-3.82432 2.62035,-3.00482 6.72556,-8.46814 8.99654,-12.0193 5.15335,-8.10392 14.49927,-16.02573 21.05014,-17.84682 5.59009,-1.54795 12.49034,-1.91217 20.00201,-1.09267 5.85211,0.63738 6.55088,0.91055 6.28885,2.54954 -0.52408,3.18694 -6.63823,13.56725 -8.64717,14.56885 -1.04814,0.54632 -3.14442,2.27639 -4.71662,3.91538 -1.57222,1.639 -3.4938,2.91376 -4.27991,2.91376 -0.69877,0 -2.79504,0.8195 -4.62929,1.82111 -10.83077,6.1007 -34.32658,11.92825 -36.07348,9.01447 z M 385.12916,364.53528 c 0,-0.72844 0.34938,-2.09427 0.78611,-3.00482 2.09627,-4.09748 4.45458,-10.38031 4.45458,-11.83718 0,-0.91056 0.34939,-2.00322 0.69877,-2.4585 0.43672,-0.54632 1.65956,-3.18693 2.7077,-6.00965 1.83423,-4.91698 5.67743,-9.92501 6.72557,-8.83236 0.52406,0.63739 -1.65957,12.38352 -3.23178,17.11839 -1.83424,5.2812 -6.9876,13.84041 -8.73449,14.29568 -0.9608,0.27317 -1.65956,0.81951 -1.65956,1.27478 0,0.45527 -0.43674,0.81949 -0.87345,0.81949 -0.52407,0 -0.87345,-0.63738 -0.87345,-1.36583 z m 89.96536,-6.73808 c 0,-1.27477 5.59008,-9.92504 11.09282,-17.20946 5.41539,-7.10231 14.84864,-15.29728 18.51713,-16.29889 1.22284,-0.27316 2.79504,-0.91055 3.40646,-1.45687 0.61141,-0.45529 4.01787,-1.09268 7.59902,-1.36585 8.29777,-0.54632 8.64715,0.18212 4.2799,9.10554 -3.4938,7.19336 -13.1891,18.02894 -16.07148,18.02894 -0.87346,0 -1.92159,0.45528 -2.18364,0.91055 -0.96078,1.63899 -8.38511,4.91698 -15.72209,6.9202 -7.7737,2.18533 -10.91812,2.54955 -10.91812,1.36584 z m 144.64332,-52.90311 c -0.52407,-0.54634 -1.39752,-0.91058 -2.00893,-0.91058 -0.61141,0 -1.13549,-0.45527 -1.13549,-0.91055 0,-0.54632 -1.04814,-1.45687 -2.44566,-2.00321 -1.31018,-0.63738 -4.10522,-2.45849 -6.11415,-4.18853 -2.09628,-1.73006 -6.0268,-4.37067 -8.64715,-5.73649 -2.7077,-1.45689 -6.63822,-4.46171 -8.73451,-6.7381 -2.18362,-2.27637 -4.36724,-4.09748 -4.89131,-4.09748 -1.31018,-0.091 -6.46353,-7.37548 -6.90027,-9.65186 -0.87344,-5.19015 18.08042,2.18533 30.92014,12.0193 12.49034,9.56079 27.25163,26.6792 25.50475,29.59297 -0.43674,0.72845 -13.97521,-5.73648 -15.54742,-7.37547 z m -245.00273,-2.82273 c -3.66849,-1.09266 -9.95734,-3.4601 -14.06255,-5.37226 -4.10521,-1.91216 -10.21937,-4.64382 -13.53848,-5.91859 -6.28883,-2.4585 -11.00547,-5.9186 -8.12308,-5.9186 0.69876,0 1.83425,-0.54633 2.35832,-1.27477 1.83424,-2.27638 11.52954,-4.46171 19.73997,-4.46171 8.12308,-0.0911 18.42979,2.36743 24.89332,5.73648 1.65955,0.8195 4.4546,2.27639 6.11414,3.18693 2.7077,1.4569 12.22832,10.65347 12.22832,11.74613 0,0.72846 -3.75583,2.64062 -6.55089,3.36905 -5.50274,1.36585 -16.42085,0.81949 -23.05907,-1.09266 z m 132.93908,-9.19658 c -1.31017,-0.54633 -2.70769,-0.91056 -3.1444,-0.91056 -0.96081,0.27316 -8.73451,-1.8211 -9.78264,-2.54953 -0.52407,-0.27317 -2.88239,-1.36585 -5.24071,-2.27639 -2.44566,-0.91055 -5.76476,-2.4585 -7.42432,-3.46011 -1.65955,-1.0016 -5.32805,-3.09587 -8.12308,-4.55276 -2.88239,-1.54795 -5.32805,-3.27799 -5.59009,-4.00643 -0.26203,-0.63738 -0.87345,-1.18373 -1.48486,-1.18373 -1.48487,-0.0911 -6.90025,-6.10068 -6.02681,-6.64702 1.39753,-0.91056 17.99307,-0.72845 22.79706,0.27317 2.533,0.54632 6.37617,1.82109 8.64714,2.8227 5.85212,2.64061 20.00201,12.65669 26.02882,18.48422 l 5.2407,5.00804 -6.72558,0.0911 c -3.66848,0 -7.7737,-0.45529 -9.17123,-1.09268 z"
     id="path1009"
     style="fill:#000000;stroke:none;stroke-width:0.0891808" />
  <text
     xml:space="preserve"
     style="font-size:72px;line-height:1.25;font-family:sans-serif;stroke-width:0.75"
     x="431.69354"
     y="514.13409"
     id="text1020"><tspan
       sodipodi:role="line"
       id="tspan1018"
       x="431.69354"
       y="514.13409"
       style="stroke-width:0.75"></tspan></text>
</svg>
