<?xml version="1.0" encoding="UTF-8" standalone="no"?>
<svg
   xmlns:dc="http://purl.org/dc/elements/1.1/"
   xmlns:cc="http://creativecommons.org/ns#"
   xmlns:rdf="http://www.w3.org/1999/02/22-rdf-syntax-ns#"
   xmlns:svg="http://www.w3.org/2000/svg"
   xmlns="http://www.w3.org/2000/svg"
   xmlns:sodipodi="http://sodipodi.sourceforge.net/DTD/sodipodi-0.dtd"
   xmlns:inkscape="http://www.inkscape.org/namespaces/inkscape"
   version="1.0"
   width="960.25pt"
   height="514.27228pt"
   viewBox="0 0 960.25 514.27228"
   preserveAspectRatio="xMidYMid meet"
   id="svg46"
   sodipodi:docname="logo.svg"
   inkscape:version="1.0.1 (1.0.1+r74)">
  <defs
     id="defs50" />
  <sodipodi:namedview
     pagecolor="#ffffff"
     bordercolor="#666666"
     borderopacity="1"
     objecttolerance="10"
     gridtolerance="10"
     guidetolerance="10"
     inkscape:pageopacity="0"
     inkscape:pageshadow="2"
     inkscape:window-width="1366"
     inkscape:window-height="704"
     id="namedview48"
     showgrid="false"
     inkscape:zoom="0.44937841"
     inkscape:cx="763.51889"
     inkscape:cy="314.35639"
     inkscape:window-x="0"
     inkscape:window-y="27"
     inkscape:window-maximized="1"
     inkscape:current-layer="svg46"
     inkscape:snap-bbox="true"
     inkscape:snap-bbox-midpoints="false"
     fit-margin-top="2"
     fit-margin-bottom="2"
     fit-margin-left="2"
     fit-margin-right="2"
     units="px"
     inkscape:document-rotation="0" />
  <metadata
     id="metadata2">
Created by potrace 1.16, written by Peter Selinger 2001-2019
<rdf:RDF>
  <cc:Work
     rdf:about="">
    <dc:format>image/svg+xml</dc:format>
    <dc:type
       rdf:resource="http://purl.org/dc/dcmitype/StillImage" />
    <dc:title />
  </cc:Work>
</rdf:RDF>
</metadata>
  <g
     transform="matrix(0.1,0,0,-0.1,-9.4007847,724.98509)"
     fill="#000000"
     stroke="none"
     id="g44" />
  <g
     id="g71">
    <path
       d="m 3488.652,5097.9529 c -11.8764,-18.707 20.1897,-36.2448 65.3197,-37.4139 h 43.9424 l 1.1877,-119.257 c 1.1876,-66.6437 0,-120.4264 -1.1877,-120.4264 -1.1876,0 -26.1279,10.5228 -55.8188,23.3838 -43.9424,18.7069 -64.1321,21.0454 -117.5756,12.861 -35.6289,-5.8459 -64.1322,-9.3535 -64.1322,-9.3535 0,0 -14.2515,-8.1843 -30.8784,-19.8761 -91.4477,-58.4593 -138.9531,-217.4687 -99.7612,-336.7256 30.8785,-99.3809 78.3838,-140.3025 174.5821,-153.1635 67.695,-9.3535 99.7611,1.1692 156.7675,50.2751 40.3795,35.0755 42.7548,36.2447 43.9424,12.861 1.1876,-14.0302 2.3752,-31.5681 3.563,-38.5832 2.3752,-22.2145 179.3325,-18.707 179.3325,3.5076 0,9.3535 -16.6269,18.707 -41.5672,22.2146 l -40.3795,5.8459 -4.7505,350.7559 c -2.3752,192.9157 -5.9382,351.9251 -8.3134,354.2635 -9.501,9.3534 -198.3347,7.0151 -204.2728,-1.1692 z m 57.0063,-307.4961 c 39.1919,-33.9064 60.5692,-125.1029 52.2558,-209.2843 -9.501,-87.6889 -39.1918,-139.1332 -98.5735,-173.0396 -33.2537,-18.707 -43.9424,-19.8761 -73.6332,-8.1843 -62.9447,25.7221 -89.0725,85.3506 -89.0725,198.7616 0,112.242 23.7526,176.5472 76.0084,204.6077 36.8168,21.0453 102.1365,15.1994 133.015,-12.8611 z"
       id="path6"
       style="stroke-width:1.17838"
       transform="matrix(0.1,0,0,-0.1,-9.400785,724.98509)" />
    <path
       d="m 8550.3435,5101.4604 c -57.0064,-23.3837 -112.8251,-116.9186 -112.8251,-191.7465 0,-43.26 -14.2516,-58.4594 -53.4435,-59.6285 -13.0639,0 -24.9402,-9.3536 -27.3156,-19.8762 -2.3752,-14.0302 5.9382,-19.8762 35.629,-23.3837 l 39.1919,-3.5076 v -192.9158 -192.9157 l -43.9423,-19.8762 c -24.9404,-11.6919 -45.1301,-26.8913 -45.1301,-32.7371 0,-14.0304 -10.6888,-12.8611 160.3304,-15.1995 118.7634,-1.1691 142.5159,1.1691 142.5159,15.1995 0,11.6918 -15.4392,18.7069 -51.0682,21.0452 l -49.8806,3.5076 2.3754,206.946 3.5628,206.946 62.9446,3.5076 c 42.7547,2.3383 61.7568,8.1842 61.7568,19.8761 0,11.692 -19.0021,17.5378 -61.7568,19.8762 l -62.9446,3.5076 1.1877,84.1814 c 0,72.4896 4.7504,88.8581 28.5031,114.5803 38.0043,39.7522 43.5453,29.589 94.0677,-17.6067 40.2033,-37.468 86.0532,10.5832 57.3589,51.5353 -24.4257,20.3763 -29.1003,30.3766 -84.9191,29.2074 -39.1919,0 -83.1343,-4.6768 -96.1983,-10.5227 z"
       id="path8"
       sodipodi:nodetypes="cscccccccscscccccscccccccc"
       style="stroke-width:1.17838"
       transform="matrix(0.1,0,0,-0.1,-9.400785,724.98509)" />
    <path
       d="m 1297.4691,5069.8923 c -51.0682,-54.9517 -28.5031,-123.9336 39.1918,-123.9336 87.885,0 96.1983,118.0878 10.6887,137.964 -21.3773,4.6766 -36.8165,1.1691 -49.8805,-14.0304 z"
       id="path10"
       style="stroke-width:1.17838"
       transform="matrix(0.1,0,0,-0.1,-9.400785,724.98509)" />
    <path
       d="m 266.60371,5052.3546 c 0,-5.846 0,-12.8611 0,-17.5378 -1.18765,-5.8459 19.00212,-11.6919 43.94242,-15.1994 l 45.13004,-5.8459 3.5629,-289.9583 c 1.18764,-185.9007 -1.18763,-298.1425 -9.50106,-312.1728 -8.31343,-15.1994 -24.94029,-23.3836 -47.50532,-23.3836 -32.06608,0 -57.00638,-17.5379 -43.94242,-31.5681 3.5629,-3.5075 59.38165,-7.0151 123.51383,-7.0151 99.76117,-1.1691 116.38803,2.3384 119.95093,18.707 3.56289,15.1994 -4.75054,19.8762 -32.06609,19.8762 -22.56503,0 -40.37952,8.1842 -47.50532,21.0453 -10.6887,19.8762 -19.00213,423.2454 -8.31343,423.2454 4.75053,0 46.31769,-83.0122 160.33044,-321.5262 78.38378,-163.6861 77.19615,-162.5168 98.57354,-167.1937 17.8145,-3.5075 58.19402,73.6588 152.01703,294.6351 27.31555,64.3051 64.13217,144.9791 83.1343,180.0546 l 33.25372,64.3052 -1.18763,-244.3598 c -2.37527,-235.0065 -3.5629,-244.36 -26.12793,-242.0217 -29.69082,2.3384 -67.69508,-17.5377 -62.94455,-33.9064 4.75053,-12.861 279.09379,-16.3685 290.97009,-4.6767 10.6887,10.5227 -9.501,30.3989 -32.0661,30.3989 -54.6311,0 -53.4435,-3.5076 -49.8806,295.8041 1.1876,155.5017 2.3753,294.6349 2.3753,309.8344 0,22.2145 5.9381,25.7221 41.5671,25.7221 29.6908,0 41.5672,4.6767 41.5672,17.5378 0,15.1994 -16.6269,17.5378 -102.1364,15.1994 l -100.94885,-3.5075 -27.31555,-64.3053 c -53.4435,-122.7645 -115.2004,-263.067 -143.70359,-321.5262 -15.43923,-31.5681 -36.81662,-80.6739 -47.50532,-108.7344 l -20.18975,-50.275 -26.12794,50.275 c -14.25159,28.0605 -40.37952,84.1815 -59.38165,126.2722 -39.19188,85.3506 -157.95517,336.7256 -171.01914,360.1093 -9.50107,16.3686 -180.5202,26.8914 -180.5202,11.6919 z"
       id="path12"
       style="stroke-width:1.17838"
       transform="matrix(0.1,0,0,-0.1,-9.400785,724.98509)" />
    <path
       d="m 4641.8435,5055.8622 c -17.8145,-18.707 0,-36.2448 36.8166,-36.2448 h 41.5671 l -2.3752,-312.1728 -3.5629,-313.3419 -41.5671,-5.8459 c -24.9404,-3.5076 -41.5672,-12.8611 -41.5672,-22.2146 0,-12.861 33.2537,-16.3686 172.2068,-15.1995 134.2025,0 172.2068,3.5076 172.2068,16.3686 0,10.5228 -21.3775,17.5379 -64.1322,21.0455 l -65.3198,5.8459 3.5628,140.3023 c 1.1877,77.1663 5.9383,142.6408 8.3135,144.9791 3.5629,3.5075 52.2558,5.846 109.2622,5.846 93.823,1.1692 103.3242,3.5075 103.3242,23.3837 0,19.8762 -9.5012,22.2145 -110.45,19.8762 l -110.4499,-2.3384 3.5629,143.8099 3.563,143.81 47.5052,3.5075 c 68.8827,5.8459 143.7037,-8.1843 172.2069,-30.3988 14.2516,-11.6919 35.6289,-49.1059 47.5052,-84.1814 15.4393,-46.7675 28.5032,-64.3052 43.9425,-64.3052 17.8145,0 21.3774,11.6918 24.9402,81.8429 5.9382,146.1483 32.0662,133.2872 -277.906,136.7948 -147.2666,2.3384 -270.7803,1.1692 -273.1556,-1.1691 z"
       id="path14"
       style="stroke-width:1.17838"
       transform="matrix(0.1,0,0,-0.1,-9.400785,724.98509)" />
    <path
       d="m 5919.7366,4974.0191 c -24.9404,-7.0151 -29.6908,-16.3685 -33.2538,-59.6285 -4.7506,-54.9518 -19.0021,-73.6588 -51.0682,-64.3052 -10.6887,3.5075 -26.1279,-1.1692 -34.4414,-11.6918 -16.6268,-18.707 -7.1257,-24.553 47.5054,-31.5681 l 29.6909,-3.5076 5.9381,-192.9158 c 7.1257,-213.9611 14.2516,-237.3447 77.1961,-264.236 51.0682,-21.0455 81.9467,-21.0455 122.3262,0 40.3795,19.8761 93.823,108.7343 76.0085,126.2721 -14.2517,14.0302 -51.0682,8.1843 -52.2558,-8.1844 -1.1877,-24.5529 -47.5054,-75.997 -67.6951,-75.997 -45.1301,0 -49.8806,25.7221 -46.3177,224.4838 l 3.5628,190.5773 83.1344,5.8459 c 62.9446,4.6768 83.1344,10.5228 83.1344,23.3837 0,14.0303 -16.627,17.5379 -83.1344,17.5379 h -83.1344 l -5.9381,64.3052 c -5.9382,67.8128 -15.4392,75.9971 -71.2579,59.6285 z"
       id="path16"
       style="stroke-width:1.17838"
       transform="matrix(0.1,0,0,-0.1,-9.400785,724.98509)" />
    <path
       d="m 7194.0667,4908.5446 c -20.1898,-8.1842 -42.7548,-25.7221 -49.8806,-38.5831 -11.8763,-22.2146 -21.3774,-23.3837 -99.7612,-17.5378 -72.4455,5.846 -93.8229,2.3384 -135.3901,-17.5377 -111.6375,-56.1211 -143.7037,-195.2542 -64.1323,-278.2664 l 32.0662,-32.7372 -33.2538,-28.0606 c -38.0041,-32.7371 -45.13,-97.0424 -15.4392,-140.3023 14.2516,-18.7069 15.4392,-31.568 5.9382,-47.9366 -21.3774,-39.7523 -14.2516,-100.55 15.4392,-127.4414 61.757,-57.29 159.1428,-73.6587 280.2815,-47.9366 81.9466,17.5378 155.5799,87.6891 155.5799,149.6559 0,33.9064 -8.3135,51.4442 -40.3795,81.843 l -40.3795,38.5832 -149.6419,2.3383 c -149.6417,1.1692 -184.083,10.5228 -169.8315,45.5983 5.9383,15.1994 114.0128,30.3989 231.5884,32.7372 15.4393,1.1692 24.9404,3.5076 22.565,5.8459 -2.3752,3.5076 15.4394,24.553 39.1919,49.1058 70.0703,68.9821 76.0086,178.8857 14.2517,250.206 -19.0022,22.2145 -11.8764,56.1209 10.6886,56.1209 8.3135,0 24.9403,-8.1843 36.8167,-19.8762 20.1897,-17.5377 22.565,-17.5377 45.1301,2.3384 60.5692,53.7827 -9.5011,116.9186 -91.4478,81.843 z m -108.0746,-119.2569 c 11.8763,-10.5228 21.3774,-31.568 21.3774,-46.7675 0,-15.1994 5.9382,-37.4139 14.2516,-49.1057 20.1898,-31.5681 -9.5011,-123.9339 -48.693,-154.3327 -39.1918,-30.3989 -91.4477,-22.2145 -128.2644,19.8762 -22.5649,24.5528 -27.3155,43.2599 -27.3155,111.0726 0,71.3204 3.563,85.3506 29.6908,109.9035 34.4414,35.0756 105.6994,39.7525 138.9531,9.3536 z m 81.9466,-499.2427 c 43.9425,-21.0452 38.0044,-64.3052 -13.0638,-93.5348 -32.0662,-18.7069 -61.757,-24.5529 -127.0768,-24.5529 -72.4456,0 -89.0725,3.5075 -114.0128,28.0604 -28.5032,24.5529 -30.8785,37.414 -21.3773,98.2117 2.3751,14.0302 244.6523,7.0151 275.5307,-8.1844 z"
       id="path18"
       style="stroke-width:1.17838"
       transform="matrix(0.1,0,0,-0.1,-9.400785,724.98509)" />
    <path
       d="m 2852.0807,4859.4388 c -19.0022,-2.3384 -55.8188,-26.8913 -81.9467,-52.6133 -45.1301,-44.4291 -48.6929,-45.5983 -42.7548,-17.5378 9.501,50.2749 -4.7506,59.6285 -93.8231,58.4592 -61.7569,-1.1691 -81.9466,-5.8458 -84.3218,-18.7069 -2.3753,-12.861 8.3134,-19.8762 35.6289,-22.2145 l 39.1919,-3.5076 2.3753,-187.0698 c 2.3752,-102.8884 -1.1877,-194.085 -5.9381,-201.1 -4.7506,-8.1843 -22.5651,-16.3687 -38.0044,-18.7071 -17.8145,-3.5076 -29.6908,-12.861 -29.6908,-24.5528 0,-17.5379 15.4393,-19.8762 130.6396,-21.0455 103.3241,-1.1691 130.6396,2.3385 130.6396,15.1995 0,9.3535 -15.4392,17.5378 -38.0042,19.8761 l -39.1919,3.5076 v 146.1484 c 0,159.0092 9.5011,192.9157 66.5074,237.3447 58.1941,45.5983 135.3902,21.0454 153.2047,-47.9367 3.563,-15.1993 4.7506,-92.3655 3.563,-173.0394 l -3.563,-146.1484 -36.8165,-11.6918 c -72.4457,-23.3838 -41.5673,-35.0756 96.1982,-38.5832 116.388,-2.3383 136.5778,0 136.5778,15.1994 0,11.6919 -11.8764,17.5379 -40.3796,17.5379 h -40.3795 l -4.7505,178.8854 c -3.5629,159.0094 -5.9382,182.3931 -29.6909,218.6379 -14.2515,22.2146 -36.8165,46.7674 -48.6929,54.9517 -28.5031,16.3686 -92.6354,25.7221 -136.5777,18.707 z"
       id="path20"
       style="stroke-width:1.17838"
       transform="matrix(0.1,0,0,-0.1,-9.400785,724.98509)" />
    <path
       d="m 5436.3699,4855.9313 c -110.4499,-22.2146 -180.5202,-91.1965 -206.648,-203.4385 -14.2517,-63.136 -7.126,-105.2267 28.5031,-182.3931 39.1918,-86.5197 153.2047,-146.1482 254.1534,-132.118 148.4541,18.707 233.9637,114.5803 233.9637,260.7285 0,176.5472 -137.7654,289.9583 -309.9722,257.2211 z m 109.2623,-57.2902 c 79.5714,-44.4291 111.6375,-199.9309 65.3198,-320.357 -27.3155,-71.3203 -41.5672,-84.1814 -106.8869,-94.7041 -57.0065,-10.5226 -95.0107,12.861 -128.2645,74.8279 -24.9402,45.5983 -27.3156,65.4745 -23.7526,157.8402 2.3752,87.689 8.3135,111.0727 32.0662,143.8098 43.9422,61.967 98.5734,74.8281 161.518,38.5832 z"
       id="path22"
       style="stroke-width:1.17838"
       transform="matrix(0.1,0,0,-0.1,-9.400785,724.98509)" />
    <path
       d="m 6424.4806,4859.4388 c -140.1407,-12.861 -235.1514,-129.7796 -224.4627,-274.7587 5.9381,-84.1815 21.3774,-122.7646 67.6951,-170.7012 54.6312,-56.121 109.2622,-78.3355 193.5841,-78.3355 96.1984,0 174.5821,45.5982 220.8998,128.6104 59.3816,106.396 38.0043,258.3903 -47.5054,335.5566 -33.2536,30.3988 -122.3261,68.9819 -148.4541,65.4744 -7.1258,-1.1692 -35.629,-3.5075 -61.7568,-5.846 z m 109.2622,-68.982 c 21.3773,-16.3685 39.1919,-39.7523 39.1919,-51.4441 0,-11.6919 5.9382,-25.7222 11.8763,-29.2297 21.3774,-12.861 13.064,-194.085 -10.6887,-246.6983 -46.3176,-99.3809 -128.2644,-115.7495 -204.2729,-40.9216 -43.9424,42.0907 -46.3176,49.1059 -47.5052,119.257 -3.563,175.3781 8.3133,222.1454 71.2579,259.5595 45.13,28.0604 93.8231,24.5529 140.1407,-10.5228 z"
       id="path24"
       style="stroke-width:1.17838"
       transform="matrix(0.1,0,0,-0.1,-9.400785,724.98509)" />
    <path
       d="m 1202.4585,4843.0703 c -22.565,-14.0303 3.5628,-33.9065 43.9424,-33.9065 53.4435,0 55.8187,-11.6919 51.0682,-222.1453 -3.5628,-148.4868 -5.9382,-167.1937 -26.1279,-182.3932 -13.064,-9.3534 -35.629,-16.3685 -51.0682,-16.3685 -26.128,0 -41.5672,-35.0756 -15.4393,-35.0756 7.1258,-1.1692 65.3199,-1.1692 130.6396,-1.1692 65.3199,0 127.0768,0 136.5778,1.1692 10.6887,0 14.2517,7.0151 10.6887,17.5377 -4.7505,10.5227 -22.565,17.5379 -47.5052,17.5379 h -40.3795 l -2.3754,229.1605 -3.5628,227.9913 -86.6973,2.3383 c -48.6929,1.1693 -93.823,-1.1691 -99.7611,-4.6766 z"
       id="path26"
       style="stroke-width:1.17838"
       transform="matrix(0.1,0,0,-0.1,-9.400785,724.98509)" />
    <path
       d="m 1542.1215,4845.4086 c -17.8145,-17.5378 0,-36.2448 35.629,-36.2448 51.0682,0 51.0682,2.3384 42.7547,-227.9913 l -5.9381,-175.378 -39.1919,-11.6918 c -22.565,-5.8459 -36.8166,-17.5378 -35.629,-26.8914 5.9382,-24.5528 288.5949,-26.8912 288.5949,-2.3382 0,11.6918 -15.4393,19.8761 -47.5055,23.3837 l -47.5052,5.8459 -3.563,122.7646 c -2.3752,70.1512 2.3753,143.8098 10.6887,171.8703 23.7528,86.5198 98.5737,141.4716 114.0128,85.3507 7.1258,-28.0605 58.1941,-43.26 85.5096,-26.8913 27.3156,16.3685 30.8785,59.6285 5.9381,86.5197 -30.8784,33.9065 -123.5137,30.3989 -168.6438,-7.0151 -42.7548,-35.0756 -49.8806,-36.2448 -49.8806,-5.846 0,12.8611 -7.1258,23.3838 -14.2515,24.553 -59.3817,3.5076 -166.2687,3.5076 -171.0192,0 z"
       id="path28"
       style="stroke-width:1.17838"
       transform="matrix(0.1,0,0,-0.1,-9.400785,724.98509)" />
    <path
       d="m 2091.9956,4836.0551 c -17.8146,-9.3535 -41.5672,-29.2296 -52.2559,-45.5983 -38.0043,-57.2901 24.9402,-115.7493 72.4457,-67.8127 10.6887,9.3535 19.002,23.3837 19.002,29.2296 0,24.5529 49.8806,57.2901 86.6972,57.2901 51.0682,0 86.6973,-37.4139 97.3859,-101.7192 7.1259,-46.7675 5.9382,-51.4442 -23.7526,-61.9669 -16.6269,-5.8459 -51.0683,-11.6919 -76.0085,-11.6919 -53.4435,0 -138.9531,-26.8912 -178.1449,-57.2901 -35.6291,-26.8913 -52.256,-109.9035 -30.8786,-159.0093 24.9404,-61.9669 66.5076,-79.5047 173.3945,-77.1663 43.9424,1.1692 61.7569,8.1844 98.5735,40.9215 23.7527,22.2146 41.5671,35.0756 39.1919,26.8913 -2.3753,-8.1843 10.6887,-29.2296 30.8784,-47.9366 29.6908,-28.0606 41.5672,-31.5681 77.1962,-25.7221 54.631,8.1843 83.1343,37.414 87.8848,88.8581 2.3754,30.3988 -1.1876,40.9215 -16.6268,44.4292 -14.2516,2.3382 -21.3774,-3.5077 -21.3774,-17.5379 0,-29.2296 -30.8785,-70.1512 -43.9424,-58.4593 -4.7505,5.8459 -11.8764,90.0274 -15.4392,188.2389 -7.1259,199.9309 -16.627,227.9915 -90.2602,258.3904 -54.631,22.2144 -188.8336,21.0452 -233.9636,-2.3385 z m 214.9615,-252.5443 c 8.3134,-9.3534 8.3134,-31.5679 0,-70.1511 -20.1898,-95.8733 -128.2644,-150.8251 -178.1449,-90.0274 -28.5032,35.0756 -27.3156,99.3809 1.1876,127.4413 13.064,12.8611 43.9425,26.8914 68.8827,30.3989 24.9403,4.6767 51.0682,9.3536 57.0064,11.6918 23.7526,8.1844 39.1919,5.8459 51.0682,-9.3535 z"
       id="path30"
       style="stroke-width:1.17838"
       transform="matrix(0.1,0,0,-0.1,-9.400785,724.98509)" />
    <path
       d="m 3930.4513,4830.2092 c -38.0041,-22.2145 -48.6929,-35.0756 -51.0682,-66.6437 -4.7505,-43.2598 10.6887,-59.6284 54.6312,-59.6284 17.8144,0 30.8784,10.5226 39.1919,31.5681 19.0021,50.2749 46.3176,73.6586 87.8847,73.6586 53.4436,0 78.3838,-23.3837 90.2601,-87.689 13.064,-68.982 0,-87.689 -61.7569,-87.689 -144.8911,0 -248.2152,-63.136 -248.2152,-151.9941 0,-94.7041 48.6929,-141.4716 146.0788,-142.6408 62.9445,-1.1692 121.1387,19.8762 149.6419,53.7825 13.0638,15.1995 19.002,14.0304 43.9422,-16.3685 55.8189,-65.4744 146.079,-56.121 178.1451,18.707 20.1897,46.7674 15.4391,74.8278 -13.0641,74.8278 -10.6887,0 -21.3773,-14.0301 -24.9402,-33.9063 -8.3135,-36.2448 -38.0043,-58.4593 -46.3177,-32.7372 -2.3753,7.0151 -5.9381,90.0274 -8.3134,183.5623 -3.5629,134.4563 -8.3134,175.3779 -23.7527,196.4233 -36.8166,51.4442 -68.8827,65.4744 -168.6439,68.9819 -83.1343,3.5076 -102.1364,1.1692 -143.7036,-22.2145 z m 219.7121,-253.7135 c 35.629,-67.8128 -33.2536,-176.5471 -112.825,-176.5471 -47.5054,0 -64.1322,11.6918 -77.1963,57.2901 -20.1897,68.982 9.5011,108.7344 95.0107,127.4414 77.1962,16.3686 80.759,16.3686 95.0106,-8.1844 z"
       id="path32"
       style="stroke-width:1.17838"
       transform="matrix(0.1,0,0,-0.1,-9.400785,724.98509)" />
    <path
       d="m 7336.5827,4840.7318 c -9.5011,-15.1993 10.6887,-29.2296 49.8806,-33.9063 l 35.6289,-3.5076 v -188.2391 c 0,-199.9307 -5.9381,-222.1454 -57.0063,-229.1605 -14.2517,-2.3383 -26.1281,-10.5226 -26.1281,-18.707 0,-11.6918 33.2538,-16.3686 140.1409,-17.5377 77.196,-2.3384 146.0788,1.1691 153.2045,4.6767 21.3775,14.0303 -1.1875,31.568 -49.8806,39.7524 l -47.5052,8.1843 v 144.9791 c 0,147.3174 4.7506,169.5321 52.2558,224.4838 29.6908,33.9063 47.5053,32.7372 71.2579,-3.5076 40.3796,-60.7977 140.1408,-16.3686 110.45,49.1058 -27.3156,59.6286 -173.3945,49.1058 -213.774,-16.3685 -13.064,-19.8762 -32.0661,-8.1844 -32.0661,19.876 0,18.707 -11.8763,22.2147 -90.2601,25.7222 -49.8806,2.3384 -92.6354,-1.1692 -96.1982,-5.846 z"
       id="path34"
       style="stroke-width:1.17838"
       transform="matrix(0.1,0,0,-0.1,-9.400785,724.98509)" />
    <path
       d="m 7911.397,4841.9011 c -52.2558,-14.0303 -83.1343,-52.6134 -77.1961,-99.3809 5.9381,-49.1057 57.0063,-51.4442 91.4477,-5.846 14.2516,19.8762 24.9403,40.9217 24.9403,46.7676 0,25.722 65.3198,33.9063 110.4498,12.861 35.629,-15.1994 55.8188,-56.121 55.8188,-108.7344 0,-45.5982 -13.0639,-53.7826 -92.6353,-53.7826 -57.0065,0 -111.6376,-15.1994 -175.7697,-49.1057 -48.693,-25.7221 -68.8827,-95.8734 -47.5054,-159.0094 33.2538,-93.535 174.5821,-121.5953 266.0298,-53.7825 l 40.3795,31.568 28.5032,-30.3988 c 15.4392,-16.3687 47.5054,-33.9065 71.258,-38.5832 35.629,-5.846 47.5053,-3.5076 71.258,19.8761 32.066,32.7373 45.13,109.9035 17.8144,109.9035 -9.501,0 -22.5649,-17.5378 -27.3154,-38.5831 -5.9382,-22.2145 -16.6269,-37.4139 -24.9404,-33.9064 -9.501,2.3384 -16.6268,57.2902 -20.1897,178.8855 -7.1259,184.7314 -19.0022,226.8221 -76.0085,261.8977 -32.0661,19.8762 -178.145,25.7222 -236.339,9.3536 z m 198.3347,-305.1577 c 0,-73.6587 -32.0661,-115.7494 -99.7612,-129.7796 -47.5053,-10.5228 -53.4435,-9.3536 -79.5714,21.0452 -54.6311,63.1362 -16.6268,139.1332 79.5714,157.8402 93.8231,18.707 100.9488,15.1995 99.7612,-49.1058 z"
       id="path36"
       style="stroke-width:1.17838"
       transform="matrix(0.1,0,0,-0.1,-9.400785,724.98509)" />
    <path
       d="m 8785.4948,4846.5778 c -64.1321,-2.3384 -86.6972,-7.0152 -86.6972,-19.8762 0,-10.5226 16.6268,-17.5378 45.1301,-19.8761 l 43.9424,-3.5076 3.563,-185.9006 c 2.3752,-160.1786 0,-188.239 -16.6269,-206.946 -11.8764,-12.8611 -33.2537,-22.2145 -48.693,-22.2145 -15.4393,0 -27.3156,-7.0152 -27.3156,-16.3686 0,-14.0303 27.3156,-17.5379 140.1407,-21.0455 76.0085,-2.3382 143.7036,-1.1691 148.4542,0 20.1897,9.3536 -20.1898,37.4141 -52.2559,37.4141 h -34.4414 l -2.3753,230.3296 c -2.3751,141.4715 -8.3134,230.3298 -15.4391,231.499 -5.9381,0 -51.0682,-1.1692 -97.386,-3.5076 z"
       id="path38"
       style="stroke-width:1.17838"
       transform="matrix(0.1,0,0,-0.1,-9.400785,724.98509)" />
    <path
       d="m 9160.7869,4837.2243 c -60.5694,-17.5377 -98.5736,-60.7977 -85.5096,-94.7041 20.1898,-52.6133 65.3198,-50.275 99.7611,5.8459 15.4394,23.3838 33.2538,46.7675 39.1919,51.4443 26.128,18.7069 89.0724,9.3534 112.8252,-15.1995 24.9403,-26.8912 45.1301,-116.9186 30.8784,-137.964 -3.563,-7.0151 -43.9425,-12.8611 -89.0725,-12.8611 -45.1301,0 -85.5096,-4.6766 -89.0724,-11.6919 -3.5629,-5.8458 -17.8145,-11.6918 -32.0661,-11.6918 -13.064,0 -41.5671,-17.5378 -64.1322,-39.7523 -33.2537,-32.7373 -40.3795,-49.1058 -40.3795,-87.689 0,-66.6436 26.1279,-111.0726 78.3838,-135.6256 38.0042,-17.5377 52.2558,-18.707 112.825,-5.8459 38.0043,8.1843 80.7592,24.5529 93.8231,37.414 l 26.1278,23.3837 34.4414,-32.7373 c 66.5075,-61.9668 176.9574,-23.3836 176.9574,61.9669 0,30.3989 -4.7505,38.5831 -22.565,38.5831 -16.6269,0 -24.9404,-11.6918 -29.6909,-40.9214 -4.7505,-22.2145 -13.0639,-40.9215 -17.8145,-40.9215 -19.0021,0 -24.9402,51.4441 -24.9402,203.4383 0,168.3628 -11.8764,203.4385 -85.5096,244.36 -42.7548,24.5529 -147.2665,24.5529 -224.4626,1.1692 z m 195.9594,-278.2663 c 5.9382,-29.2296 1.1876,-52.6134 -15.4392,-83.0123 -29.6908,-54.9517 -57.0065,-74.8279 -103.3241,-75.9971 -48.693,0 -71.258,21.0454 -79.5714,73.6587 -9.5011,58.4594 26.1279,98.2117 98.5735,112.2419 89.0725,17.5378 91.4477,16.3687 99.7612,-26.8912 z"
       id="path40"
       style="stroke-width:1.17838"
       transform="matrix(0.1,0,0,-0.1,-9.400785,724.98509)" />
    <ellipse
       style="opacity:0.995;fill:#000000;fill-opacity:1;stroke:#000000;stroke-width:0.901456;stroke-linecap:round;stroke-miterlimit:4;stroke-dasharray:none;stroke-opacity:1"
       id="path879"
       cx="874.73022"
       cy="223.71783"
       rx="6.9113503"
       ry="6.7993956" />
  </g>
  <path
     d="m 676.80188,364.08163 c -6.0384,0.61098 -12.5871,1.5711 -14.45816,2.09478 -1.87105,0.61099 -4.67763,1.39654 -6.2085,1.83295 -1.61591,0.34914 -3.48697,1.30924 -4.25239,1.92023 -0.76543,0.69827 -3.31688,2.35664 -5.69822,3.75316 -6.46364,3.75317 -16.41426,14.9254 -19.98627,22.43174 -0.93553,2.0948 -2.29629,4.71329 -2.97669,5.93525 -0.68037,1.22196 -1.27571,2.96762 -1.27571,4.01501 0,2.00752 -2.4664,4.7133 -4.16736,4.7133 -0.59534,0 -4.67763,1.74565 -9.18517,3.92773 -4.4225,2.18207 -9.10015,4.18958 -10.29081,4.45144 -1.27571,0.34913 -3.06173,1.04739 -3.99726,1.57109 -1.87107,1.13468 -12.92729,5.5861 -19.39094,7.6809 -2.21125,0.78556 -4.2524,1.04739 -4.50754,0.61098 -0.17009,-0.43642 0.42523,-2.44392 1.44581,-4.45143 1.02058,-2.0948 2.97669,-7.06993 4.2524,-11.08496 1.36078,-4.015 2.72154,-7.68089 3.14678,-8.29187 0.42524,-0.5237 1.19067,-2.70578 1.786,-4.88785 0.59534,-2.18208 1.95612,-5.41155 3.14678,-7.1572 1.10562,-1.83295 2.04116,-3.57861 2.04116,-4.01503 0,-0.34913 1.9561,-2.53119 4.25239,-4.80057 6.7188,-6.54622 7.73936,-11.17222 3.23182,-15.01268 -2.46638,-2.09479 -3.23182,-2.35664 -7.14403,-1.83293 -3.82716,0.43642 -11.39643,2.96761 -14.79834,4.88784 -0.68039,0.43642 -3.57203,1.92022 -6.3786,3.40404 -5.44308,2.88034 -14.28806,10.47397 -16.15912,14.05257 -1.36078,2.61848 -5.44308,11.08494 -6.46365,13.52885 -2.21125,5.237 -3.48697,15.09997 -2.97668,22.78089 l 0.51029,7.94274 -4.08232,2.70578 c -3.572,2.35663 -5.52811,2.88035 -17.60492,4.626 -15.81893,2.18209 -54.85595,3.66588 -54.85595,2.00751 0,-1.13469 2.80658,-3.84045 3.99725,-3.84045 0.51029,0 1.10564,-0.61098 1.44582,-1.30925 0.25515,-0.69827 1.44581,-1.74565 2.63649,-2.35664 1.19067,-0.5237 2.1262,-1.48382 2.1262,-2.18208 0,-0.61097 0.51028,-1.13468 1.10562,-1.13468 0.68038,0 1.61591,-0.96012 2.12621,-2.09479 0.51028,-1.22195 2.21124,-3.66588 3.82716,-5.49883 1.53085,-1.83295 3.99725,-5.32427 5.5281,-7.76819 1.44582,-2.44391 4.25241,-6.10981 6.12347,-8.2046 1.87105,-2.09479 3.40191,-4.01502 3.40191,-4.36415 0,-0.87282 6.3786,-6.98264 7.31413,-6.98264 0.93553,0 2.89163,-4.97514 2.89163,-7.41906 0,-3.0549 -3.65705,-7.41905 -7.05898,-8.37916 -1.70096,-0.43643 -3.48697,-0.69827 -3.82717,-0.43643 -0.34018,0.17457 -4.59258,0.5237 -9.52537,0.61099 -4.93277,0.17457 -9.69547,0.69826 -10.63098,1.30924 -0.93555,0.52371 -3.57203,1.30925 -5.86832,1.65839 -4.16735,0.61097 -17.26474,5.23697 -18.71055,6.6335 -0.51029,0.43641 -1.36078,0.78554 -2.04116,0.78554 -1.53087,0 -10.80109,7.33178 -14.203,11.25951 -4.67766,5.41155 -9.52538,13.61615 -12.67216,21.47163 -0.85048,1.92022 -1.78601,4.10231 -2.21125,4.88785 -0.34019,0.78554 -1.02056,3.22947 -1.27572,5.49882 l -0.68038,4.1896 -6.03841,-0.611 c -8.75994,-0.78554 -18.28532,-2.09478 -22.19752,-3.05488 -1.87106,-0.43644 -5.10287,-1.04741 -7.22908,-1.22198 -2.12619,-0.26184 -6.29354,-1.04739 -9.35528,-1.83293 -17.77502,-4.53873 -21.262,-5.67341 -21.262,-6.80809 0,-1.04739 0.59534,-1.48382 6.46366,-4.45142 2.89163,-1.48382 7.90945,-6.72081 16.92454,-17.63117 1.44582,-1.74567 3.23182,-3.92775 4.08231,-4.80058 0.76544,-0.87282 1.44581,-2.0075 1.44581,-2.44391 0,-0.43642 0.93553,-1.5711 2.04115,-2.44393 1.10563,-0.87283 3.99725,-5.1497 6.3786,-9.42656 4.84774,-8.64103 4.93279,-10.03755 1.27572,-15.01269 -2.21124,-2.96763 -2.55144,-3.14219 -9.95062,-4.626 -7.14403,-1.48382 -21.26199,0.52371 -32.48832,4.45143 -1.36077,0.5237 -3.65706,1.22197 -5.10288,1.65838 -1.36077,0.34915 -4.08231,1.48382 -5.95336,2.53121 -1.78601,1.0474 -3.99725,1.83294 -4.76268,1.83294 -0.76545,0 -1.87106,0.61098 -2.46639,1.30925 -0.59535,0.69826 -1.53087,1.30924 -2.12622,1.30924 -1.53084,0 -11.48147,7.94276 -14.7133,11.69593 -1.53086,1.83294 -3.57201,5.06241 -4.50754,7.33176 -1.02057,2.26937 -2.21125,5.06243 -2.72154,6.2844 -0.51029,1.22195 -1.44581,2.88033 -2.12619,3.66588 -1.44581,1.74566 -1.19068,1.83294 -23.30314,-9.252 -8.3347,-4.1023 -15.47873,-7.50634 -15.98902,-7.50634 -0.5103,0 -2.2963,-0.87283 -4.0823,-2.00752 -5.95336,-3.84045 -9.86557,-5.23696 -14.62827,-5.32426 -4.50755,-0.0873 -4.67765,0 -4.93279,2.26936 -0.1701,1.65838 0.42524,3.0549 1.78601,4.53872 1.10563,1.13468 2.29631,2.70578 2.55146,3.49132 0.34018,0.78555 1.53087,1.83294 2.72153,2.26935 1.19068,0.43642 2.38135,1.39654 2.63649,2.18208 0.25514,0.69827 2.55144,2.26937 5.10288,3.57861 2.55144,1.22195 4.59259,2.61849 4.59259,3.05491 0,0.43641 0.42524,0.78554 0.93553,0.78554 0.51027,0 7.56927,3.40404 15.73386,7.50633 8.16461,4.10231 18.37036,8.99016 22.70781,10.8231 7.14402,2.96763 7.90947,3.49132 8.84499,6.37166 0.68038,2.00751 0.76544,4.626 0.34019,7.50635 -0.34019,2.44392 -0.42523,4.71328 -0.085,5.06241 0.25514,0.34914 1.02056,2.26935 1.6159,4.18958 0.68039,1.92023 2.63649,5.32427 4.4225,7.50635 1.87106,2.26936 3.31686,4.27687 3.31686,4.45143 0,0.17458 3.06173,3.6659 6.80385,7.68091 3.74212,4.1023 6.80384,7.85547 6.80384,8.46645 0,0.52371 0.34019,1.13469 0.76544,1.30925 0.42523,0.0873 2.04115,1.30924 3.65706,2.61849 3.65707,3.14219 9.10014,6.80807 9.95062,6.80807 0.34018,0 1.36076,0.78556 2.21123,1.74567 0.85049,0.96011 2.04117,1.74565 2.63651,1.74565 0.59532,0 1.19065,0.26185 1.36075,0.61099 0.25514,0.69827 9.18519,5.49883 10.20577,5.49883 0.34018,0 1.4458,0.34913 2.55143,0.78554 2.4664,0.96011 1.95611,0.78556 7.90946,2.26937 11.1413,2.70577 19.1358,0.61098 20.75172,-5.49884 1.10561,-3.92773 1.19067,-11.25951 0.17009,-11.87049 -0.3402,-0.26185 -0.93554,-1.65837 -1.27572,-3.14219 -1.36077,-7.33177 -16.07407,-21.5589 -32.06309,-31.24731 -1.786,-1.1347 -3.31687,-2.44393 -3.31687,-2.88036 0,-0.52369 -0.42524,-0.61097 -1.02058,-0.26183 -0.51029,0.34913 -0.68038,0.26183 -0.42524,-0.34914 0.3402,-0.43642 1.44582,-0.69828 2.55144,-0.43642 2.63649,0.61098 14.62825,3.5786 20.15637,5.06242 8.5048,2.18206 16.49931,3.84046 21.94238,4.36415 2.97669,0.34913 8.07955,1.0474 11.39643,1.65838 l 6.03841,1.0474 1.02058,3.92773 c 0.51029,2.18209 2.04114,5.84797 3.40192,8.2046 2.46637,4.36415 8.3347,10.91038 9.78051,10.91038 0.5103,0 1.27573,0.78555 1.87106,1.74567 0.59534,0.96011 1.6159,1.74565 2.21123,1.74565 0.59534,0 1.27573,0.61098 1.53088,1.30925 0.34018,0.69827 1.10562,1.30925 1.70095,1.30925 0.68038,0 1.44583,0.61098 1.70097,1.30924 0.34019,0.69827 1.02058,1.30924 1.70096,1.30924 0.59534,0 1.44582,0.52371 1.78601,1.22197 0.76543,1.30924 8.58984,5.76067 10.1207,5.76067 0.51028,0 1.44582,0.61099 2.04116,1.30925 1.27572,1.57109 13.01234,5.23698 19.98627,6.28439 7.14403,1.13467 34.10424,-0.26185 37.50616,-1.92024 2.4664,-1.22196 4.59259,-4.36415 4.59259,-6.98264 0,-2.0075 -7.56927,-12.48147 -12.67214,-17.54389 -5.61318,-5.58611 -19.05076,-15.18724 -21.262,-15.18724 -0.59534,0 -0.76544,-0.34913 -0.5103,-0.87283 0.34021,-0.5237 6.37861,-0.87282 15.30864,-0.87282 8.07956,0 18.62551,-0.43641 23.47324,-0.87285 4.84775,-0.52369 9.78052,-1.04738 10.8011,-1.13466 1.70097,-0.17458 2.29629,0.52369 3.65707,4.01501 0.93552,2.35664 3.40192,6.45894 5.44307,9.07743 2.1262,2.61849 3.82715,5.1497 3.82715,5.58611 0,0.43643 0.42525,0.78556 0.85048,0.78556 0.51028,0 1.78601,0.78554 2.80658,1.74565 1.02059,1.0474 2.80659,2.35665 3.99725,2.96763 1.19069,0.61098 4.08233,2.18207 6.37862,3.49132 2.38135,1.30924 7.90945,3.40404 12.33195,4.53871 10.46092,2.88034 25.76955,3.22948 33.59397,0.87283 5.358,-1.65837 16.24416,-6.80807 22.11247,-10.56124 3.31687,-2.00751 5.86831,-3.40403 12.50204,-6.37166 3.31689,-1.5711 4.08232,-3.05491 4.08232,-8.20461 0,-4.27687 -2.29631,-5.93523 -8.24967,-5.93523 -2.46638,0 -5.27296,-0.34913 -6.37859,-0.78555 -1.10563,-0.43643 -5.86831,-2.00752 -10.54595,-3.57862 -4.76269,-1.48381 -9.35527,-3.22947 -10.20577,-3.92774 -0.93551,-0.69826 -2.21123,-1.30924 -2.97666,-1.30924 -0.76545,0 -4.50756,-1.57108 -8.24965,-3.49132 -3.74211,-1.92024 -7.22909,-3.49132 -7.73939,-3.49132 -1.78599,0 -0.17009,-1.57109 2.21127,-2.18209 1.36075,-0.26183 7.90945,-3.40402 14.71329,-6.80805 l 12.33195,-6.1971 8.16461,-0.17458 c 8.93003,-0.26184 18.71057,-2.44392 26.79012,-6.02252 7.05898,-3.14219 10.54595,-5.06241 10.54595,-5.84797 0,-0.43641 0.51029,-0.69826 1.19067,-0.69826 0.59534,0 2.1262,-0.96011 3.40191,-2.18207 1.27572,-1.22198 2.89164,-2.18208 3.57202,-2.18208 0.59535,0 1.19068,-0.43641 1.19068,-0.87283 0,-0.52369 0.51027,-0.87282 1.19066,-0.87282 0.68039,0 1.36078,-0.61099 1.70096,-1.30925 0.25514,-0.69828 1.02058,-1.30925 1.61592,-1.30925 0.68039,0 2.80658,-1.5711 4.84773,-3.49132 2.04116,-1.92023 4.16736,-3.49132 4.67765,-3.49132 0.51028,0 2.21124,-1.5711 3.7421,-3.49132 1.44582,-1.92023 3.23182,-3.49132 3.91222,-3.49132 0.68038,0 1.27572,-0.5237 1.27572,-1.13468 0,-0.61099 1.19065,-2.26936 2.63648,-3.75317 7.31412,-7.06992 8.33471,-13.70344 2.89163,-18.50401 -4.4225,-4.01501 -10.54595,-4.80055 -26.36488,-3.22946 z m 10.29081,15.44909 c -2.55144,3.75317 -17.51988,15.53638 -19.64609,15.53638 -0.59533,0 -2.89162,1.48381 -5.18793,3.31675 -4.59258,3.75317 -12.16185,7.76819 -17.09465,9.07744 -8.33469,2.18207 -9.69545,1.83294 -7.56925,-2.26936 2.04115,-4.1023 11.65158,-15.44909 13.69273,-16.23465 1.19066,-0.43641 2.12619,-1.22196 2.12619,-1.65837 0,-1.22196 9.86557,-5.76069 15.30864,-6.98264 5.18792,-1.22196 14.71329,-2.44393 17.60494,-2.35665 1.53084,0 1.6159,0.26185 0.76542,1.5711 z m -312.97658,1.65838 c 0.25514,0.52369 -0.59534,2.18207 -1.9561,3.66588 -2.55145,2.88034 -6.5487,8.11733 -8.75994,11.52136 -5.01784,7.7682 -14.11797,15.36182 -20.49656,17.10746 -5.44308,1.48382 -12.16187,1.83296 -19.476,1.04742 -5.69822,-0.61099 -6.3786,-0.87284 -6.12346,-2.44393 0.51029,-3.05491 6.46366,-13.00519 8.41977,-13.96529 1.02057,-0.52369 3.06171,-2.18208 4.59258,-3.75317 1.53087,-1.57109 3.40192,-2.79305 4.16735,-2.79305 0.68039,0 2.72154,-0.78555 4.50755,-1.74566 10.54594,-5.84797 33.42385,-11.43409 35.12481,-8.64102 z m 194.2496,11.69593 c 0,0.69826 -0.34019,2.0075 -0.76545,2.88033 -2.04115,3.92773 -4.33743,9.95027 -4.33743,11.34679 0,0.87283 -0.3402,1.92023 -0.68038,2.35665 -0.42524,0.52368 -1.61592,3.0549 -2.6365,5.76068 -1.786,4.71328 -5.52812,9.51383 -6.5487,8.46645 -0.51028,-0.61098 1.61592,-11.87049 3.14679,-16.4092 1.78601,-5.06242 6.80383,-13.26704 8.50479,-13.70344 0.93554,-0.26185 1.61592,-0.78555 1.61592,-1.22197 0,-0.43641 0.42524,-0.78554 0.85047,-0.78554 0.5103,0 0.85049,0.61097 0.85049,1.30925 z m -87.59943,6.45893 c 0,1.22197 -5.44307,9.51386 -10.8011,16.4965 -5.27297,6.80808 -14.45815,14.66354 -18.03017,15.62366 -1.19067,0.26184 -2.72154,0.87284 -3.31687,1.39652 -0.59533,0.43642 -3.9122,1.04741 -7.39918,1.30926 -8.07955,0.52369 -8.41974,-0.17458 -4.16734,-8.72831 3.40192,-6.89535 12.84225,-17.28204 15.64882,-17.28204 0.8505,0 1.87105,-0.43641 2.1262,-0.87282 0.93553,-1.5711 8.1646,-4.71329 15.30864,-6.63351 7.56927,-2.0948 10.631,-2.44393 10.631,-1.30926 z m -140.83946,50.71143 c 0.51028,0.52372 1.36077,0.87286 1.9561,0.87286 0.59533,0 1.10563,0.43641 1.10563,0.87282 0,0.52369 1.02058,1.39652 2.38134,1.92023 1.27572,0.61098 3.99725,2.35663 5.95336,4.01501 2.04115,1.65838 5.86831,4.18959 8.41975,5.49883 2.63648,1.39654 6.46364,4.27687 8.50481,6.45895 2.12619,2.18208 4.25239,3.92773 4.76267,3.92773 1.27573,0.0872 6.29355,7.06993 6.71881,9.25201 0.85047,4.97513 -17.60495,-2.0948 -30.10701,-11.52137 -12.16185,-9.1647 -26.53496,-25.57393 -24.83401,-28.36699 0.42525,-0.69827 13.60769,5.49883 15.13855,7.06992 z m 238.5596,2.70579 c 3.57201,1.0474 9.69547,3.31675 13.69272,5.14971 3.99726,1.83293 9.95061,4.45142 13.18244,5.67338 6.12345,2.35665 10.71605,5.6734 7.90945,5.6734 -0.68037,0 -1.786,0.5237 -2.29629,1.22196 -1.786,2.18208 -11.22633,4.27687 -19.22084,4.27687 -7.90946,0.0873 -17.94512,-2.26935 -24.23868,-5.49883 -1.6159,-0.78554 -4.33745,-2.18208 -5.95336,-3.0549 -2.63648,-1.39653 -11.90672,-10.21211 -11.90672,-11.25951 0,-0.69827 3.65706,-2.53122 6.3786,-3.22947 5.35804,-1.30926 15.98903,-0.78554 22.45268,1.04739 z m -129.44304,8.81559 c 1.27572,0.52369 2.63649,0.87283 3.06173,0.87283 0.93553,-0.26184 8.50479,1.74566 9.52537,2.44392 0.51029,0.26185 2.80659,1.30925 5.10288,2.18207 2.38135,0.87283 5.61317,2.35665 7.22908,3.31677 1.61591,0.9601 5.18793,2.96761 7.90946,4.36414 2.80658,1.48382 5.18793,3.14219 5.44308,3.84045 0.25514,0.61099 0.85047,1.13469 1.44581,1.13469 1.44581,0.0873 6.71879,5.84794 5.86831,6.37166 -1.36077,0.87283 -17.51988,0.69826 -22.19753,-0.26186 -2.46639,-0.52369 -6.20849,-1.74565 -8.41975,-2.70576 -5.69821,-2.53122 -19.47599,-12.13235 -25.3443,-17.71846 l -5.10287,-4.80056 6.54871,-0.0873 c 3.57199,0 7.56924,0.43644 8.93002,1.04741 z"
     id="path997"
     style="fill:#000000;stroke:none;stroke-width:0.0861582" />
  <path
     d="m 270.03765,150.19064 c 6.03841,-0.61097 12.5871,-1.5711 14.45815,-2.09478 1.87106,-0.61099 4.67765,-1.39654 6.20852,-1.83294 1.6159,-0.34914 3.48695,-1.30925 4.25239,-1.92024 0.76543,-0.69827 3.31686,-2.35664 5.69821,-3.75316 6.46365,-3.75317 16.41426,-14.9254 19.98628,-22.43174 0.93553,-2.0948 2.29629,-4.71329 2.97668,-5.93525 0.68038,-1.22196 1.27571,-2.96762 1.27571,-4.01501 0,-2.00752 2.4664,-4.71329 4.16735,-4.71329 0.59535,0 4.67765,-1.74566 9.18519,-3.927732 4.42249,-2.182074 9.10015,-4.189592 10.2908,-4.451445 1.27572,-0.349131 3.06173,-1.047393 3.99727,-1.57109 1.87105,-1.134671 12.92728,-5.586106 19.39093,-7.680902 2.21125,-0.78555 4.25241,-1.047393 4.50755,-0.610974 0.17009,0.436409 -0.42524,2.443917 -1.44583,4.451425 -1.02057,2.094796 -2.97668,7.069928 -4.25239,11.084958 -1.36077,4.015 -2.72154,7.68089 -3.14678,8.29187 -0.42523,0.5237 -1.19067,2.70578 -1.786,4.88786 -0.59534,2.18207 -1.95612,5.41154 -3.14677,7.1572 -1.10564,1.83294 -2.04116,3.57861 -2.04116,4.01502 0,0.34913 -1.95611,2.53119 -4.25239,4.80057 -6.7188,6.54622 -7.73937,11.17222 -3.23183,15.01268 2.46638,2.09479 3.23183,2.35664 7.14404,1.83293 3.82714,-0.43641 11.39642,-2.96761 14.79834,-4.88784 0.68037,-0.43642 3.57201,-1.92022 6.37859,-3.40404 5.44308,-2.88033 14.28807,-10.47396 16.15913,-14.05256 1.36077,-2.61849 5.44308,-11.08495 6.46364,-13.52886 2.21125,-5.237 3.48698,-15.099966 2.97669,-22.780887 l -0.5103,-7.942746 4.08232,-2.70578 c 3.572,-2.35663 5.52811,-2.880336 17.60492,-4.626001 15.81892,-2.182073 54.85594,-3.665876 54.85594,-2.007498 0,1.13468 -2.80657,3.840451 -3.99725,3.840451 -0.51028,0 -1.10563,0.610974 -1.44581,1.309236 -0.25515,0.698272 -1.44581,1.745656 -2.63648,2.356649 -1.19068,0.523697 -2.1262,1.483812 -2.1262,2.182074 0,0.610975 -0.51028,1.13469 -1.10562,1.13469 -0.68039,0 -1.61593,0.960106 -2.12622,2.094777 -0.51028,1.221968 -2.21124,3.665886 -3.82715,5.498838 -1.53087,1.832943 -3.99725,5.324263 -5.52812,7.76819 -1.44582,2.443917 -4.25239,6.109817 -6.12345,8.204597 -1.87106,2.09479 -3.40192,4.01502 -3.40192,4.36415 0,0.87283 -6.37859,6.98264 -7.31414,6.98264 -0.93551,0 -2.89162,4.97514 -2.89162,7.41906 0,3.0549 3.65706,7.41905 7.05899,8.37916 1.70094,0.43643 3.48695,0.69827 3.82715,0.43643 0.3402,-0.17457 4.5926,-0.5237 9.52539,-0.61098 4.93276,-0.17457 9.69546,-0.69827 10.63098,-1.30925 0.93553,-0.52371 3.57202,-1.30925 5.86832,-1.65839 4.16734,-0.61097 17.26474,-5.23697 18.71055,-6.6335 0.51029,-0.43641 1.36076,-0.78554 2.04115,-0.78554 1.53088,0 10.80109,-7.33178 14.20301,-11.25951 4.67766,-5.41156 9.52538,-13.616155 12.67216,-21.471622 0.85048,-1.920231 1.78601,-4.102305 2.21124,-4.887854 0.3402,-0.78555 1.02057,-3.229477 1.27572,-5.498829 l 0.68039,-4.189582 6.0384,0.610984 c 8.75994,0.78554 18.28531,2.094777 22.19752,3.054892 1.87106,0.436428 5.10288,1.047403 7.22908,1.221969 2.1262,0.261843 6.29355,1.047393 9.35528,1.832933 17.77503,4.538732 21.262,5.673403 21.262,6.808084 0,1.047403 -0.59533,1.483821 -6.46366,4.451435 -2.89162,1.483812 -7.90946,6.720797 -16.92453,17.63117 -1.44582,1.74566 -3.23183,3.92775 -4.08231,4.80057 -0.76544,0.87282 -1.44582,2.0075 -1.44582,2.44392 0,0.43642 -0.93552,1.57109 -2.04115,2.44392 -1.10563,0.87283 -3.99725,5.14971 -6.37859,9.42656 -4.84775,8.64103 -4.93279,10.03756 -1.27573,15.01269 2.21124,2.96763 2.55144,3.14219 9.95062,4.626 7.14403,1.48382 21.26199,-0.52371 32.48833,-4.45143 1.36077,-0.5237 3.65706,-1.22197 5.10288,-1.65837 1.36076,-0.34915 4.0823,-1.48383 5.95336,-2.53122 1.78601,-1.04739 3.99725,-1.83294 4.76268,-1.83294 0.76543,0 1.87105,-0.61098 2.46638,-1.30925 0.59534,-0.69826 1.53088,-1.30924 2.12621,-1.30924 1.53086,0 11.48148,-7.94276 14.71331,-11.69593 1.53087,-1.83294 3.57202,-5.06241 4.50755,-7.33176 1.02057,-2.26937 2.21125,-5.06243 2.72154,-6.28439 0.51027,-1.22196 1.44581,-2.88034 2.12619,-3.66588 1.44581,-1.74567 1.19067,-1.83295 23.30314,9.25199 8.3347,4.1023 15.47873,7.50634 15.98902,7.50634 0.51029,0 2.29629,0.87284 4.0823,2.00752 5.95336,3.84045 9.86557,5.23696 14.62826,5.32426 4.50755,0.0873 4.67764,0 4.93278,-2.26936 0.17011,-1.65838 -0.42523,-3.0549 -1.78601,-4.53872 -1.10562,-1.13468 -2.2963,-2.70577 -2.55144,-3.49132 -0.34019,-0.78555 -1.53087,-1.83294 -2.72153,-2.26935 -1.19068,-0.43642 -2.38135,-1.39654 -2.63649,-2.18208 -0.25514,-0.69827 -2.55144,-2.26936 -5.10288,-3.57861 -2.55144,-1.22195 -4.59259,-2.61849 -4.59259,-3.05491 0,-0.43641 -0.42525,-0.78554 -0.93553,-0.78554 -0.51028,0 -7.56927,-3.40404 -15.73387,-7.50634 -8.16461,-4.102299 -18.37036,-8.990143 -22.70781,-10.823096 -7.14402,-2.967623 -7.90947,-3.49132 -8.84498,-6.371656 -0.6804,-2.007498 -0.76544,-4.626 -0.3402,-7.506346 0.3402,-2.443927 0.42524,-4.713279 0.085,-5.06241 -0.25514,-0.349131 -1.02057,-2.269352 -1.61591,-4.189572 -0.68038,-1.92024 -2.63648,-5.324282 -4.42249,-7.506366 -1.87106,-2.269351 -3.31688,-4.276869 -3.31688,-4.451425 0,-0.174575 -3.06172,-3.665895 -6.80384,-7.680912 -3.74212,-4.102295 -6.80384,-7.855468 -6.80384,-8.466452 0,-0.523696 -0.3402,-1.13469 -0.76543,-1.309246 -0.42524,-0.08733 -2.04115,-1.309237 -3.65706,-2.618483 -3.65707,-3.142199 -9.10015,-6.808075 -9.95062,-6.808075 -0.34018,0 -1.36077,-0.785549 -2.21124,-1.745674 -0.85049,-0.960106 -2.04117,-1.745646 -2.6365,-1.745646 -0.59532,0 -1.19066,-0.261853 -1.36077,-0.610984 -0.25514,-0.698281 -9.18517,-5.498838 -10.20575,-5.498838 -0.34019,0 -1.44582,-0.349131 -2.55144,-0.78554 -2.46639,-0.960106 -1.9561,-0.78555 -7.90946,-2.269371 -11.14129,-2.70577 -19.13579,-0.610974 -20.75171,5.498838 -1.10562,3.927729 -1.19068,11.25951 -0.17009,11.870494 0.34019,0.261853 0.93553,1.658377 1.27572,3.142189 1.36076,7.331771 16.07406,21.558905 32.06307,31.247325 1.78602,1.13468 3.31689,2.443917 3.31689,2.880345 0,0.523697 0.42524,0.610984 1.02057,0.261844 0.51029,-0.349141 0.68038,-0.261844 0.42524,0.34914 -0.34019,0.436409 -1.44581,0.698262 -2.55144,0.436409 -2.63648,-0.610974 -14.62825,-3.578607 -20.15637,-5.062419 -8.50479,-2.182064 -16.49931,-3.840461 -21.94237,-4.364157 -2.97669,-0.349131 -8.07957,-1.047393 -11.39643,-1.658368 l -6.03842,-1.047412 -1.02057,-3.927729 c -0.51029,-2.182074 -2.04115,-5.84796 -3.40193,-8.204599 -2.46638,-4.364148 -8.33469,-10.910379 -9.78051,-10.910379 -0.51029,0 -1.27572,-0.785549 -1.87106,-1.745674 -0.59533,-0.960106 -1.6159,-1.745646 -2.21124,-1.745646 -0.59534,0 -1.27571,-0.610984 -1.53087,-1.309237 -0.34019,-0.698281 -1.10561,-1.309265 -1.70095,-1.309265 -0.68038,0 -1.44582,-0.610974 -1.70096,-1.309237 -0.3402,-0.698262 -1.02058,-1.309246 -1.70097,-1.309246 -0.59533,0 -1.44581,-0.523706 -1.786,-1.221968 -0.76543,-1.309237 -8.58984,-5.760662 -10.12071,-5.760662 -0.51028,0 -1.44582,-0.610994 -2.04115,-1.309256 -1.27572,-1.57109 -13.01234,-5.236976 -19.98628,-6.284388 -7.14402,-1.134671 -34.10424,0.261863 -37.50616,1.92024 -2.46639,1.221959 -4.59258,4.364148 -4.59258,6.98264 0,2.007499 7.56927,12.481469 12.67214,17.543888 5.61317,5.586106 19.05075,15.187239 21.262,15.187239 0.59533,0 0.76542,0.349131 0.51028,0.872828 -0.3402,0.523706 -6.3786,0.872837 -15.30862,0.872837 -8.07958,0 -18.62552,0.436409 -23.47326,0.872837 -4.84774,0.523687 -9.78052,1.047384 -10.80108,1.134662 -1.70097,0.174575 -2.29629,-0.523687 -3.65707,-4.015007 -0.93553,-2.356649 -3.40192,-6.458944 -5.44307,-9.077436 -2.1262,-2.618493 -3.82716,-5.149698 -3.82716,-5.586107 0,-0.436428 -0.42524,-0.785549 -0.85048,-0.785549 -0.51029,0 -1.786,-0.78555 -2.80659,-1.745665 -1.02057,-1.047403 -2.80657,-2.35664 -3.99726,-2.967624 -1.19068,-0.610984 -4.0823,-2.182074 -6.3786,-3.49132 -2.38134,-1.309246 -7.90946,-3.404042 -12.33195,-4.538713 -10.46091,-2.880345 -25.76954,-3.229476 -33.59396,-0.872828 -5.35802,1.658368 -16.24417,6.808065 -22.11247,10.561239 -3.31687,2.007508 -5.86831,3.404032 -12.50205,6.371665 -3.31689,1.57109 -4.08231,3.054902 -4.08231,8.204599 0,4.27687 2.2963,5.935247 8.24965,5.935247 2.4664,0 5.27298,0.349131 6.37861,0.78554 1.10562,0.436428 5.8683,2.007518 10.54595,3.578617 4.76268,1.483812 9.35527,3.229477 10.20575,3.927739 0.93553,0.698262 2.21124,1.309236 2.97668,1.309236 0.76544,0 4.50755,1.5711 8.24965,3.49132 3.74211,1.92024 7.22908,3.49133 7.73937,3.49133 1.786,0 0.1701,1.571099 -2.21125,2.182083 -1.36077,0.261834 -7.90946,3.404023 -14.7133,6.808065 l -12.33196,6.197091 -8.1646,0.174575 c -8.93003,0.261853 -18.71057,2.443917 -26.79011,6.022525 -7.05898,3.142189 -10.54595,5.062419 -10.54595,5.847967 0,0.43641 -0.5103,0.69826 -1.19068,0.69826 -0.59533,0 -2.1262,0.96011 -3.40192,2.18208 -1.27571,1.22197 -2.89163,2.18207 -3.57202,2.18207 -0.59533,0 -1.19067,0.43641 -1.19067,0.87283 0,0.5237 -0.51028,0.87283 -1.19066,0.87283 -0.68038,0 -1.36078,0.61098 -1.70097,1.30924 -0.25514,0.69828 -1.02058,1.30925 -1.61592,1.30925 -0.68037,0 -2.80656,1.5711 -4.84772,3.49132 -2.04115,1.92023 -4.16735,3.49132 -4.67765,3.49132 -0.51028,0 -2.21124,1.5711 -3.74209,3.49132 -1.44583,1.92023 -3.23183,3.49132 -3.91222,3.49132 -0.68039,0 -1.27572,0.5237 -1.27572,1.13469 0,0.61098 -1.19067,2.26935 -2.63649,3.75317 -7.31412,7.06992 -8.3347,13.70343 -2.89163,18.504 4.4225,4.01501 10.54594,4.80055 26.36488,3.22946 z m -10.2908,-15.44909 c 2.55143,-3.75317 17.51988,-15.53638 19.64608,-15.53638 0.59533,0 2.89163,-1.4838 5.18792,-3.31675 4.5926,-3.75317 12.16187,-7.76819 17.09464,-9.07743 8.33472,-2.18208 9.69547,-1.83295 7.56928,2.26935 -2.04115,4.1023 -11.65158,15.4491 -13.69273,16.23465 -1.19067,0.43641 -2.12619,1.22196 -2.12619,1.65837 0,1.22197 -9.86557,5.76069 -15.30864,6.98264 -5.18793,1.22197 -14.7133,2.44393 -17.60494,2.35665 -1.53086,0 -1.6159,-0.26185 -0.76542,-1.5711 z m 312.97658,-1.65838 c -0.25514,-0.52369 0.59533,-2.18207 1.95609,-3.66588 2.55144,-2.88034 6.54869,-8.11732 8.75995,-11.52136 5.01783,-7.76819 14.11797,-15.36182 20.49656,-17.10746 5.44308,-1.483825 12.16187,-1.832956 19.47599,-1.047407 5.69821,0.610977 6.37861,0.872827 6.12347,2.443917 -0.5103,3.05491 -6.46366,13.00519 -8.41977,13.96529 -1.02057,0.52369 -3.06173,2.18208 -4.59258,3.75317 -1.53087,1.5711 -3.40192,2.79305 -4.16736,2.79305 -0.68039,0 -2.72153,0.78555 -4.50754,1.74567 -10.54594,5.84796 -33.42386,11.43408 -35.12481,8.64101 z m -194.2496,-11.69592 c 0,-0.69827 0.34019,-2.00751 0.76543,-2.88034 2.04115,-3.92773 4.33744,-9.95027 4.33744,-11.34679 0,-0.87284 0.3402,-1.92023 0.68039,-2.35665 0.42523,-0.52368 1.61592,-3.0549 2.63649,-5.760678 1.78599,-4.713279 5.52813,-9.513836 6.5487,-8.466452 0.51028,0.610984 -1.61593,11.87049 -3.14679,16.40921 -1.786,5.06241 -6.80384,13.26703 -8.50479,13.70343 -0.93553,0.26186 -1.61591,0.78556 -1.61591,1.22197 0,0.43641 -0.42526,0.78554 -0.85048,0.78554 -0.51029,0 -0.85048,-0.61097 -0.85048,-1.30924 z m 87.59943,-6.45894 c 0,-1.22196 5.44307,-9.51386 10.8011,-16.496503 5.27297,-6.808074 14.45814,-14.663542 18.03016,-15.623657 1.19068,-0.261843 2.72153,-0.872828 3.31687,-1.396515 0.59533,-0.436428 3.91221,-1.047412 7.39918,-1.309265 8.07956,-0.523687 8.41975,0.174575 4.16735,8.728315 -3.40192,6.895352 -12.84225,17.282035 -15.64883,17.282035 -0.85049,0 -1.87105,0.43642 -2.12621,0.87283 -0.93552,1.57109 -8.1646,4.71328 -15.30863,6.63351 -7.56927,2.09479 -10.63099,2.44392 -10.63099,1.30925 z M 606.91271,64.216879 c -0.51028,-0.523706 -1.36076,-0.872857 -1.9561,-0.872857 -0.59533,0 -1.10562,-0.436409 -1.10562,-0.872827 0,-0.523687 -1.02058,-1.396515 -2.38135,-1.920221 -1.27572,-0.610975 -3.99726,-2.356639 -5.95336,-4.015007 -2.04115,-1.658387 -5.8683,-4.189601 -8.41974,-5.498838 -2.63649,-1.396534 -6.46365,-4.27687 -8.50481,-6.458953 -2.12619,-2.182064 -4.25239,-3.927729 -4.76268,-3.927729 -1.27572,-0.08723 -6.29355,-7.069928 -6.7188,-9.252002 -0.85047,-4.975131 17.60494,2.094796 30.10699,11.521363 12.16187,9.164705 26.53496,25.573931 24.83402,28.366989 -0.42525,0.698271 -13.60768,-5.498829 -15.13855,-7.069918 z m -238.55959,-2.70579 c -3.57201,-1.047393 -9.69548,-3.316754 -13.69273,-5.149697 -3.99725,-1.832943 -9.95062,-4.451435 -13.18244,-5.673394 -6.12344,-2.356649 -10.71605,-5.673404 -7.90946,-5.673404 0.68039,0 1.78602,-0.523696 2.2963,-1.221958 1.78601,-2.182074 11.22634,-4.27687 19.22085,-4.27687 7.90945,-0.08733 17.94512,2.269352 24.23867,5.498828 1.6159,0.78555 4.33745,2.182084 5.95335,3.054902 2.63649,1.396543 11.90673,10.212117 11.90673,11.25951 0,0.698281 -3.65706,2.531224 -6.37861,3.229476 -5.35803,1.309266 -15.98901,0.78554 -22.45266,-1.047393 z m 129.44302,-8.815583 c -1.27572,-0.523696 -2.63648,-0.872837 -3.06171,-0.872837 -0.93554,0.261844 -8.50481,-1.745655 -9.52537,-2.443908 -0.51029,-0.261853 -2.80659,-1.309265 -5.10289,-2.182083 -2.38134,-0.872828 -5.61316,-2.356649 -7.22907,-3.316764 -1.61591,-0.960106 -5.18794,-2.967614 -7.90946,-4.364148 -2.80659,-1.483821 -5.18793,-3.142189 -5.44308,-3.840451 -0.25514,-0.610974 -0.85048,-1.13469 -1.44581,-1.13469 -1.44582,-0.08733 -6.71879,-5.84794 -5.86832,-6.371647 1.36078,-0.872837 17.51989,-0.698271 22.19754,0.261853 2.46639,0.523687 6.20849,1.745646 8.41973,2.705761 5.69822,2.531215 19.476,12.132347 25.34431,17.718454 l 5.10288,4.800566 -6.54871,0.08733 c -3.572,0 -7.56926,-0.436428 -8.93004,-1.047413 z"
     id="path1009"
     style="fill:#000000;stroke:none;stroke-width:0.0861582" />
  <text
     xml:space="preserve"
     style="font-size:72px;line-height:1.25;font-family:sans-serif;stroke-width:0.75"
     x="422.29276"
     y="265.11917"
     id="text1020"><tspan
       sodipodi:role="line"
       id="tspan1018"
       x="422.29276"
       y="265.11917"
       style="stroke-width:0.75" /></text>
</svg>
