<?xml version="1.0" standalone="no"?>
<!DOCTYPE svg PUBLIC "-//W3C//DTD SVG 20010904//EN"
 "http://www.w3.org/TR/2001/REC-SVG-20010904/DTD/svg10.dtd">
<svg version="1.0" xmlns="http://www.w3.org/2000/svg"
 width="622.000000pt" height="220.000000pt" viewBox="0 0 622.000000 220.000000"
 preserveAspectRatio="xMidYMid meet">
<metadata>
Created by potrace 1.16, written by Peter Selinger 2001-2019
</metadata>
<g transform="translate(0.000000,220.000000) scale(0.100000,-0.100000)"
fill="#000000" stroke="none">
<path d="M5565 1815 c-71 -7 -148 -18 -170 -24 -22 -7 -55 -16 -73 -21 -19 -4
-41 -15 -50 -22 -9 -8 -39 -27 -67 -43 -76 -43 -193 -171 -235 -257 -11 -24
-27 -54 -35 -68 -8 -14 -15 -34 -15 -46 0 -23 -29 -54 -49 -54 -7 0 -55 -20
-108 -45 -52 -25 -107 -48 -121 -51 -15 -4 -36 -12 -47 -18 -22 -13 -152 -64
-228 -88 -26 -9 -50 -12 -53 -7 -2 5 5 28 17 51 12 24 35 81 50 127 16 46 32
88 37 95 5 6 14 31 21 56 7 25 23 62 37 82 13 21 24 41 24 46 0 4 23 29 50 55
79 75 91 128 38 172 -29 24 -38 27 -84 21 -45 -5 -134 -34 -174 -56 -8 -5 -42
-22 -75 -39 -64 -33 -168 -120 -190 -161 -16 -30 -64 -127 -76 -155 -26 -60
-41 -173 -35 -261 l6 -91 -48 -31 c-42 -27 -65 -33 -207 -53 -186 -25 -645
-42 -645 -23 0 13 33 44 47 44 6 0 13 7 17 15 3 8 17 20 31 27 14 6 25 17 25
25 0 7 6 13 13 13 8 0 19 11 25 24 6 14 26 42 45 63 18 21 47 61 65 89 17 28
50 70 72 94 22 24 40 46 40 50 0 10 75 80 86 80 11 0 34 57 34 85 0 35 -43 85
-83 96 -20 5 -41 8 -45 5 -4 -2 -54 -6 -112 -7 -58 -2 -114 -8 -125 -15 -11
-6 -42 -15 -69 -19 -49 -7 -203 -60 -220 -76 -6 -5 -16 -9 -24 -9 -18 0 -127
-84 -167 -129 -55 -62 -112 -156 -149 -246 -10 -22 -21 -47 -26 -56 -4 -9 -12
-37 -15 -63 l-8 -48 -71 7 c-103 9 -215 24 -261 35 -22 5 -60 12 -85 14 -25 3
-74 12 -110 21 -209 52 -250 65 -250 78 0 12 7 17 76 51 34 17 93 77 199 202
17 20 38 45 48 55 9 10 17 23 17 28 0 5 11 18 24 28 13 10 47 59 75 108 57 99
58 115 15 172 -26 34 -30 36 -117 53 -84 17 -250 -6 -382 -51 -16 -6 -43 -14
-60 -19 -16 -4 -48 -17 -70 -29 -21 -12 -47 -21 -56 -21 -9 0 -22 -7 -29 -15
-7 -8 -18 -15 -25 -15 -18 0 -135 -91 -173 -134 -18 -21 -42 -58 -53 -84 -12
-26 -26 -58 -32 -72 -6 -14 -17 -33 -25 -42 -17 -20 -14 -21 -274 106 -98 47
-182 86 -188 86 -6 0 -27 10 -48 23 -70 44 -116 60 -172 61 -53 1 -55 0 -58
-26 -2 -19 5 -35 21 -52 13 -13 27 -31 30 -40 4 -9 18 -21 32 -26 14 -5 28
-16 31 -25 3 -8 30 -26 60 -41 30 -14 54 -30 54 -35 0 -5 5 -9 11 -9 6 0 89
-39 185 -86 96 -47 216 -103 267 -124 84 -34 93 -40 104 -73 8 -23 9 -53 4
-86 -4 -28 -5 -54 -1 -58 3 -4 12 -26 19 -48 8 -22 31 -61 52 -86 22 -26 39
-49 39 -51 0 -2 36 -42 80 -88 44 -47 80 -90 80 -97 0 -6 4 -13 9 -15 5 -1 24
-15 43 -30 43 -36 107 -78 117 -78 4 0 16 -9 26 -20 10 -11 24 -20 31 -20 7 0
14 -3 16 -7 3 -8 108 -63 120 -63 4 0 17 -4 30 -9 29 -11 23 -9 93 -26 131
-31 225 -7 244 63 13 45 14 129 2 136 -4 3 -11 19 -15 36 -16 84 -189 247
-377 358 -21 13 -39 28 -39 33 0 6 -5 7 -12 3 -6 -4 -8 -3 -5 4 4 5 17 8 30 5
31 -7 172 -41 237 -58 100 -25 194 -44 258 -50 35 -4 95 -12 134 -19 l71 -12
12 -45 c6 -25 24 -67 40 -94 29 -50 98 -125 115 -125 6 0 15 -9 22 -20 7 -11
19 -20 26 -20 7 0 15 -7 18 -15 4 -8 13 -15 20 -15 8 0 17 -7 20 -15 4 -8 12
-15 20 -15 7 0 17 -6 21 -14 9 -15 101 -66 119 -66 6 0 17 -7 24 -15 15 -18
153 -60 235 -72 84 -13 401 3 441 22 29 14 54 50 54 80 0 23 -89 143 -149 201
-66 64 -224 174 -250 174 -7 0 -9 4 -6 10 4 6 75 10 180 10 95 0 219 5 276 10
57 6 115 12 127 13 20 2 27 -6 43 -46 11 -27 40 -74 64 -104 25 -30 45 -59 45
-64 0 -5 5 -9 10 -9 6 0 21 -9 33 -20 12 -12 33 -27 47 -34 14 -7 48 -25 75
-40 28 -15 93 -39 145 -52 123 -33 303 -37 395 -10 63 19 191 78 260 121 39
23 69 39 147 73 39 18 48 35 48 94 0 49 -27 68 -97 68 -29 0 -62 4 -75 9 -13
5 -69 23 -124 41 -56 17 -110 37 -120 45 -11 8 -26 15 -35 15 -9 0 -53 18 -97
40 -44 22 -85 40 -91 40 -21 0 -2 18 26 25 16 3 93 39 173 78 l145 71 96 2
c105 3 220 28 315 69 83 36 124 58 124 67 0 5 6 8 14 8 7 0 25 11 40 25 15 14
34 25 42 25 7 0 14 5 14 10 0 6 6 10 14 10 8 0 16 7 20 15 3 8 12 15 19 15 8
0 33 18 57 40 24 22 49 40 55 40 6 0 26 18 44 40 17 22 38 40 46 40 8 0 15 6
15 13 0 7 14 26 31 43 86 81 98 157 34 212 -52 46 -124 55 -310 37z m121 -177
c-30 -43 -206 -178 -231 -178 -7 0 -34 -17 -61 -38 -54 -43 -143 -89 -201
-104 -98 -25 -114 -21 -89 26 24 47 137 177 161 186 14 5 25 14 25 19 0 14
116 66 180 80 61 14 173 28 207 27 18 0 19 -3 9 -18z m-3680 -19 c3 -6 -7 -25
-23 -42 -30 -33 -77 -93 -103 -132 -59 -89 -166 -176 -241 -196 -64 -17 -143
-21 -229 -12 -67 7 -75 10 -72 28 6 35 76 149 99 160 12 6 36 25 54 43 18 18
40 32 49 32 8 0 32 9 53 20 124 67 393 131 413 99z m2284 -134 c0 -8 -4 -23
-9 -33 -24 -45 -51 -114 -51 -130 0 -10 -4 -22 -8 -27 -5 -6 -19 -35 -31 -66
-21 -54 -65 -109 -77 -97 -6 7 19 136 37 188 21 58 80 152 100 157 11 3 19 9
19 14 0 5 5 9 10 9 6 0 10 -7 10 -15z m-1030 -74 c0 -14 -64 -109 -127 -189
-62 -78 -170 -168 -212 -179 -14 -3 -32 -10 -39 -16 -7 -5 -46 -12 -87 -15
-95 -6 -99 2 -49 100 40 79 151 198 184 198 10 0 22 5 25 10 11 18 96 54 180
76 89 24 125 28 125 15z m-1656 -581 c6 -6 16 -10 23 -10 7 0 13 -5 13 -10 0
-6 12 -16 28 -22 15 -7 47 -27 70 -46 24 -19 69 -48 99 -63 31 -16 76 -49 100
-74 25 -25 50 -45 56 -45 15 -1 74 -81 79 -106 10 -57 -207 24 -354 132 -143
105 -312 293 -292 325 5 8 160 -63 178 -81z m2805 -31 c42 -12 114 -38 161
-59 47 -21 117 -51 155 -65 72 -27 126 -65 93 -65 -8 0 -21 -6 -27 -14 -21
-25 -132 -49 -226 -49 -93 -1 -211 26 -285 63 -19 9 -51 25 -70 35 -31 16
-140 117 -140 129 0 8 43 29 75 37 63 15 188 9 264 -12z m-1522 -101 c15 -6
31 -10 36 -10 11 3 100 -20 112 -28 6 -3 33 -15 60 -25 28 -10 66 -27 85 -38
19 -11 61 -34 93 -50 33 -17 61 -36 64 -44 3 -7 10 -13 17 -13 17 -1 79 -67
69 -73 -16 -10 -206 -8 -261 3 -29 6 -73 20 -99 31 -67 29 -229 139 -298 203
l-60 55 77 1 c42 0 89 -5 105 -12z"/>
</g>
</svg>
