<?xml version="1.0" standalone="no"?>
<!DOCTYPE svg PUBLIC "-//W3C//DTD SVG 20010904//EN"
 "http://www.w3.org/TR/2001/REC-SVG-20010904/DTD/svg10.dtd">
<svg version="1.0" xmlns="http://www.w3.org/2000/svg"
 width="622.000000pt" height="220.000000pt" viewBox="0 0 622.000000 220.000000"
 preserveAspectRatio="xMidYMid meet">
<metadata>
Created by potrace 1.16, written by Peter Selinger 2001-2019
</metadata>
<g transform="translate(0.000000,220.000000) scale(0.100000,-0.100000)"
fill="#000000" stroke="none">
<path d="M1880 1860 c-13 -8 -12 -10 3 -10 9 0 17 5 17 10 0 12 -1 12 -20 0z"/>
<path d="M2075 1860 c-11 -5 -14 -9 -7 -9 6 -1 12 -5 12 -11 0 -5 -19 -11 -42
-11 -43 -1 -42 -2 11 -9 56 -8 80 -4 93 14 13 19 8 28 -12 23 -11 -3 -20 -1
-20 4 0 11 -8 11 -35 -1z"/>
<path d="M5122 1852 c2 -7 6 -13 11 -13 4 1 19 1 34 1 21 0 24 3 15 12 -17 17
-63 17 -60 0z"/>
<path d="M5526 1862 c-3 -6 -1 -14 5 -17 15 -10 25 3 12 16 -7 7 -13 7 -17 1z"/>
<path d="M5685 1850 c22 -24 10 -30 -64 -29 -56 1 -62 2 -36 10 17 5 45 7 64
3 29 -5 33 -3 24 8 -7 8 -31 13 -60 13 -40 0 -50 -4 -58 -22 -7 -17 -20 -22
-65 -26 -51 -4 -116 -17 -165 -32 -16 -4 -15 -3 3 6 12 7 22 16 22 20 0 5 8 6
18 3 16 -5 16 -5 -1 6 -9 6 -22 8 -27 5 -6 -3 -7 1 -4 9 4 11 0 16 -11 16 -9
0 -13 5 -10 10 15 25 -16 7 -35 -20 -20 -29 -49 -44 -34 -17 5 8 3 8 -9 -2 -9
-7 -15 -17 -12 -21 3 -5 -1 -11 -7 -13 -7 -3 -3 -6 10 -6 13 -1 21 2 19 7 -3
4 5 7 18 7 13 0 21 -3 19 -7 -2 -3 2 -8 8 -11 7 -2 0 -4 -15 -4 -31 -1 -77
-21 -77 -35 0 -5 11 -1 25 8 13 9 30 14 36 12 7 -2 -14 -19 -47 -37 -32 -19
-78 -53 -101 -77 -22 -24 -48 -44 -57 -44 -9 0 -16 -6 -14 -13 2 -7 -12 -31
-29 -54 -18 -22 -33 -49 -33 -59 0 -16 -2 -17 -11 -4 -8 12 -9 10 -4 -7 7 -25
-32 -73 -58 -73 -8 0 -18 -7 -21 -16 -13 -34 -5 -38 19 -10 l25 29 -7 -34 c-3
-19 -10 -35 -15 -37 -4 -2 -8 -9 -8 -15 0 -7 -11 -13 -25 -13 -13 -1 -47 -13
-75 -27 -43 -22 -50 -23 -51 -9 0 15 -1 15 -7 -1 -11 -26 -68 -57 -107 -57
-22 0 -38 -6 -44 -17 -5 -10 -38 -28 -73 -41 -34 -13 -72 -27 -83 -32 -11 -4
-42 -14 -70 -21 -27 -6 -55 -16 -62 -22 -7 -5 -2 9 10 32 19 35 27 41 55 41
28 0 32 3 32 28 0 15 -5 34 -11 42 -8 11 -9 5 -5 -25 4 -30 3 -36 -5 -25 -8
11 -12 12 -16 3 -2 -7 -8 -13 -13 -13 -4 0 0 20 8 44 11 30 20 42 30 38 12 -4
12 -1 2 18 -10 18 -9 21 1 15 9 -6 10 -3 5 10 -4 10 0 28 9 41 9 13 12 24 8
24 -4 0 1 6 11 13 10 7 17 20 16 28 -4 29 0 49 11 49 6 0 9 -9 6 -20 -3 -11 0
-23 6 -27 7 -3 9 -3 5 2 -4 4 -3 14 3 21 7 9 7 19 0 32 -11 21 5 82 22 82 4 0
5 -6 1 -12 -4 -7 -4 -10 1 -6 4 4 15 2 24 -4 12 -10 12 -8 -1 8 -10 11 -18 25
-18 30 0 5 25 32 55 59 30 28 55 55 55 61 0 6 7 26 16 43 14 28 15 36 3 59
-11 20 -11 26 -1 29 20 7 13 22 -8 16 -11 -3 -20 -12 -20 -20 0 -11 -5 -13
-17 -7 -46 21 -130 10 -210 -28 -12 -6 -28 -8 -36 -5 -9 3 -17 -2 -20 -13 -3
-12 -18 -21 -41 -25 -20 -4 -33 -12 -30 -17 4 -6 -2 -7 -16 -3 -13 4 -20 3
-17 -2 8 -13 -87 -84 -104 -80 -8 2 -11 2 -6 0 13 -8 7 -23 -9 -23 -9 0 -12
-5 -8 -12 5 -7 3 -8 -5 -4 -7 5 -10 15 -6 23 5 14 3 14 -12 2 -45 -35 -63 -57
-57 -73 8 -20 10 -20 36 4 21 19 21 20 2 21 -10 0 -13 3 -6 6 6 2 10 9 6 14
-3 5 -1 9 4 9 20 0 21 -44 2 -65 -11 -12 -20 -30 -20 -41 -1 -17 -2 -17 -13 4
-12 21 -13 21 -14 -15 0 -48 -8 -78 -19 -77 -5 1 -20 5 -34 9 -22 7 -23 6 -11
-9 7 -9 20 -16 27 -16 18 0 18 -11 -1 -36 -8 -10 -14 -23 -15 -29 0 -5 5 -3
11 5 8 12 9 10 5 -10 -3 -14 -6 -32 -7 -40 -1 -20 -21 40 -21 65 0 11 -2 14
-5 8 -3 -7 -12 -13 -20 -13 -10 0 -13 -6 -9 -16 3 -9 6 -21 7 -27 1 -7 5 -1
10 13 8 23 8 22 6 -7 -2 -18 0 -30 4 -27 9 5 23 -35 15 -43 -3 -4 -6 -1 -6 5
0 7 -7 12 -15 12 -12 0 -15 -14 -15 -69 0 -66 -15 -102 -35 -83 -5 4 -5 1 -1
-6 4 -7 1 -15 -8 -18 -8 -3 -18 -14 -21 -24 -4 -13 -16 -17 -46 -17 -24 0 -45
-6 -50 -14 -10 -16 7 -29 36 -28 16 1 15 2 -5 8 -23 7 -22 8 13 12 20 3 37 1
37 -3 0 -4 7 -8 15 -8 9 0 13 9 12 25 -1 13 3 23 8 22 6 -1 9 -5 7 -9 -3 -11
3 -10 32 4 18 8 25 17 22 32 -2 12 -1 15 1 9 10 -28 24 -12 18 18 -4 18 -3 29
2 26 5 -3 10 -21 11 -39 2 -28 -3 -36 -30 -53 -18 -10 -34 -17 -35 -15 -1 3
-8 -4 -16 -14 -9 -13 -21 -17 -36 -13 -11 3 -21 2 -21 -2 0 -7 -161 -29 -275
-38 -27 -2 -63 -7 -80 -11 -16 -4 -106 -6 -199 -4 -148 2 -167 4 -156 17 23
28 1 28 -24 0 -15 -16 -26 -23 -26 -16 0 10 15 26 56 60 14 12 20 12 38 1 16
-9 18 -9 9 0 -15 16 -6 40 16 40 14 0 14 -2 1 -10 -13 -8 -12 -10 3 -10 20 0
24 36 5 43 -8 3 -7 6 4 6 9 1 20 10 23 21 3 11 10 20 14 20 4 0 13 12 20 27 7
15 15 23 19 17 4 -5 15 -10 24 -12 13 -2 16 4 13 32 -3 36 17 77 31 63 5 -4 2
-12 -5 -16 -10 -7 -11 -13 -2 -27 7 -13 10 -14 11 -5 0 8 8 20 18 27 11 9 13
13 4 14 -7 0 -10 5 -7 10 3 6 0 10 -7 10 -23 0 15 20 38 20 26 0 39 15 48 53
5 21 3 28 -6 25 -7 -3 -14 -17 -16 -31 -3 -26 -6 -29 -34 -31 -7 -1 -16 -5
-20 -11 -5 -6 -8 -5 -8 2 0 7 11 20 25 29 14 9 25 22 25 30 0 8 9 19 20 26 11
7 20 18 20 24 0 22 35 43 60 37 23 -5 23 -4 8 8 -15 13 -16 15 0 29 14 13 15
12 9 -3 -5 -14 -3 -16 10 -9 9 6 18 20 20 33 1 13 6 43 9 67 5 38 3 46 -21 68
-28 26 -105 58 -105 44 0 -5 -46 -8 -102 -8 -112 0 -191 -10 -183 -23 3 -4
-11 -11 -32 -15 -21 -4 -60 -15 -87 -26 -26 -10 -57 -16 -67 -13 -13 4 -19 1
-19 -9 0 -9 -9 -16 -20 -16 -11 0 -20 -4 -20 -10 0 -5 -4 -10 -9 -10 -5 0 -8
10 -7 23 2 20 -1 23 -21 19 -13 -2 -26 -9 -29 -14 -4 -6 2 -8 14 -4 11 4 23 2
27 -4 4 -7 -2 -14 -14 -17 -12 -3 -21 -11 -21 -17 0 -6 -12 -19 -27 -28 -16
-9 -45 -33 -65 -53 -23 -23 -41 -34 -49 -29 -9 5 -10 2 -6 -9 3 -10 2 -17 -3
-17 -6 0 -10 -6 -10 -14 0 -16 -26 -40 -32 -29 -3 4 -3 2 -1 -5 1 -8 -12 -39
-30 -70 -18 -31 -42 -79 -52 -107 -24 -65 -31 -72 -55 -57 -24 15 -30 15 -30
1 0 -5 4 -8 9 -5 17 11 43 -31 35 -56 -4 -13 -7 -29 -6 -35 4 -16 -10 -17 -26
-1 -9 9 -12 9 -12 0 0 -7 -8 -12 -17 -12 -12 0 -14 3 -6 8 8 5 9 13 3 22 -8
12 -10 12 -10 1 0 -9 -8 -12 -25 -9 -14 3 -25 1 -25 -5 0 -6 -16 -7 -42 -3
-24 4 -63 9 -88 12 -25 2 -63 8 -85 14 -22 5 -58 12 -80 14 -37 4 -319 71
-351 83 -8 3 -14 12 -14 20 0 12 2 12 15 -1 11 -10 22 -13 38 -7 23 9 31 38
10 34 -7 -2 -13 0 -13 5 0 9 48 30 80 34 33 4 65 38 63 66 -1 12 2 22 7 22 5
0 19 18 31 40 16 29 29 40 46 40 17 0 23 6 23 23 0 28 29 73 30 45 0 -9 -6
-19 -12 -21 -10 -4 -10 -6 0 -6 19 -1 14 -32 -10 -58 -18 -20 -19 -23 -5 -23
9 0 17 7 17 16 0 9 5 12 11 8 8 -5 10 4 7 30 -2 23 0 35 7 33 5 -3 16 1 22 9
10 10 9 14 -7 19 -11 4 -20 12 -20 19 0 18 21 35 37 29 7 -3 13 -1 11 4 -2 5
6 26 17 47 16 29 25 36 43 33 12 -2 22 0 22 4 0 5 7 9 15 9 22 0 18 18 -5 25
-26 8 -26 31 0 47 11 7 20 16 20 21 0 4 -3 6 -7 4 -10 -6 -9 53 1 75 4 9 6 25
3 35 -4 15 -5 14 -6 -4 0 -12 -6 -25 -12 -28 -11 -7 -40 25 -33 36 7 13 -173
41 -220 35 -25 -4 -45 -3 -44 1 4 10 -5 13 -32 13 -11 0 -20 -7 -20 -15 0 -8
-7 -15 -15 -15 -18 0 -19 12 -3 28 6 6 8 15 3 19 -4 5 -10 2 -12 -4 -3 -9 -10
-10 -21 -4 -11 5 -27 2 -45 -9 -31 -19 -16 -35 17 -18 14 8 17 7 11 -3 -6 -9
-3 -10 11 -5 11 4 15 4 9 -2 -5 -5 -30 -14 -55 -21 -25 -7 -58 -17 -75 -22
-16 -6 -44 -14 -61 -18 -16 -5 -42 -16 -57 -25 -15 -11 -38 -16 -54 -13 -15 2
-22 2 -15 0 8 -3 -8 -16 -35 -30 -26 -14 -55 -32 -64 -39 -8 -8 -18 -14 -22
-14 -3 0 -23 -16 -44 -35 -21 -19 -48 -35 -60 -35 -13 0 -32 -9 -43 -20 -11
-11 -22 -15 -25 -9 -4 5 -11 7 -16 4 -5 -3 -6 1 -3 9 3 9 1 16 -5 16 -6 0 -11
-9 -11 -20 0 -27 44 -38 66 -16 24 25 29 11 7 -18 -15 -19 -23 -22 -32 -13 -6
6 -12 7 -12 1 -1 -5 -3 -21 -5 -37 -1 -15 1 -25 5 -23 18 11 -3 -46 -24 -66
-13 -12 -21 -28 -18 -35 8 -19 -10 -16 -35 7 -12 12 -22 16 -22 10 0 -7 -20
-1 -45 13 -24 14 -60 30 -79 37 -26 8 -33 15 -29 27 4 11 2 14 -5 9 -13 -8
-82 13 -82 24 0 4 -18 12 -40 19 -22 7 -38 16 -35 21 4 6 -6 10 -22 10 l-28 1
30 14 c17 7 23 14 15 14 -13 1 -13 2 0 11 8 5 13 10 10 11 -52 9 -55 9 -40 -2
12 -8 9 -9 -12 -5 -16 4 -30 1 -34 -6 -5 -7 -2 -8 7 -3 10 6 11 5 3 -4 -6 -6
-19 -9 -28 -5 -14 5 -15 9 -4 15 8 6 0 9 -25 9 -21 0 -36 4 -32 9 3 5 -5 11
-17 13 -13 2 -22 9 -21 16 2 6 -6 12 -18 12 -15 0 -19 4 -15 16 4 10 2 14 -6
11 -7 -2 -12 -10 -10 -16 3 -13 -51 -3 -56 11 -2 4 -8 8 -13 8 -6 0 -8 -4 -4
-9 3 -5 -5 -11 -17 -13 -35 -5 -40 -47 -9 -78 15 -14 27 -38 29 -53 1 -23 -2
-27 -26 -27 -24 0 -28 -4 -30 -30 -2 -29 -1 -30 37 -30 26 0 41 5 45 16 3 8
10 12 16 9 6 -4 8 -11 5 -16 -4 -5 -1 -9 4 -9 6 0 11 6 11 13 0 8 4 7 10 -3 6
-9 10 -10 10 -3 0 7 -9 17 -20 23 -11 6 -20 18 -20 28 0 13 5 11 25 -10 14
-15 25 -32 25 -37 0 -5 8 -9 18 -9 33 1 72 -21 72 -42 0 -11 7 -20 16 -20 9 0
12 5 8 12 -4 7 -3 8 5 4 6 -4 8 -12 5 -18 -5 -7 0 -9 15 -5 29 7 75 -17 89
-48 6 -14 19 -25 28 -25 13 0 11 5 -7 21 -28 24 -28 24 74 -26 57 -28 75 -41
67 -50 -7 -9 -1 -12 28 -12 39 0 102 -27 102 -43 0 -11 -32 -1 -42 14 -9 14
-89 15 -84 1 4 -11 5 -11 49 0 21 6 27 4 27 -9 0 -9 -8 -16 -19 -16 -11 0 -23
-5 -27 -12 -5 -7 -3 -8 6 -3 10 6 12 3 7 -11 -7 -18 -6 -18 7 -1 10 13 23 16
54 12 37 -5 40 -3 37 15 -4 19 -2 19 23 6 15 -7 42 -17 59 -21 34 -7 44 -30
22 -52 -8 -8 -8 -16 0 -30 11 -16 11 -16 6 5 -7 24 9 31 19 7 7 -20 -4 -47
-18 -42 -11 4 -12 -10 -8 -65 1 -10 9 -18 18 -18 12 0 15 -7 12 -25 -3 -13 -2
-22 2 -20 4 3 11 -6 14 -20 4 -14 11 -25 16 -25 6 0 10 -7 10 -15 0 -8 5 -15
11 -15 20 0 3 -23 -19 -25 -11 -1 -19 2 -16 7 3 4 -13 8 -35 8 -23 0 -41 -4
-41 -9 0 -5 -8 -7 -19 -4 -10 3 -21 1 -24 -4 -7 -11 -3 -12 68 -17 28 -1 63 1
79 5 30 9 57 -3 55 -25 0 -7 -2 -6 -6 2 -2 6 -17 11 -31 11 -23 -2 -24 -2 -5
-6 24 -5 21 -33 -3 -33 -17 0 -18 -12 -2 -28 18 -18 37 -14 31 6 -3 12 1 19
11 19 9 0 16 -8 16 -18 0 -13 7 -17 27 -16 15 1 28 -3 28 -9 0 -7 11 -21 25
-33 17 -14 21 -23 14 -28 -7 -5 -8 -16 -3 -28 7 -19 8 -19 8 3 1 12 5 22 9 22
11 0 42 -33 42 -44 0 -4 10 -17 23 -28 12 -11 16 -16 8 -13 -10 6 -11 2 -6
-14 4 -13 1 -28 -6 -38 -11 -13 -11 -15 6 -12 13 3 22 15 25 34 4 23 7 26 12
13 4 -10 22 -24 40 -33 78 -37 109 -61 101 -81 -3 -8 0 -14 6 -14 6 0 11 5 11
10 0 6 5 10 10 10 6 0 10 -7 10 -15 0 -8 -6 -15 -14 -15 -23 0 -28 -17 -10
-35 13 -12 19 -13 30 -4 12 9 13 9 9 -3 -5 -11 1 -15 22 -14 15 1 27 4 26 9
-2 4 -3 12 -3 18 0 5 -4 8 -9 5 -4 -3 -16 3 -26 14 -10 12 -13 20 -7 20 7 0
12 -5 12 -11 0 -6 7 -9 15 -5 8 3 15 1 15 -4 0 -5 9 -12 20 -15 11 -3 20 -11
20 -16 0 -6 -6 -7 -12 -3 -8 4 -10 3 -5 -2 5 -5 12 -9 15 -10 4 0 18 -6 32
-13 23 -10 22 -11 -12 -6 -25 4 -38 2 -38 -5 0 -7 6 -10 13 -7 6 2 22 0 34 -4
14 -5 25 -4 29 2 4 6 22 8 43 5 28 -4 31 -4 14 4 -31 13 -29 17 7 12 17 -2 27
-9 23 -15 -3 -5 -1 -7 4 -4 6 4 38 3 72 -1 49 -7 67 -5 98 9 36 17 69 15 42
-2 -8 -5 -9 -9 -3 -9 6 0 17 7 24 15 8 10 9 15 2 15 -6 0 -9 7 -5 16 4 10 8
12 13 5 3 -6 7 25 8 70 1 45 -2 87 -7 93 -5 6 -12 25 -15 42 -4 17 -16 41 -26
52 -11 12 -20 24 -20 28 0 4 -10 19 -22 32 -20 22 -21 24 -4 18 16 -5 17 -4 6
9 -10 12 -9 16 4 21 13 5 11 11 -13 35 -16 16 -37 29 -46 29 -9 0 -13 5 -10
10 3 5 15 10 25 10 14 0 18 5 13 17 -4 11 -3 14 5 9 7 -4 12 -2 12 3 0 6 -11
11 -25 11 -16 0 -25 -6 -25 -16 0 -14 -35 -54 -47 -54 -3 0 -24 14 -48 30 -33
23 -43 35 -38 48 6 15 5 15 -10 3 -11 -9 -17 -10 -17 -2 0 6 -7 11 -15 11 -7
0 -18 6 -22 13 -4 8 -27 24 -50 37 -44 24 -48 41 -10 39 13 0 16 -3 9 -6 -9
-3 2 -13 27 -24 26 -11 41 -25 41 -36 0 -12 3 -14 8 -6 4 7 13 9 21 4 7 -5 22
-6 34 -3 15 4 18 2 12 -8 -6 -10 -2 -12 16 -7 13 4 30 7 37 7 7 0 10 5 7 10
-4 6 -10 8 -15 5 -5 -3 -29 0 -52 7 -24 7 -49 12 -57 13 -19 0 -27 25 -9 25 8
0 18 -4 23 -9 6 -5 32 -11 58 -15 27 -3 54 -9 60 -14 7 -6 30 -12 52 -15 77
-10 107 -16 119 -27 7 -5 16 -7 20 -3 3 4 13 -2 22 -13 15 -18 15 -18 10 0 -6
16 -2 18 25 12 17 -3 46 -6 63 -7 25 0 27 -2 11 -8 -18 -7 -18 -8 -1 -18 10
-6 35 -7 57 -3 73 14 82 10 92 -40 5 -24 24 -67 42 -96 19 -29 31 -55 28 -58
-3 -3 11 -15 32 -27 20 -12 33 -25 28 -28 -4 -3 -9 -12 -11 -19 -2 -10 2 -10
19 -1 18 9 25 7 45 -12 31 -32 57 -54 64 -54 7 0 35 -23 58 -48 9 -9 22 -17
30 -17 7 0 11 -4 8 -9 -3 -5 1 -12 10 -15 8 -3 12 -2 9 4 -3 6 -1 10 4 10 6 0
11 -4 11 -9 0 -5 13 -12 30 -16 35 -8 39 -21 9 -30 -27 -9 -20 -37 11 -45 25
-7 58 4 73 24 6 7 7 4 3 -6 -6 -21 19 -25 27 -5 4 8 8 8 14 2 4 -5 14 -10 21
-11 28 -2 33 -4 27 -13 -3 -5 0 -13 6 -17 8 -4 9 -3 5 4 -11 19 55 15 76 -5
11 -9 18 -11 18 -5 0 7 10 12 23 11 20 0 21 -1 3 -8 -19 -7 -18 -8 4 -14 16
-4 27 -1 32 7 5 9 19 11 45 6 21 -3 46 -1 56 4 12 8 22 7 36 -1 13 -8 22 -8
29 -1 5 5 47 12 92 14 45 2 88 8 96 15 7 6 18 8 23 4 11 -6 41 55 41 82 0 8
-10 29 -22 46 -12 17 -17 27 -10 23 9 -5 12 4 11 31 -1 21 -3 29 -6 18 -10
-39 -22 -37 -55 13 -18 28 -41 53 -52 56 -10 2 -15 9 -12 15 4 6 13 8 21 4 8
-3 15 -1 15 5 0 15 -22 21 -41 11 -19 -10 -45 14 -34 31 8 13 -12 40 -29 40
-6 0 -2 -7 8 -15 11 -8 17 -18 13 -21 -7 -8 -77 37 -77 49 0 4 -7 7 -16 7 -8
0 -12 4 -9 10 3 5 0 7 -7 5 -17 -7 -56 21 -45 31 4 5 12 2 17 -6 7 -11 10 -12
10 -2 0 7 5 10 10 7 6 -3 10 -1 10 5 0 6 5 8 10 5 6 -3 10 -2 10 4 0 5 -6 12
-12 14 -7 3 55 6 137 8 178 3 165 3 190 -6 14 -5 16 -4 7 2 -8 6 7 9 45 7 45
-3 53 -1 33 6 l-25 10 25 -4 c14 -3 36 -7 50 -10 14 -4 19 -4 12 0 -12 6 -7
24 7 24 5 0 19 -24 31 -54 12 -30 41 -77 66 -106 48 -57 51 -62 29 -54 -22 9
-18 -9 5 -24 12 -7 20 -8 20 -2 0 5 5 10 10 10 6 0 10 -7 10 -16 0 -11 5 -14
16 -10 12 4 15 2 10 -9 -5 -13 4 -18 30 -14 4 0 10 -3 13 -8 3 -5 24 -17 46
-28 35 -16 37 -19 20 -27 -18 -7 -17 -8 3 -4 26 5 144 -31 153 -46 4 -6 20 -8
38 -5 16 4 33 2 36 -3 3 -5 25 -7 50 -4 37 3 45 1 45 -12 0 -14 8 -16 47 -11
26 3 49 10 51 16 5 14 42 14 62 0 12 -8 9 -9 -12 -5 -16 4 -30 1 -34 -6 -4 -7
-3 -8 4 -4 7 4 12 3 12 -2 0 -5 12 -8 28 -6 15 1 35 2 45 3 9 1 16 4 16 8 -4
25 3 41 21 46 25 6 26 -1 3 -20 -17 -12 -16 -13 7 -11 16 2 25 9 25 21 0 22
30 41 50 33 9 -3 19 3 25 15 6 11 15 17 21 14 13 -9 50 5 44 16 -4 5 5 9 19 9
14 0 26 -4 26 -10 0 -5 -5 -9 -11 -7 -6 1 -14 -5 -16 -13 -4 -13 -3 -13 6 0 6
8 11 12 11 8 0 -4 12 0 27 7 21 11 29 12 35 2 6 -9 8 -8 8 2 0 11 4 10 16 -5
8 -10 12 -13 8 -5 -3 7 -1 17 6 21 12 7 -63 27 -83 22 -5 -2 -6 2 -2 8 3 5 12
10 20 10 7 0 20 6 27 13 7 7 36 22 63 32 28 11 53 23 56 28 4 5 12 6 18 3 6
-4 11 -1 11 8 0 10 6 13 17 9 12 -5 14 -3 7 8 -5 8 -10 31 -10 51 -1 20 -9 47
-18 60 -15 20 -23 22 -80 20 -50 -3 -66 0 -73 12 -5 10 -27 18 -55 20 -43 4
-146 34 -158 46 -15 15 -53 30 -75 30 -14 0 -25 5 -25 11 0 5 -4 8 -8 5 -5 -3
-18 3 -29 14 -12 10 -24 16 -27 13 -3 -4 -7 5 -7 18 -1 17 -3 19 -6 7 -5 -22
-17 -23 -37 -3 -8 8 -25 15 -38 16 -19 0 -16 4 16 19 22 10 46 16 54 12 9 -3
13 -1 9 5 -5 7 6 11 29 11 32 0 33 -1 17 -14 -16 -11 -11 -12 37 -8 30 3 62 8
70 10 29 10 -10 21 -69 20 -33 -1 -58 0 -57 2 14 13 102 50 104 42 2 -5 10 -6
18 -3 12 4 13 8 3 14 -8 5 0 13 27 25 21 10 44 20 49 23 6 2 4 -3 -4 -13 -13
-15 -12 -17 14 -12 15 3 36 1 46 -5 15 -7 17 -6 13 6 -4 8 -12 15 -18 15 -23
0 -13 26 11 28 15 1 22 -2 17 -9 -4 -8 1 -9 15 -4 16 5 21 2 21 -10 0 -11 -5
-15 -15 -11 -8 3 -15 2 -15 -3 0 -4 40 -7 88 -7 57 1 89 5 89 12 0 7 -14 8
-40 4 -21 -4 -51 -4 -66 0 -21 7 -14 9 34 11 l60 2 -55 7 -55 7 45 2 c25 1 80
10 124 21 43 11 83 17 89 13 5 -3 7 -2 4 4 -4 6 11 17 33 26 32 12 38 12 33 1
-3 -8 0 -14 6 -14 6 0 11 9 11 20 0 11 7 20 15 20 8 0 15 5 15 11 0 6 7 9 15
5 8 -3 15 -1 15 4 0 6 10 6 26 0 15 -6 23 -6 19 -1 -3 5 -1 12 5 16 6 4 8 11
5 16 -4 5 5 9 19 9 14 0 26 5 26 11 0 6 -8 8 -17 5 -15 -5 -15 -4 1 9 11 8 25
15 32 15 7 0 14 5 16 10 2 6 13 12 25 12 12 1 19 7 16 15 -3 7 0 13 6 13 6 0
11 -7 11 -15 0 -8 7 -15 15 -15 8 0 15 -4 15 -10 0 -5 11 -10 25 -10 14 0 25
5 25 10 0 6 -11 10 -25 10 -15 0 -25 6 -25 14 0 8 -5 16 -12 18 -9 3 -9 6 0
12 7 4 12 2 12 -3 0 -6 6 -11 14 -11 8 0 16 -6 19 -12 4 -10 7 -10 18 0 11 10
10 12 -4 12 -9 0 -17 7 -17 15 0 8 -5 15 -11 15 -6 0 3 11 19 25 17 14 35 25
41 25 6 0 11 4 11 9 0 5 10 7 23 4 18 -5 20 -3 10 8 -10 10 -9 17 9 36 12 13
27 23 35 23 7 0 13 6 13 14 0 24 29 41 49 29 26 -16 58 14 58 55 0 21 -3 28
-9 20 -6 -10 -8 -8 -8 5 0 9 5 17 11 17 6 0 9 20 7 50 -2 27 -6 50 -10 50 -5
0 -8 7 -8 15 0 8 5 15 10 15 11 0 14 49 4 74 -6 15 -8 15 -19 0 -13 -19 -9
-54 7 -54 5 0 3 -6 -4 -14 -11 -11 -17 -11 -36 5 -13 10 -39 21 -58 25 -19 3
-31 10 -28 15 3 5 -1 9 -8 9 -10 0 -9 3 2 11 13 10 13 10 -1 6 -8 -3 -34 -2
-58 3 -39 7 -41 6 -26 -10z m59 -15 c11 -8 15 -15 9 -15 -19 0 -43 12 -43 21
0 13 12 11 34 -6z m-1114 -113 c0 -8 -1 -13 -3 -11 -1 2 -9 12 -16 22 -12 15
-12 17 3 11 9 -3 16 -13 16 -22z m1044 -71 c8 -13 -4 -41 -18 -41 -16 -1 -51
-32 -59 -52 -3 -10 -13 -18 -22 -18 -8 0 -15 -4 -15 -10 0 -5 -6 -10 -14 -10
-8 0 -16 -7 -20 -15 -3 -8 -12 -15 -19 -15 -8 0 -20 -6 -26 -14 -6 -7 -25 -16
-42 -20 -34 -6 -70 6 -50 18 6 4 10 17 10 29 -1 17 -2 18 -6 4 -2 -9 -9 -14
-15 -11 -6 4 -8 2 -4 -4 3 -6 2 -13 -4 -17 -16 -10 -11 -23 10 -27 27 -4 28
-21 1 -33 -11 -5 -21 -13 -21 -16 0 -9 -130 -70 -143 -68 -1 0 -15 -4 -30 -10
-24 -9 -27 -8 -25 6 2 9 -3 18 -9 20 -7 3 -13 0 -13 -6 0 -6 -7 -8 -15 -5 -9
4 -15 0 -15 -9 0 -9 8 -17 18 -20 13 -3 13 -4 -3 -3 -11 0 -26 -3 -32 -7 -16
-10 -6 21 14 44 7 9 10 18 7 22 -3 3 6 13 20 22 14 10 26 23 26 30 0 7 22 35
48 63 37 39 52 48 60 40 9 -9 12 -8 12 4 0 26 19 32 42 11 12 -10 18 -12 14
-5 -4 7 -2 12 6 13 7 0 0 7 -17 15 -22 11 -24 14 -7 10 15 -3 22 1 23 12 0 12
2 13 6 4 4 -10 9 -8 19 6 8 12 39 25 81 35 74 17 166 30 145 21 -10 -5 -9 -10
5 -21 10 -8 12 -12 6 -8 -8 4 -11 1 -7 -9 5 -13 9 -13 32 2 l26 17 -24 3 -24
4 24 14 c30 16 37 17 44 5z m-3661 -38 c-4 -11 -8 -11 -21 -1 -13 11 -15 10
-10 -10 4 -12 1 -25 -6 -30 -6 -4 -19 -19 -28 -34 -13 -19 -23 -25 -38 -21
-14 4 -20 0 -20 -11 0 -9 5 -16 11 -16 5 0 7 -5 3 -11 -5 -8 -9 -7 -14 1 -12
19 -41 4 -33 -16 4 -12 3 -15 -5 -10 -7 4 -12 2 -12 -3 0 -6 5 -11 10 -11 21
0 9 -29 -30 -70 -23 -25 -44 -39 -51 -34 -7 4 -10 2 -7 -7 3 -8 -3 -18 -12
-24 -74 -44 -105 -56 -126 -51 -17 5 -24 2 -24 -9 0 -22 -152 -22 -170 0 -9
10 -9 15 -1 15 6 0 11 5 11 11 0 6 -7 8 -16 5 -8 -3 -24 -1 -35 5 -15 7 -24 7
-35 -2 -10 -8 -14 -8 -14 0 0 6 5 11 10 11 6 0 9 3 9 8 -3 19 3 33 23 52 12
11 19 20 15 20 -4 0 -3 9 3 21 7 11 18 18 25 15 10 -3 12 0 8 11 -5 12 -2 15
10 10 10 -4 17 -2 17 4 0 17 63 69 77 64 7 -2 15 0 18 5 4 6 11 10 18 10 6 0
2 -7 -9 -15 -18 -14 -18 -14 4 -15 25 0 26 -20 2 -28 -7 -3 -10 0 -6 7 4 6 3
11 -3 11 -5 0 -16 3 -25 6 -9 3 -16 1 -16 -5 0 -6 7 -11 15 -11 9 0 12 -6 8
-17 -4 -10 -2 -14 5 -9 6 3 13 2 17 -3 3 -6 13 -7 21 -4 12 4 15 15 11 40 -4
22 -2 31 5 27 7 -5 7 -1 0 12 -9 16 -5 21 31 34 23 9 44 13 47 10 3 -3 19 -3
35 1 27 6 28 7 5 8 -19 1 -22 3 -10 10 8 6 18 7 22 4 5 -2 14 0 21 5 7 5 26
12 42 16 29 7 29 7 10 -9 -20 -15 -20 -16 5 -13 16 2 25 9 24 20 -1 12 9 18
37 23 21 4 42 4 47 1 4 -2 14 -1 22 5 23 14 79 8 73 -8z m3887 -17 c0 -8 -12
-16 -27 -19 -26 -5 -27 -4 -8 10 11 8 19 19 17 24 -1 6 2 8 8 4 5 -3 10 -12
10 -19z m-3690 -26 c0 -5 -9 -10 -21 -10 -11 0 -17 5 -14 10 3 6 13 10 21 10
8 0 14 -4 14 -10z m1820 -50 c0 -5 -4 -10 -10 -10 -5 0 -10 5 -10 10 0 6 5 10
10 10 6 0 10 -4 10 -10z m-3260 -4 c0 -2 -9 -6 -20 -9 -11 -3 -18 -1 -14 4 5
9 34 13 34 5z m3524 -21 c-4 -8 -11 -15 -18 -15 -7 0 -6 -3 2 -9 10 -6 10 -10
-3 -21 -13 -10 -15 -9 -15 8 0 11 7 28 16 36 19 20 25 20 18 1z m-47 -30 c0
-8 -4 -12 -9 -9 -12 7 -10 -28 3 -46 8 -11 9 -9 4 10 -6 19 -4 22 4 14 7 -7 9
-22 5 -37 -7 -30 -24 -27 -24 4 0 10 -4 19 -10 19 -5 0 -10 -8 -10 -18 0 -10
-3 -22 -7 -26 -10 -9 -11 -46 -1 -40 4 3 5 -2 2 -10 -3 -9 -1 -16 5 -16 6 0
11 5 11 11 0 5 5 7 10 4 15 -9 2 -25 -21 -25 -21 0 -26 -16 -6 -23 9 -3 8 -9
-4 -23 -9 -10 -22 -35 -28 -54 -6 -19 -22 -48 -35 -64 l-24 -28 4 47 c3 44 14
78 14 42 0 -10 4 -17 10 -17 6 0 6 9 0 26 -6 14 -6 23 -1 19 5 -3 11 0 14 7 2
7 3 5 2 -4 -2 -10 1 -18 6 -18 12 0 11 47 -1 55 -5 3 -10 13 -10 21 0 9 5 12
11 8 8 -5 8 -1 0 13 -11 21 1 48 55 135 27 42 31 45 31 23z m-3751 -57 c-17
-24 -21 -12 -9 31 5 20 7 21 15 7 6 -11 4 -23 -6 -38z m734 31 c0 -6 -4 -7
-10 -4 -5 3 -10 11 -10 16 0 6 5 7 10 4 6 -3 10 -11 10 -16z m2030 -29 c0 -13
-11 -13 -30 0 -12 8 -11 10 8 10 12 0 22 -4 22 -10z m-49 -22 c1 -17 2 -19 6
-5 5 18 23 24 23 6 0 -6 -5 -20 -11 -31 -9 -17 -13 -18 -21 -7 -7 10 -7 8 -3
-8 4 -14 2 -23 -4 -23 -6 0 -11 5 -11 11 0 8 -11 9 -32 4 -18 -4 -49 -8 -70
-8 -20 0 -35 -5 -34 -11 2 -6 1 -8 -1 -5 -2 4 -12 6 -21 4 -9 -1 -11 0 -4 2
14 5 16 23 2 23 -5 0 -7 7 -4 15 5 13 76 33 97 27 4 -1 7 3 7 8 0 16 37 11 56
-7 17 -17 17 -17 12 5 -3 12 -2 22 3 22 5 0 10 -10 10 -22z m-207 -62 c-8 -20
-30 -21 -37 -2 -4 10 2 16 16 18 28 5 29 4 21 -16z m-37 -22 c13 -4 20 -10 17
-16 -3 -5 -14 -6 -25 -3 -10 4 -27 2 -36 -4 -14 -8 -15 -11 -3 -12 8 -1 18 -1
23 0 4 0 7 -7 7 -16 0 -15 2 -16 10 -3 7 11 10 11 10 2 0 -9 11 -12 33 -10 28
3 32 6 31 32 -1 28 0 28 12 11 9 -12 14 -14 14 -5 0 7 11 0 25 -16 14 -16 25
-25 25 -21 0 4 6 2 14 -5 19 -18 8 -32 -12 -16 -14 12 -14 10 -3 -9 9 -19 9
-23 -2 -23 -8 0 -20 -12 -27 -27 l-14 -28 -4 24 c-2 13 1 28 7 34 6 6 11 15
11 20 0 5 -7 2 -15 -6 -8 -8 -15 -31 -17 -51 -1 -20 -3 -36 -4 -36 -1 0 -8 8
-15 17 -10 11 -10 14 -1 9 14 -8 15 -5 6 18 -5 14 -9 14 -22 4 -8 -7 -18 -13
-21 -13 -3 0 -5 -5 -3 -12 1 -7 -3 -11 -10 -9 -7 1 -10 1 -5 -1 4 -3 7 -13 7
-24 0 -13 5 -17 18 -12 22 8 -25 -28 -60 -46 -16 -8 -31 -11 -35 -8 -3 4 0 7
8 7 8 0 20 9 26 19 10 17 9 20 -15 26 -19 5 -30 2 -39 -11 -20 -27 -43 -26
-43 1 0 13 -4 26 -9 30 -5 3 -9 19 -9 35 1 17 -2 33 -5 37 -4 3 -7 -5 -7 -18
-1 -22 -2 -22 -11 -6 -8 14 -6 24 6 43 9 14 19 23 22 20 3 -3 12 2 19 12 7 9
16 13 20 9 5 -4 2 -12 -6 -17 -8 -6 -10 -10 -4 -10 12 0 34 20 34 32 0 4 -7 8
-16 8 -14 0 -14 2 0 15 13 13 51 33 66 34 3 1 15 -2 27 -5z m213 -28 c0 -3 -4
-8 -10 -11 -5 -3 -10 -1 -10 4 0 6 5 11 10 11 6 0 10 -2 10 -4z m-1782 -17
c-5 -16 -56 -21 -64 -7 -5 7 -1 9 9 5 10 -3 17 -2 17 3 0 6 9 10 21 10 11 0
19 -5 17 -11z m1752 -4 c0 -8 -4 -15 -10 -15 -5 0 -10 7 -10 15 0 8 5 15 10
15 6 0 10 -7 10 -15z m987 -7 c-3 -8 -6 -5 -6 6 -1 11 2 17 5 13 3 -3 4 -12 1
-19z m1313 -2 c0 -3 -4 -8 -10 -11 -5 -3 -10 -1 -10 4 0 6 5 11 10 11 6 0 10
-2 10 -4z m-3526 -22 c3 -9 2 -12 -5 -8 -6 3 -17 -3 -25 -15 -8 -12 -20 -21
-26 -21 -7 0 1 14 17 30 34 35 31 34 39 14z m869 -74 c3 -11 1 -17 -4 -14 -6
3 -7 -10 -3 -33 6 -38 5 -39 -33 -50 l-38 -10 43 -2 c23 0 42 3 42 7 0 4 20 8
44 7 32 0 43 -4 41 -14 -1 -8 -8 -17 -16 -19 -11 -3 -11 -1 1 7 13 10 13 11 0
11 -8 0 -33 -3 -55 -7 l-40 -7 35 -7 c31 -6 30 -7 -17 -8 -33 0 -53 3 -53 10
0 6 -7 9 -15 5 -16 -6 -19 3 -9 28 3 9 11 13 17 9 6 -3 7 -1 3 5 -7 11 33 101
45 102 4 0 9 -9 12 -20z m1152 9 c11 -17 -1 -21 -15 -4 -8 9 -8 15 -2 15 6 0
14 -5 17 -11z m-925 -33 c0 -11 -19 -15 -25 -6 -3 5 1 10 9 10 9 0 16 -2 16
-4z m-1794 -183 c-10 -10 -19 5 -10 18 6 11 8 11 12 0 2 -7 1 -15 -2 -18z
m212 -31 c9 -5 42 -21 72 -35 30 -15 61 -27 67 -27 7 0 18 -12 26 -27 7 -16
19 -27 26 -25 8 2 21 -4 31 -13 9 -8 19 -12 23 -9 3 4 13 -1 21 -9 12 -12 13
-17 3 -21 -6 -3 -2 -3 10 0 15 3 26 -1 35 -15 7 -12 18 -21 25 -21 19 0 16
-10 -9 -38 -13 -14 -17 -22 -10 -18 6 4 12 2 12 -4 0 -6 15 -10 35 -8 28 2 32
5 23 16 -6 7 -20 11 -31 8 -13 -3 -16 -1 -10 5 13 13 55 20 48 8 -4 -5 -1 -9
4 -9 6 0 11 -6 11 -14 0 -13 56 -46 79 -46 6 0 11 -7 11 -15 0 -8 5 -15 12
-15 6 0 8 -3 5 -6 -3 -4 -2 -15 4 -25 5 -11 6 -19 1 -19 -5 0 -9 -7 -9 -15 0
-8 7 -15 15 -15 8 0 12 -6 8 -15 -4 -11 1 -15 19 -15 24 0 29 17 14 45 -12 21
-18 45 -11 45 4 0 17 -16 30 -35 12 -19 17 -35 12 -35 -6 0 -8 -5 -5 -11 4 -6
13 -8 20 -5 7 2 15 -4 18 -15 7 -26 -18 -36 -38 -15 -10 9 -25 14 -38 11 -13
-4 -44 5 -74 20 -29 14 -59 25 -67 25 -7 0 -19 7 -26 15 -7 8 -19 15 -26 15
-8 0 -14 3 -14 8 0 4 -18 15 -39 26 -24 11 -37 24 -35 31 4 8 -6 16 -25 20
-17 4 -34 11 -37 16 -8 14 5 26 14 13 9 -13 65 -17 57 -4 -3 6 -17 10 -31 10
-16 0 -23 4 -18 11 4 8 0 8 -15 0 -17 -9 -24 -8 -40 8 -10 10 -24 20 -30 22
-7 3 -9 12 -6 22 4 9 11 14 16 11 5 -3 9 0 9 5 0 6 9 11 19 11 17 0 40 30 23
30 -4 0 -17 3 -29 6 -14 4 -23 2 -23 -5 0 -5 7 -8 15 -5 31 12 13 -12 -22 -28
-42 -20 -53 -15 -78 37 -9 19 -20 35 -25 35 -6 0 -10 6 -10 14 0 7 -11 21 -25
30 -14 9 -25 25 -25 35 0 11 -6 22 -12 24 -7 3 -10 6 -5 6 4 1 15 -3 25 -7z
m449 -18 c-3 -3 -12 -4 -19 -1 -8 3 -5 6 6 6 11 1 17 -2 13 -5z m2467 -81 c4
-4 13 -8 19 -8 35 -2 86 -18 81 -26 -3 -5 5 -8 18 -7 25 2 168 -60 168 -73 0
-5 6 -6 14 -3 8 3 23 1 32 -4 16 -9 15 -10 -4 -16 -12 -4 -22 -11 -22 -16 0
-5 12 -3 26 5 22 11 33 11 67 -1 23 -8 44 -18 47 -23 3 -4 14 -13 25 -20 19
-11 18 -12 -7 -8 -15 2 -25 1 -23 -3 3 -4 -1 -12 -8 -17 -18 -14 -87 -32 -87
-23 0 4 -12 5 -26 2 -19 -3 -22 -7 -12 -13 9 -6 6 -9 -12 -9 -14 -1 -49 -2
-78 -4 -29 -1 -70 1 -90 5 -24 4 -29 7 -13 8 19 1 21 4 12 15 -6 8 -23 16 -36
19 -20 3 -23 2 -14 -9 9 -11 7 -14 -12 -14 -52 0 -189 52 -189 72 0 5 4 6 10
3 5 -3 18 -1 27 5 16 9 15 10 -4 5 -15 -4 -23 -2 -23 6 0 10 -3 10 -12 1 -18
-18 -31 -15 -68 20 -19 17 -27 29 -17 25 13 -5 17 -3 14 5 -2 7 -13 12 -25 11
-11 -1 -26 5 -34 14 -12 15 -9 16 25 10 22 -3 37 -2 37 4 0 6 -4 7 -10 4 -5
-3 -10 -2 -10 3 0 15 48 43 54 31 2 -5 3 -4 2 3 -2 7 -11 12 -21 10 -10 -2
-14 1 -10 7 7 12 177 15 189 4z m-204 -12 c0 -25 -70 -46 -77 -23 -3 7 1 10
10 6 8 -3 21 2 28 10 15 17 39 21 39 7z m-1723 -17 c-3 -3 -12 -4 -19 -1 -8 3
-5 6 6 6 11 1 17 -2 13 -5z m-343 -67 c-2 -7 5 -18 16 -25 12 -7 20 -8 20 -2
0 5 4 10 9 10 10 0 9 -19 -2 -37 -10 -16 -70 45 -63 64 3 8 10 12 15 8 6 -3 8
-11 5 -18z m1260 6 c-10 -10 -17 -10 -38 1 -27 13 -27 13 12 12 31 0 36 -3 26
-13z m-569 -23 l-40 -7 53 -2 c37 -1 51 2 46 10 -4 8 1 9 17 3 13 -4 29 -7 36
-7 7 0 10 -4 7 -9 -3 -4 -19 -8 -35 -8 -31 0 -37 -19 -9 -28 7 -3 10 0 6 7 -5
7 1 11 14 11 14 0 20 -5 18 -17 -2 -12 4 -19 20 -21 12 -2 22 2 22 9 0 8 4 8
15 -1 13 -11 18 -10 31 6 14 17 15 17 10 2 -3 -10 -1 -18 4 -18 6 0 10 9 10
20 0 11 4 20 9 20 5 0 7 -10 4 -22 -4 -21 -3 -22 10 -6 8 10 17 14 21 10 7 -7
12 -8 39 -11 7 0 21 -7 31 -14 16 -12 16 -13 -3 -14 -11 -1 -23 2 -26 8 -4 5
-11 9 -17 9 -20 0 14 -30 36 -31 20 0 20 -1 1 -9 -13 -5 -1 -7 38 -6 44 1 57
-2 58 -14 0 -10 2 -11 6 -2 6 16 23 15 23 -2 0 -7 14 -16 30 -19 17 -4 30 -11
30 -16 0 -10 -39 -3 -57 11 -7 5 -14 5 -17 0 -8 -14 14 -29 51 -34 24 -3 33 0
35 11 3 13 7 12 26 -7 12 -12 24 -22 27 -22 2 0 20 -15 38 -34 19 -19 43 -36
53 -39 11 -3 -31 -5 -92 -4 -61 0 -117 -3 -123 -7 -6 -4 -11 -3 -11 1 0 5 -17
10 -37 11 -21 2 -49 10 -62 19 -14 9 -20 10 -16 3 5 -9 -2 -8 -21 3 -16 8 -49
25 -74 37 -25 12 -61 35 -80 50 -19 15 -46 33 -60 40 -28 14 -54 37 -109 91
-20 20 -43 38 -51 42 -8 3 12 5 45 5 56 -1 57 -1 20 -8z m-1408 -22 c-3 -8 -6
-5 -6 6 -1 11 2 17 5 13 3 -3 4 -12 1 -19z m1578 2 c-3 -5 -14 -10 -23 -10
-15 0 -15 2 -2 10 20 13 33 13 25 0z m45 -4 c0 -2 -9 -6 -20 -9 -11 -3 -18 -1
-14 4 5 9 34 13 34 5z m175 -76 c3 -5 2 -10 -4 -10 -5 0 -13 5 -16 10 -3 6 -2
10 4 10 5 0 13 -4 16 -10z m1415 -240 c0 -5 -12 -10 -27 -9 l-28 1 25 8 c14 4
26 8 28 9 1 1 2 -3 2 -9z m-2665 -71 c15 -14 -7 -10 -35 7 l-25 15 25 -7 c14
-3 29 -10 35 -15z"/>
<path d="M5513 1553 c-7 -2 -13 -11 -13 -19 0 -14 -16 -19 -55 -16 -19 2 -19
1 -1 -9 15 -9 16 -13 5 -20 -7 -4 -10 -11 -6 -16 5 -4 12 -2 16 6 9 14 44 36
74 47 9 3 17 10 17 15 0 5 -7 5 -17 2 -11 -4 -14 -3 -9 5 8 13 7 13 -11 5z"/>
<path d="M5445 1540 c3 -5 15 -10 26 -10 10 0 19 5 19 10 0 6 -12 10 -26 10
-14 0 -23 -4 -19 -10z"/>
<path d="M5410 1496 c0 -9 5 -16 10 -16 6 0 10 4 10 9 0 6 -4 13 -10 16 -5 3
-10 -1 -10 -9z"/>
<path d="M5220 1481 c0 -5 10 -11 23 -15 31 -8 37 -7 37 4 0 5 -6 7 -14 4 -8
-3 -17 -1 -21 5 -8 13 -25 14 -25 2z"/>
<path d="M5370 1430 c0 -5 5 -10 10 -10 6 0 10 5 10 10 0 6 -4 10 -10 10 -5 0
-10 -4 -10 -10z"/>
<path d="M5180 1415 c0 -8 -4 -15 -10 -15 -5 0 -10 -4 -10 -10 0 -5 6 -10 13
-10 14 0 39 35 30 44 -11 11 -23 6 -23 -9z"/>
<path d="M5252 1370 c-19 -4 -39 -13 -45 -20 -10 -10 -8 -11 8 -5 11 4 35 11
53 17 17 5 32 11 32 13 0 6 -5 5 -48 -5z"/>
<path d="M1946 1601 c-4 -7 -5 -15 -2 -18 9 -9 19 4 14 18 -4 11 -6 11 -12 0z"/>
<path d="M1921 1584 c0 -11 3 -14 6 -6 3 7 2 16 -1 19 -3 4 -6 -2 -5 -13z"/>
<path d="M1788 1543 c7 -3 16 -2 19 1 4 3 -2 6 -13 5 -11 0 -14 -3 -6 -6z"/>
<path d="M1857 1533 c-9 -2 -15 -8 -12 -13 3 -5 -9 -22 -27 -39 -18 -17 -27
-31 -20 -31 7 0 15 7 18 15 3 8 14 17 25 20 10 4 19 11 19 17 0 6 8 17 18 24
17 14 12 15 -21 7z"/>
<path d="M1482 1441 c-10 -6 -9 -10 7 -14 12 -3 19 -1 16 3 -3 5 1 11 7 13 9
4 8 6 -2 6 -8 0 -21 -3 -28 -8z"/>
<path d="M1413 1375 c0 -8 6 -15 13 -15 8 0 11 6 8 15 -4 8 -9 15 -13 15 -4 0
-8 -7 -8 -15z"/>
<path d="M1760 1373 c0 -20 19 -25 36 -9 8 9 11 16 5 16 -5 0 -13 -5 -17 -11
-4 -8 -9 -7 -15 2 -6 10 -9 10 -9 2z"/>
<path d="M1645 1327 c-5 -18 -12 -26 -21 -23 -7 3 -16 1 -19 -4 -3 -5 11 -14
32 -19 38 -11 60 -8 24 4 -22 7 -18 35 6 35 9 0 11 -5 7 -12 -5 -9 -3 -9 9 1
9 7 26 11 36 8 12 -3 22 1 25 10 5 12 -1 14 -29 11 -20 -2 -35 0 -35 7 0 5 -4
4 -9 -4 -7 -11 -9 -11 -14 0 -2 8 -8 3 -12 -14z"/>
<path d="M1390 1329 c0 -5 5 -7 10 -4 6 3 10 8 10 11 0 2 -4 4 -10 4 -5 0 -10
-5 -10 -11z"/>
<path d="M1396 1302 c-2 -4 6 -8 19 -8 13 0 21 4 19 8 -3 4 -11 8 -19 8 -8 0
-16 -4 -19 -8z"/>
<path d="M1690 1300 c0 -5 5 -10 10 -10 6 0 10 5 10 10 0 6 -4 10 -10 10 -5 0
-10 -4 -10 -10z"/>
<path d="M1610 1270 c8 -5 22 -9 30 -9 10 0 8 3 -5 9 -27 12 -43 12 -25 0z"/>
<path d="M3148 1383 c7 -3 16 -2 19 1 4 3 -2 6 -13 5 -11 0 -14 -3 -6 -6z"/>
<path d="M3111 1344 c0 -11 3 -14 6 -6 3 7 2 16 -1 19 -3 4 -6 -2 -5 -13z"/>
<path d="M2891 1203 c0 -10 3 -13 5 -7 2 6 19 9 37 7 29 -2 30 -2 7 6 -39 14
-50 12 -49 -6z"/>
<path d="M2961 1084 c0 -11 3 -14 6 -6 3 7 2 16 -1 19 -3 4 -6 -2 -5 -13z"/>
<path d="M2757 1104 c-8 -8 3 -34 14 -34 5 0 9 9 9 20 0 19 -11 26 -23 14z"/>
<path d="M1502 858 c-19 -19 -14 -37 13 -50 19 -9 22 -14 14 -25 -9 -11 -9
-12 4 -8 8 4 18 2 22 -4 9 -16 19 -13 34 10 12 20 11 21 -8 16 -12 -3 -19 -1
-16 3 8 12 -33 33 -47 24 -7 -5 -9 1 -4 20 7 29 5 31 -12 14z"/>
<path d="M1677 763 c-4 -3 -7 -11 -7 -17 0 -6 5 -5 12 2 6 6 9 14 7 17 -3 3
-9 2 -12 -2z"/>
<path d="M1705 690 c-3 -5 -1 -10 4 -10 6 0 11 5 11 10 0 6 -2 10 -4 10 -3 0
-8 -4 -11 -10z"/>
<path d="M1840 613 c0 -7 4 -13 9 -13 5 0 11 6 14 13 3 8 -1 14 -9 14 -8 0
-14 -6 -14 -14z"/>
<path d="M1878 583 c7 -3 16 -2 19 1 4 3 -2 6 -13 5 -11 0 -14 -3 -6 -6z"/>
<path d="M1765 570 c-3 -5 1 -10 9 -10 9 0 16 5 16 10 0 6 -4 10 -9 10 -6 0
-13 -4 -16 -10z"/>
<path d="M1810 565 c-10 -12 -10 -15 4 -15 9 0 16 7 16 15 0 8 -2 15 -4 15 -2
0 -9 -7 -16 -15z"/>
<path d="M4320 792 c0 -28 10 -33 34 -16 13 8 26 11 31 7 4 -5 5 -3 1 4 -4 7
-13 10 -20 7 -8 -3 -17 -1 -21 5 -10 17 -25 13 -25 -7z"/>
<path d="M4400 780 c0 -5 7 -10 16 -10 8 0 12 5 9 10 -3 6 -10 10 -16 10 -5 0
-9 -4 -9 -10z"/>
<path d="M4405 750 c-3 -5 1 -10 9 -10 8 0 18 5 21 10 3 6 -1 10 -9 10 -8 0
-18 -4 -21 -10z"/>
<path d="M4508 743 c6 -2 18 -2 25 0 6 3 1 5 -13 5 -14 0 -19 -2 -12 -5z"/>
<path d="M4293 646 c-28 -13 -30 -26 -4 -26 11 0 21 -6 24 -12 2 -7 4 2 4 20
0 17 -1 31 -1 31 -1 -1 -11 -6 -23 -13z"/>
<path d="M4583 573 c9 -2 25 -2 35 0 9 3 1 5 -18 5 -19 0 -27 -2 -17 -5z"/>
<path d="M4508 563 c7 -3 16 -2 19 1 4 3 -2 6 -13 5 -11 0 -14 -3 -6 -6z"/>
<path d="M2795 640 c17 -11 35 -20 42 -20 7 0 17 -9 23 -20 6 -11 15 -20 21
-20 6 0 27 -12 46 -27 22 -17 34 -22 31 -13 -2 8 -21 24 -41 35 -20 11 -37 25
-37 32 0 6 -16 17 -35 24 -19 7 -35 16 -35 19 0 3 -10 6 -22 7 -20 2 -19 0 7
-17z"/>
<path d="M3040 600 c0 -6 7 -13 15 -17 24 -9 27 1 5 15 -13 8 -20 8 -20 2z"/>
<path d="M3023 533 c-14 -3 -23 -12 -23 -23 0 -21 32 -32 51 -18 11 8 10 9 -3
4 -21 -6 -22 -2 -8 25 6 10 9 18 8 18 -2 -1 -13 -4 -25 -6z"/>
<path d="M3098 492 c-10 -2 -18 -8 -18 -13 0 -13 27 -11 35 2 9 13 4 16 -17
11z"/>
<path d="M3265 470 c3 -5 14 -10 23 -10 15 0 15 2 2 10 -20 13 -33 13 -25 0z"/>
<path d="M3361 444 c0 -11 3 -14 6 -6 3 7 2 16 -1 19 -3 4 -6 -2 -5 -13z"/>
<path d="M5797 1864 c-4 -4 -4 -11 -1 -15 7 -13 44 -11 44 2 0 5 -5 7 -11 3
-6 -3 -14 -1 -18 5 -4 6 -10 8 -14 5z"/>
<path d="M1671 1844 c0 -11 3 -14 6 -6 3 7 2 16 -1 19 -3 4 -6 -2 -5 -13z"/>
<path d="M1691 1844 c0 -11 3 -14 6 -6 3 7 2 16 -1 19 -3 4 -6 -2 -5 -13z"/>
<path d="M1711 1844 c0 -11 3 -14 6 -6 3 7 2 16 -1 19 -3 4 -6 -2 -5 -13z"/>
<path d="M1731 1844 c0 -11 3 -14 6 -6 3 7 2 16 -1 19 -3 4 -6 -2 -5 -13z"/>
<path d="M1990 1850 c8 -5 24 -10 34 -10 26 0 18 6 -19 14 -22 5 -26 4 -15 -4z"/>
<path d="M5391 1844 c0 -11 3 -14 6 -6 3 7 2 16 -1 19 -3 4 -6 -2 -5 -13z"/>
<path d="M5410 1844 c0 -10 12 -12 40 -10 22 2 43 -1 46 -5 3 -5 15 -9 27 -9
17 0 19 2 7 9 -8 6 -18 7 -22 5 -4 -3 -6 1 -3 8 4 10 -8 13 -45 14 -35 0 -50
-4 -50 -12z"/>
<path d="M1955 1830 c3 -5 13 -10 21 -10 8 0 12 5 9 10 -3 6 -13 10 -21 10 -8
0 -12 -4 -9 -10z"/>
<path d="M5818 1823 c7 -3 16 -2 19 1 4 3 -2 6 -13 5 -11 0 -14 -3 -6 -6z"/>
<path d="M1716 1785 c-19 -14 -19 -15 7 -15 19 0 25 4 21 15 -4 8 -7 15 -8 15
0 0 -10 -7 -20 -15z"/>
<path d="M4350 1789 c0 -16 57 -36 68 -24 3 3 -2 5 -12 5 -9 0 -14 4 -11 10 4
6 -1 7 -10 3 -10 -3 -21 0 -26 8 -7 11 -9 11 -9 -2z"/>
<path d="M1611 1771 c-11 -7 -11 -9 0 -14 10 -4 10 -6 2 -6 -7 -1 -13 -5 -13
-11 0 -17 28 1 33 21 6 21 0 24 -22 10z"/>
<path d="M1647 1761 c-3 -12 -2 -21 3 -21 12 0 34 30 26 37 -3 3 -6 0 -6 -8 0
-11 -2 -12 -9 -1 -6 10 -10 9 -14 -7z"/>
<path d="M2200 1764 c0 -8 5 -12 10 -9 6 4 8 11 5 16 -9 14 -15 11 -15 -7z"/>
<path d="M4310 1760 c0 -5 12 -10 28 -10 21 0 24 2 12 10 -20 13 -40 13 -40 0z"/>
<path d="M5126 1731 c-12 -18 -2 -59 12 -53 11 4 11 6 0 14 -9 7 -8 9 7 5 21
-4 52 19 41 31 -11 10 -54 13 -60 3z"/>
<path d="M328 1689 c4 -4 16 -9 27 -11 11 -1 23 -7 28 -13 4 -6 10 -5 16 5 15
22 4 29 -39 27 -22 -1 -36 -4 -32 -8z"/>
<path d="M490 1692 c0 -10 116 -9 126 1 4 4 -23 7 -59 7 -37 0 -67 -4 -67 -8z"/>
<path d="M1345 1690 c-3 -5 -1 -10 4 -10 6 0 11 5 11 10 0 6 -2 10 -4 10 -3 0
-8 -4 -11 -10z"/>
<path d="M1389 1676 c21 -23 26 -24 53 -13 30 12 38 29 19 35 -6 2 -11 -5 -11
-15 0 -15 -2 -16 -10 -3 -5 8 -10 10 -10 4 0 -6 -7 -11 -15 -11 -8 0 -15 4
-15 8 0 4 -8 10 -17 13 -13 5 -11 1 6 -18z"/>
<path d="M4172 1693 c11 -3 15 -10 11 -20 -4 -11 -2 -14 5 -9 21 13 13 36 -10
35 -17 -1 -18 -3 -6 -6z"/>
<path d="M3458 1673 c7 -3 16 -2 19 1 4 3 -2 6 -13 5 -11 0 -14 -3 -6 -6z"/>
<path d="M3490 1664 c0 -8 -4 -12 -10 -9 -5 3 -7 0 -4 -8 6 -18 44 -11 44 8 0
7 -7 15 -15 19 -9 3 -15 0 -15 -10z"/>
<path d="M4162 1650 c0 -14 2 -19 5 -12 2 6 2 18 0 25 -3 6 -5 1 -5 -13z"/>
<path d="M5010 1635 c-13 -14 -18 -25 -12 -25 6 0 15 6 19 13 4 8 17 19 28 25
15 9 16 11 4 12 -8 0 -26 -11 -39 -25z"/>
<path d="M403 1612 c7 -34 -6 -50 -44 -54 -30 -4 -39 -15 -39 -50 0 -24 4 -28
30 -28 28 0 30 3 30 34 0 31 18 62 21 37 1 -6 2 -15 3 -21 0 -5 4 -10 9 -10 9
0 9 2 2 22 -4 9 -2 25 4 37 14 26 14 44 -1 35 -6 -4 -8 -3 -4 4 3 6 1 14 -5
18 -9 5 -10 -1 -6 -24z"/>
<path d="M1356 1624 c-5 -12 -2 -15 10 -10 8 3 18 6 20 6 2 0 4 5 4 10 0 16
-27 11 -34 -6z"/>
<path d="M3117 1622 c5 -14 3 -15 -8 -4 -7 6 -26 12 -42 12 -23 0 -26 -2 -15
-13 11 -11 45 -14 81 -8 12 2 8 19 -7 24 -11 4 -13 1 -9 -11z"/>
<path d="M3150 1631 c0 -15 16 -22 35 -15 13 5 14 8 3 15 -18 12 -38 11 -38 0z"/>
<path d="M1320 1620 c-9 -6 -10 -10 -3 -10 6 0 15 5 18 10 8 12 4 12 -15 0z"/>
<path d="M3500 1624 c0 -6 11 -16 25 -22 32 -15 35 -15 35 -2 0 6 -8 10 -18
10 -10 0 -23 5 -30 12 -7 7 -12 8 -12 2z"/>
<path d="M3570 1620 c0 -5 5 -10 11 -10 5 0 7 5 4 10 -3 6 -8 10 -11 10 -2 0
-4 -4 -4 -10z"/>
<path d="M4625 1620 c3 -5 1 -10 -4 -10 -6 0 -11 -5 -11 -11 0 -8 5 -8 15 1
17 14 20 30 4 30 -5 0 -7 -4 -4 -10z"/>
<path d="M590 1611 c0 -5 14 -11 30 -13 18 -3 29 0 27 5 -4 13 -57 21 -57 8z"/>
<path d="M5048 1613 c7 -3 16 -2 19 1 4 3 -2 6 -13 5 -11 0 -14 -3 -6 -6z"/>
<path d="M1280 1599 c0 -5 5 -7 10 -4 6 3 10 8 10 11 0 2 -4 4 -10 4 -5 0 -10
-5 -10 -11z"/>
<path d="M1303 1588 c-23 -30 -26 -43 -6 -25 11 9 25 17 31 17 7 0 12 5 12 10
0 14 -26 12 -37 -2z"/>
<path d="M3591 1584 c0 -11 3 -14 6 -6 3 7 2 16 -1 19 -3 4 -6 -2 -5 -13z"/>
<path d="M3048 1583 c6 -2 18 -2 25 0 6 3 1 5 -13 5 -14 0 -19 -2 -12 -5z"/>
<path d="M4555 1570 c-10 -16 4 -30 29 -30 14 0 26 7 28 18 4 14 -1 18 -23 20
-15 1 -30 -2 -34 -8z"/>
<path d="M3580 1545 c0 -8 4 -15 10 -15 5 0 7 7 4 15 -4 8 -8 15 -10 15 -2 0
-4 -7 -4 -15z"/>
<path d="M4987 1553 c-10 -9 -9 -23 1 -23 5 0 9 7 9 15 0 17 -1 18 -10 8z"/>
<path d="M1215 1540 c-3 -5 -2 -10 4 -10 5 0 13 5 16 10 3 6 2 10 -4 10 -5 0
-13 -4 -16 -10z"/>
<path d="M2905 1530 c-3 -5 -1 -10 4 -10 6 0 11 5 11 10 0 6 -2 10 -4 10 -3 0
-8 -4 -11 -10z"/>
<path d="M5825 1521 c-3 -5 -1 -12 5 -16 5 -3 10 1 10 9 0 18 -6 21 -15 7z"/>
<path d="M3570 1516 c0 -2 7 -9 15 -16 9 -7 15 -8 15 -2 0 5 -7 12 -15 16 -8
3 -15 4 -15 2z"/>
<path d="M4961 1504 c0 -11 3 -14 6 -6 3 7 2 16 -1 19 -3 4 -6 -2 -5 -13z"/>
<path d="M920 1490 c0 -5 -8 -10 -17 -10 -14 0 -15 -2 -4 -9 11 -7 10 -11 -5
-20 -11 -6 -14 -11 -7 -11 6 0 15 5 18 10 3 6 16 10 28 10 20 0 20 0 1 -15
-19 -14 -18 -14 4 -15 19 0 22 5 22 35 0 28 -4 35 -20 35 -11 0 -20 -4 -20
-10z"/>
<path d="M401 1474 c0 -11 3 -14 6 -6 3 7 2 16 -1 19 -3 4 -6 -2 -5 -13z"/>
<path d="M441 1481 c-8 -5 -9 -11 -3 -15 5 -3 12 1 16 9 6 17 6 18 -13 6z"/>
<path d="M2140 1479 c0 -5 5 -7 10 -4 6 3 10 8 10 11 0 2 -4 4 -10 4 -5 0 -10
-5 -10 -11z"/>
<path d="M5780 1480 c-12 -8 -11 -10 8 -10 12 0 22 5 22 10 0 13 -11 13 -30 0z"/>
<path d="M2190 1466 c0 -8 -6 -17 -12 -19 -8 -3 -6 -6 5 -6 11 -1 17 6 17 19
0 11 -2 20 -5 20 -3 0 -5 -6 -5 -14z"/>
<path d="M2727 1463 c-4 -3 -7 -11 -7 -17 0 -6 5 -5 12 2 6 6 9 14 7 17 -3 3
-9 2 -12 -2z"/>
<path d="M3563 1463 c-14 -5 -18 -33 -5 -33 5 0 17 9 27 20 18 20 8 26 -22 13z"/>
<path d="M2738 1425 c-26 -35 -22 -44 7 -13 14 15 25 30 25 33 0 12 -16 3 -32
-20z"/>
<path d="M5725 1419 c-10 -14 -1 -21 19 -13 9 3 13 10 10 15 -7 12 -21 11 -29
-2z"/>
<path d="M3563 1413 c4 -3 -1 -12 -11 -19 -14 -11 -10 -12 33 -10 62 4 59 3
41 21 -8 8 -27 15 -42 15 -15 0 -24 -3 -21 -7z"/>
<path d="M5676 1395 c-20 -15 -20 -15 0 -15 12 0 21 7 21 15 0 8 -1 15 -1 15
-1 0 -10 -7 -20 -15z"/>
<path d="M2660 1382 c-14 -6 -14 -9 1 -23 15 -15 17 -15 17 7 0 13 -1 24 -2
23 0 0 -8 -3 -16 -7z"/>
<path d="M4806 1383 c-11 -11 -6 -23 9 -23 8 0 15 4 15 9 0 13 -16 22 -24 14z"/>
<path d="M5718 1383 c7 -3 16 -2 19 1 4 3 -2 6 -13 5 -11 0 -14 -3 -6 -6z"/>
<path d="M1146 1371 c-3 -5 -17 -8 -31 -8 -28 0 -42 -9 -31 -20 3 -4 12 -1 18
5 10 10 16 8 30 -10 l18 -23 6 21 c3 12 15 26 27 32 21 10 21 11 -5 11 -15 1
-29 -3 -32 -8z"/>
<path d="M636 1343 c-6 -14 -5 -15 5 -6 7 7 10 15 7 18 -3 3 -9 -2 -12 -12z"/>
<path d="M2650 1330 c0 -5 5 -10 11 -10 5 0 7 5 4 10 -3 6 -8 10 -11 10 -2 0
-4 -4 -4 -10z"/>
<path d="M4430 1320 c0 -5 5 -10 10 -10 6 0 10 5 10 10 0 6 -4 10 -10 10 -5 0
-10 -4 -10 -10z"/>
<path d="M641 1297 c-1 -24 2 -27 29 -25 17 1 30 5 30 9 0 12 -29 31 -39 25
-5 -3 -12 0 -14 6 -3 7 -6 1 -6 -15z"/>
<path d="M5540 1295 c-7 -8 -17 -12 -23 -8 -6 3 -7 1 -3 -5 4 -7 14 -12 22
-12 8 0 14 -5 14 -11 0 -5 5 -7 10 -4 6 3 10 1 10 -4 0 -6 7 -11 15 -11 8 0
15 5 15 10 0 6 -4 10 -10 10 -5 0 -10 8 -10 18 0 13 -2 14 -9 4 -7 -11 -9 -11
-14 2 -4 9 1 16 11 19 15 4 15 5 1 6 -9 0 -22 -6 -29 -14z"/>
<path d="M3447 1293 c-13 -13 -7 -21 13 -16 11 3 17 9 14 14 -6 11 -18 12 -27
2z"/>
<path d="M4748 1293 c7 -3 16 -2 19 1 4 3 -2 6 -13 5 -11 0 -14 -3 -6 -6z"/>
<path d="M4796 1288 c3 -4 9 -8 15 -8 5 0 9 4 9 8 0 5 -7 9 -15 9 -8 0 -12 -4
-9 -9z"/>
<path d="M725 1279 c-4 -6 -5 -12 -2 -15 2 -3 7 2 10 11 7 17 1 20 -8 4z"/>
<path d="M1963 1256 c-26 -15 -18 -31 17 -34 20 -1 22 1 10 9 -11 8 -12 12 -2
16 13 5 17 24 5 22 -5 -1 -18 -6 -30 -13z"/>
<path d="M3472 1245 c4 -25 48 -34 48 -10 0 12 -5 15 -17 11 -9 -4 -20 -1 -25
6 -6 9 -8 7 -6 -7z"/>
<path d="M5489 1239 l-24 -20 24 7 c18 5 22 3 16 -7 -5 -8 -4 -11 0 -6 9 8 18
47 11 47 -2 0 -14 -9 -27 -21z"/>
<path d="M850 1229 c-12 -8 -12 -9 5 -7 11 1 27 -2 35 -7 13 -8 13 -7 1 8 -16
20 -21 20 -41 6z"/>
<path d="M4597 1224 c4 -10 53 -27 60 -20 1 1 -13 9 -31 17 -24 11 -33 12 -29
3z"/>
<path d="M2564 1176 c-2 -40 -1 -41 9 -11 5 17 14 35 19 42 7 8 4 11 -9 10
-14 -1 -18 -10 -19 -41z"/>
<path d="M4560 1200 c0 -5 9 -10 21 -10 11 0 17 5 14 10 -3 6 -13 10 -21 10
-8 0 -14 -4 -14 -10z"/>
<path d="M5426 1184 c-4 -9 -4 -19 -1 -22 2 -3 7 3 11 12 4 9 4 19 1 22 -2 3
-7 -3 -11 -12z"/>
<path d="M4484 1161 c-1 -27 0 -28 26 -18 17 6 26 16 23 24 -3 7 -9 11 -13 8
-5 -3 -11 -1 -15 5 -11 18 -20 10 -21 -19z"/>
<path d="M1820 1146 c0 -2 18 -6 40 -8 22 -2 40 0 40 4 0 5 -18 8 -40 8 -22 0
-40 -2 -40 -4z"/>
<path d="M5413 1143 c-20 -8 -15 -23 7 -23 11 0 20 7 20 15 0 15 -6 17 -27 8z"/>
<path d="M4418 1123 c7 -3 16 -2 19 1 4 3 -2 6 -13 5 -11 0 -14 -3 -6 -6z"/>
<path d="M1120 1108 c0 -10 5 -18 10 -18 6 0 10 -6 10 -14 0 -8 7 -16 15 -20
8 -3 14 0 12 6 -1 7 7 13 18 15 17 3 18 2 5 -7 -10 -8 -11 -10 -2 -8 23 6 14
23 -15 26 -15 2 -33 11 -40 20 -11 16 -12 16 -13 0z"/>
<path d="M4360 1110 c-11 -7 -6 -10 20 -10 26 0 31 3 20 10 -8 5 -17 10 -20
10 -3 0 -12 -5 -20 -10z"/>
<path d="M1818 1083 c7 -3 16 -2 19 1 4 3 -2 6 -13 5 -11 0 -14 -3 -6 -6z"/>
<path d="M3330 1076 c0 -9 7 -16 16 -16 17 0 14 22 -4 28 -7 2 -12 -3 -12 -12z"/>
<path d="M1935 1071 c-8 -14 12 -23 53 -24 20 0 40 -5 44 -11 8 -12 101 -18
93 -5 -4 5 -22 9 -41 9 -19 0 -34 5 -34 11 0 6 -12 10 -27 9 -16 -1 -41 -2
-58 -1 -23 1 -27 3 -15 11 9 6 10 10 3 10 -6 0 -14 -4 -18 -9z"/>
<path d="M2120 1053 c8 -3 18 -11 22 -17 4 -6 10 -7 15 -3 9 10 -16 27 -37 26
-13 -1 -13 -1 0 -6z"/>
<path d="M2445 1050 c-3 -5 1 -10 9 -10 9 0 16 5 16 10 0 6 -4 10 -9 10 -6 0
-13 -4 -16 -10z"/>
<path d="M1133 975 c0 -44 2 -61 4 -37 2 23 2 59 0 80 -2 20 -4 1 -4 -43z"/>
<path d="M2253 1027 c0 -8 6 -14 12 -14 6 0 12 6 12 14 0 7 -6 13 -12 13 -6 0
-12 -6 -12 -13z"/>
<path d="M2480 1027 c0 -8 7 -17 15 -21 8 -3 15 -3 15 0 0 3 -7 12 -15 20 -13
13 -15 13 -15 1z"/>
<path d="M2315 1010 c4 -6 11 -8 16 -5 14 9 11 15 -7 15 -8 0 -12 -5 -9 -10z"/>
<path d="M3713 996 c-13 -7 -20 -16 -16 -19 3 -4 1 -7 -5 -7 -7 0 -12 4 -12
10 0 5 -7 7 -17 3 -14 -5 -13 -8 5 -14 12 -5 22 -13 22 -19 0 -5 10 -9 23 -9
16 1 18 2 5 6 -23 6 -23 20 0 27 10 4 19 13 19 21 0 8 -1 15 -1 14 -1 -1 -11
-7 -23 -13z"/>
<path d="M4728 1003 c6 -2 18 -2 25 0 6 3 1 5 -13 5 -14 0 -19 -2 -12 -5z"/>
<path d="M3638 953 c7 -3 16 -2 19 1 4 3 -2 6 -13 5 -11 0 -14 -3 -6 -6z"/>
<path d="M4590 940 c0 -5 7 -10 15 -10 8 0 15 5 15 10 0 6 -7 10 -15 10 -8 0
-15 -4 -15 -10z"/>
<path d="M4700 887 c36 -16 180 -16 180 1 0 15 -106 17 -115 2 -3 -5 -15 -10
-26 -10 -11 0 -17 5 -14 10 4 6 -6 10 -22 9 l-28 0 25 -12z"/>
<path d="M4891 884 c0 -11 3 -14 6 -6 3 7 2 16 -1 19 -3 4 -6 -2 -5 -13z"/>
<path d="M1213 843 c-21 -8 -15 -18 12 -18 14 0 24 4 22 9 -4 12 -18 16 -34 9z"/>
<path d="M4850 816 c0 -2 9 -6 20 -9 11 -3 18 -1 14 4 -5 9 -34 13 -34 5z"/>
<path d="M4928 813 c6 -2 18 -2 25 0 6 3 1 5 -13 5 -14 0 -19 -2 -12 -5z"/>
<path d="M4990 810 c0 -8 25 -20 41 -20 20 0 7 18 -16 22 -14 3 -25 2 -25 -2z"/>
<path d="M4940 790 c0 -5 5 -10 10 -10 6 0 10 5 10 10 0 6 -4 10 -10 10 -5 0
-10 -4 -10 -10z"/>
<path d="M2155 780 c3 -5 8 -10 11 -10 2 0 4 5 4 10 0 6 -5 10 -11 10 -5 0 -7
-4 -4 -10z"/>
<path d="M2497 763 c-4 -3 -7 -11 -7 -17 0 -6 5 -5 12 2 6 6 9 14 7 17 -3 3
-9 2 -12 -2z"/>
<path d="M2430 747 c-20 -9 -27 -21 -29 -49 -2 -37 -1 -38 29 -38 31 0 32 1
28 40 -2 28 0 40 9 40 7 0 13 5 13 10 0 13 -19 12 -50 -3z"/>
<path d="M5186 725 c4 -8 13 -15 21 -15 13 0 13 3 3 15 -7 8 -16 15 -21 15 -5
0 -6 -7 -3 -15z"/>
<path d="M2480 719 c0 -5 5 -7 10 -4 6 3 10 8 10 11 0 2 -4 4 -10 4 -5 0 -10
-5 -10 -11z"/>
<path d="M3870 718 c0 -5 7 -11 15 -14 8 -4 15 -16 16 -28 0 -20 1 -20 8 -1 5
11 4 27 -2 36 -10 17 -37 22 -37 7z"/>
<path d="M2500 697 c0 -9 -5 -17 -11 -17 -5 0 -7 -5 -4 -10 4 -6 12 -4 22 6
12 11 13 18 4 27 -8 8 -11 7 -11 -6z"/>
<path d="M5232 694 c4 -3 2 -19 -2 -35 -8 -26 -6 -29 15 -29 14 0 29 8 35 19
14 27 14 28 -22 40 -17 6 -29 9 -26 5z"/>
<path d="M3457 644 c4 -11 8 -12 13 -4 4 7 16 9 29 5 12 -4 21 -2 21 4 0 6
-16 11 -35 11 -27 0 -33 -3 -28 -16z"/>
<path d="M1366 642 c-3 -6 4 -18 16 -26 26 -18 48 -21 48 -6 0 6 -7 10 -16 10
-9 0 -22 7 -29 17 -8 10 -14 12 -19 5z"/>
<path d="M3900 621 c0 -17 4 -31 8 -31 11 0 13 48 2 55 -6 4 -10 -7 -10 -24z"/>
<path d="M3930 634 c0 -8 5 -12 10 -9 6 4 8 11 5 16 -9 14 -15 11 -15 -7z"/>
<path d="M2221 601 c-11 -7 -11 -9 0 -14 10 -4 10 -6 2 -6 -18 -1 -16 -28 1
-28 8 0 13 11 12 29 0 15 -1 28 -1 28 0 0 -6 -4 -14 -9z"/>
<path d="M3930 601 c0 -11 39 -26 47 -17 8 8 3 12 -24 20 -13 4 -23 3 -23 -3z"/>
<path d="M2567 586 c-4 -10 -1 -13 8 -9 8 3 12 9 9 14 -7 12 -11 11 -17 -5z"/>
<path d="M1388 583 c7 -3 16 -2 19 1 4 3 -2 6 -13 5 -11 0 -14 -3 -6 -6z"/>
<path d="M1460 541 c0 -6 5 -13 10 -16 6 -3 10 1 10 9 0 9 -4 16 -10 16 -5 0
-10 -4 -10 -9z"/>
<path d="M2560 541 c0 -5 8 -11 18 -15 9 -3 23 -9 31 -12 7 -4 4 3 -8 15 -22
22 -41 28 -41 12z"/>
<path d="M5093 533 c-18 -2 -33 -8 -33 -13 0 -5 -8 -10 -17 -12 -17 -3 -17 -4
-1 -10 10 -4 24 -1 32 7 19 19 37 19 30 0 -4 -8 -2 -15 4 -15 5 0 12 11 14 25
3 14 5 24 4 23 0 0 -16 -3 -33 -5z"/>
<path d="M1435 520 c3 -5 8 -10 11 -10 2 0 4 5 4 10 0 6 -5 10 -11 10 -5 0 -7
-4 -4 -10z"/>
<path d="M1500 509 c0 -5 5 -7 10 -4 6 3 10 8 10 11 0 2 -4 4 -10 4 -5 0 -10
-5 -10 -11z"/>
<path d="M3990 509 c0 -5 5 -7 10 -4 6 3 10 8 10 11 0 2 -4 4 -10 4 -5 0 -10
-5 -10 -11z"/>
<path d="M3616 495 c4 -8 10 -15 15 -15 5 0 9 -7 9 -15 0 -8 5 -15 10 -15 16
0 12 14 -10 38 -24 26 -32 28 -24 7z"/>
<path d="M4011 496 c-8 -10 -9 -16 -1 -21 5 -3 13 1 16 10 9 22 -1 29 -15 11z"/>
<path d="M1550 437 c0 -14 52 -15 57 -1 2 5 -11 10 -27 11 -18 1 -30 -3 -30
-10z"/>
<path d="M2726 436 c3 -9 11 -16 16 -16 13 0 5 23 -10 28 -7 2 -10 -2 -6 -12z"/>
<path d="M4110 434 l-25 -15 34 5 c18 3 37 6 42 6 5 0 9 5 9 10 0 15 -31 12
-60 -6z"/>
<path d="M1626 415 c4 -8 10 -12 15 -9 11 6 2 24 -11 24 -5 0 -7 -7 -4 -15z"/>
<path d="M4918 423 c7 -3 16 -2 19 1 4 3 -2 6 -13 5 -11 0 -14 -3 -6 -6z"/>
<path d="M2802 378 c5 -15 28 -23 28 -10 0 5 -7 13 -16 16 -10 4 -14 1 -12 -6z"/>
<path d="M2746 371 c-4 -6 -12 -9 -17 -5 -7 4 -9 -7 -7 -27 2 -22 9 -33 21
-35 9 -1 17 2 17 7 0 5 9 9 20 9 24 0 27 32 5 50 -12 10 -15 10 -15 -1 0 -12
-2 -12 -9 0 -6 9 -11 10 -15 2z"/>
<path d="M4312 353 c-1 -12 3 -23 9 -23 5 0 7 5 4 10 -4 6 6 10 22 9 25 0 26
-1 8 -10 -16 -7 -13 -8 13 -4 18 2 31 1 28 -4 -3 -4 5 -7 17 -7 12 1 29 -2 37
-8 8 -6 12 -6 7 -1 -4 5 5 14 20 21 27 12 26 12 -23 13 -28 1 -71 7 -95 14
-44 14 -45 13 -47 -10z"/>
<path d="M1673 363 c-15 -5 -18 -43 -4 -43 9 0 26 39 19 44 -1 2 -9 1 -15 -1z"/>
<path d="M2818 343 c6 -2 18 -2 25 0 6 3 1 5 -13 5 -14 0 -19 -2 -12 -5z"/>
<path d="M1609 333 c0 -5 -2 -18 -3 -30 -1 -12 1 -28 5 -34 3 -6 8 7 11 30 2
22 0 41 -4 41 -5 0 -8 -3 -9 -7z"/>
<path d="M2844 313 c3 -8 6 -17 6 -19 0 -2 7 -4 15 -4 23 0 18 27 -6 33 -15 4
-19 2 -15 -10z"/>
<path d="M4654 279 c-23 -9 -20 -11 29 -13 21 -1 36 2 34 8 -4 12 -38 15 -63
5z"/>
<path d="M3286 201 c-4 -5 22 -11 56 -13 70 -4 98 0 98 13 0 12 -147 12 -154
0z"/>
<path d="M3208 183 c6 -2 18 -2 25 0 6 3 1 5 -13 5 -14 0 -19 -2 -12 -5z"/>
</g>
</svg>
