<?xml version="1.0" standalone="no"?>
<!DOCTYPE svg PUBLIC "-//W3C//DTD SVG 20010904//EN"
 "http://www.w3.org/TR/2001/REC-SVG-20010904/DTD/svg10.dtd">
<svg version="1.0" xmlns="http://www.w3.org/2000/svg"
 width="700.000000pt" height="700.000000pt" viewBox="0 0 700.000000 700.000000"
 preserveAspectRatio="xMidYMid meet">
<metadata>
Created by potrace 1.11, written by Peter Selinger 2001-2013
</metadata>
<g transform="translate(0.000000,700.000000) scale(0.100000,-0.100000)"
fill="#000000" stroke="none">
<path d="M3257 6815 c-1 -2 -60 -5 -132 -9 -178 -8 -221 -21 -248 -77 -10 -23
-13 -40 -6 -56 12 -31 82 -126 139 -187 55 -60 225 -188 291 -219 83 -38 70
-42 -166 -46 -200 -4 -251 -6 -365 -15 -157 -14 -141 -18 -175 45 -39 73 -136
209 -150 209 -6 0 -22 11 -36 24 -60 55 -254 138 -379 161 -110 20 -306 22
-385 4 -68 -16 -181 -63 -295 -122 -124 -65 -200 -103 -226 -111 -47 -15 -70
-71 -57 -138 8 -38 33 -50 123 -58 70 -6 276 -67 375 -110 22 -9 93 -39 157
-66 65 -27 118 -53 118 -57 0 -4 -8 -10 -17 -13 -43 -14 -128 -51 -261 -115
-139 -66 -145 -68 -227 -70 -171 -4 -336 -43 -480 -114 -69 -34 -226 -131
-255 -157 -8 -7 -24 -18 -36 -24 -93 -49 -285 -226 -351 -325 -51 -76 -25
-157 65 -201 40 -20 64 -23 162 -24 63 -1 142 2 175 6 33 5 85 11 115 14 194
22 376 129 520 305 47 57 126 198 140 250 9 35 18 45 48 57 103 42 208 88 217
94 6 5 33 15 61 23 28 8 66 23 85 32 18 10 89 37 157 61 116 41 162 52 162 38
0 -14 -175 -444 -198 -489 -15 -27 -47 -69 -71 -95 -115 -119 -126 -174 -48
-227 26 -18 42 -22 81 -18 100 11 254 75 378 157 99 66 152 126 207 235 71
142 84 200 85 370 1 138 1 142 26 160 35 27 89 50 130 57 19 3 46 8 60 10 62
11 110 17 170 22 36 2 79 6 95 9 77 10 440 21 572 16 39 -1 36 -24 -6 -46 -61
-32 -184 -167 -292 -320 -64 -92 -178 -222 -218 -250 -49 -33 -69 -100 -46
-146 20 -38 72 -79 103 -80 203 -10 444 36 667 128 61 25 182 109 230 160 44
47 111 144 148 218 75 146 93 195 96 259 1 17 8 18 96 12 52 -4 101 -9 108
-11 6 -2 40 -7 74 -9 35 -3 93 -12 130 -20 38 -8 102 -19 143 -26 41 -6 134
-27 205 -45 213 -54 218 -59 121 -111 -60 -32 -192 -161 -291 -283 -27 -34
-66 -81 -85 -104 -76 -89 -140 -206 -140 -253 0 -50 62 -111 130 -128 55 -14
224 -15 300 -1 133 24 316 83 455 146 86 39 223 143 269 204 14 18 43 71 65
117 21 46 46 89 54 97 20 16 67 -1 287 -106 80 -39 174 -82 210 -98 36 -16
106 -48 156 -73 70 -34 107 -45 157 -49 57 -5 66 -3 75 13 26 48 -77 163 -212
238 -26 15 -55 33 -63 41 -8 8 -18 15 -23 15 -9 0 -70 28 -275 125 -66 31
-173 79 -238 107 -77 33 -124 59 -134 75 -12 17 -16 47 -15 109 2 131 -32 192
-220 396 -45 50 -90 101 -98 113 -17 26 -145 122 -199 150 -19 9 -43 26 -54
36 -12 10 -24 19 -29 19 -4 0 -29 13 -55 29 -146 88 -414 133 -494 83 -19 -11
-40 -31 -47 -42 -18 -29 -28 -155 -15 -183 6 -12 23 -47 37 -78 44 -95 196
-233 404 -368 45 -29 82 -57 82 -61 0 -16 -13 -16 -63 -3 -91 24 -430 101
-472 107 -22 3 -62 9 -90 12 -27 3 -59 8 -70 9 -11 2 -45 6 -75 10 -86 12 -94
17 -109 73 -16 66 -68 150 -124 204 -60 58 -163 138 -176 138 -6 0 -11 4 -11
8 0 13 -118 86 -210 130 -121 58 -266 93 -395 96 -58 1 -106 2 -108 1z m297
-227 c82 -22 124 -43 236 -115 104 -67 260 -192 260 -208 0 -14 -145 -10 -204
6 -22 6 -57 14 -76 16 -84 11 -355 133 -459 207 -66 47 -113 94 -106 106 12
19 268 10 349 -12z m1393 -24 c83 -27 231 -104 314 -164 189 -135 422 -402
327 -375 -34 10 -229 106 -247 122 -23 20 -166 113 -231 151 -31 17 -82 54
-114 82 -32 28 -69 58 -82 66 -29 20 -88 110 -79 124 9 15 57 12 112 -6z
m-2937 -138 c100 -26 213 -73 259 -108 63 -48 141 -122 141 -133 0 -31 -62
-48 -185 -51 -114 -3 -180 5 -275 35 -73 23 -406 163 -430 181 -24 18 -24 19
-5 26 11 4 32 15 46 25 66 46 316 59 449 25z m2038 -539 c35 -42 -183 -337
-249 -337 -8 0 -19 -4 -25 -9 -39 -38 -222 -103 -331 -117 -34 -5 -43 -3 -43
9 0 28 125 192 215 283 94 95 148 133 235 163 64 23 182 28 198 8z m-1686
-132 c7 -7 -18 -138 -38 -200 -29 -88 -85 -172 -151 -225 -27 -22 -23 16 11
95 20 46 36 89 36 97 0 22 66 158 97 199 28 38 35 44 45 34z m3338 -130 c18
-6 20 -12 15 -33 -9 -35 -69 -135 -98 -161 -68 -62 -133 -111 -147 -111 -9 0
-43 -13 -76 -29 -114 -55 -316 -110 -419 -114 -63 -2 -76 8 -47 38 10 11 51
63 91 115 158 204 268 286 406 303 48 5 251 0 275 -8z m-4520 -87 c0 -15 -81
-126 -131 -180 -88 -93 -185 -151 -310 -183 -103 -27 -279 -44 -279 -27 0 24
198 184 265 213 17 7 62 35 101 61 93 63 187 106 265 122 65 13 89 12 89 -6z"/>
<path d="M4201 4491 c-17 -31 -14 -40 22 -61 26 -16 50 -20 124 -20 69 0 91
-3 88 -12 -2 -7 -7 -348 -10 -758 -3 -410 -7 -782 -8 -827 -1 -93 13 -82 -120
-104 -45 -7 -78 -19 -95 -34 -63 -55 14 -65 488 -61 304 2 393 5 423 17 48 18
50 29 6 51 -35 17 -66 22 -204 34 -44 3 -87 8 -95 10 -8 1 -19 3 -23 3 -5 1
-6 106 -2 234 10 404 17 513 34 530 5 5 82 10 172 13 282 8 373 12 392 19 21
9 33 53 20 74 -16 26 -61 29 -344 25 l-270 -3 6 252 c4 139 8 310 10 380 2 71
6 131 8 134 3 3 39 8 79 11 274 20 483 -19 563 -105 30 -33 93 -154 124 -239
48 -131 132 -177 159 -86 19 65 34 377 21 426 -17 60 -66 88 -179 102 -25 3
-345 8 -712 10 -661 6 -667 5 -677 -15z"/>
<path d="M1330 4481 c-19 -5 -26 -15 -28 -37 -4 -39 14 -47 145 -65 l102 -13
3 -75 c5 -132 1 -1445 -5 -1475 -15 -76 -52 -104 -150 -112 -68 -6 -120 -30
-125 -58 -7 -37 14 -39 378 -40 277 -1 310 5 310 55 0 32 -13 38 -95 44 -61 5
-109 26 -124 54 -20 37 -30 232 -36 696 -5 382 -2 437 20 413 22 -23 109 -187
378 -718 105 -206 205 -402 223 -435 94 -173 130 -169 241 27 52 92 303 616
303 633 0 7 139 299 150 315 5 8 15 26 21 40 12 28 149 280 152 280 9 0 -9
-1168 -18 -1215 -10 -52 -27 -68 -76 -71 -67 -4 -102 -16 -136 -47 -48 -43
-29 -52 142 -63 125 -9 556 -9 610 0 45 7 58 22 44 48 -13 25 -52 39 -117 43
-117 7 -117 5 -114 705 2 311 4 650 6 754 2 219 1 216 100 217 74 1 105 6 123
20 19 17 16 36 -9 54 -20 14 -56 15 -282 11 -142 -2 -262 -8 -266 -13 -4 -4
-74 -152 -155 -328 -81 -176 -197 -421 -257 -545 -61 -124 -132 -274 -159
-335 -28 -60 -54 -119 -59 -130 -5 -11 -16 -38 -25 -60 l-16 -39 -21 34 c-12
19 -174 340 -360 713 -378 757 -334 690 -467 708 -97 13 -319 19 -351 10z"/>
<path d="M6439 2056 c-2 -2 -39 -7 -81 -10 -43 -3 -83 -8 -90 -11 -7 -2 -31
-6 -53 -9 -160 -20 -350 -145 -483 -319 -46 -59 -122 -201 -122 -226 0 -20
-35 -61 -52 -61 -6 0 -67 -25 -137 -55 -233 -100 -486 -195 -523 -195 -24 0
-23 6 8 76 14 33 39 93 55 134 105 277 125 315 204 398 50 53 85 106 85 129 0
26 -22 59 -54 81 -28 19 -41 22 -82 16 -73 -10 -190 -51 -274 -96 -175 -95
-239 -156 -309 -296 -72 -143 -84 -198 -85 -370 l-1 -143 -49 -30 c-48 -30
-133 -53 -231 -63 -28 -3 -72 -8 -100 -11 -108 -13 -426 -29 -555 -28 -145 1
-150 2 -143 18 3 9 17 22 32 30 62 33 182 164 276 300 58 84 194 242 229 266
40 27 66 80 60 124 -5 39 -73 105 -111 106 -121 5 -317 -12 -352 -30 -9 -5
-34 -11 -56 -14 -47 -7 -198 -56 -276 -91 -71 -31 -166 -103 -231 -176 -91
-100 -212 -328 -223 -421 -5 -39 -20 -63 -35 -54 -3 1 -36 6 -75 9 -38 4 -83
9 -100 11 -16 3 -52 7 -79 10 -26 2 -56 6 -65 9 -9 3 -32 7 -51 10 -208 31
-511 103 -534 126 -13 13 6 30 69 62 52 26 294 274 329 337 5 9 21 30 36 46
38 41 91 120 119 178 63 130 -29 211 -239 211 -155 1 -252 -18 -445 -87 -198
-70 -243 -93 -347 -176 -88 -69 -108 -94 -168 -215 -25 -49 -52 -94 -61 -99
-16 -10 -69 11 -294 118 -66 32 -160 75 -210 97 -49 22 -115 52 -145 68 -73
37 -104 46 -171 49 -53 2 -57 1 -61 -23 -10 -53 89 -160 215 -230 26 -14 53
-31 60 -37 14 -12 370 -177 540 -251 77 -33 124 -59 134 -75 12 -17 16 -47 15
-109 -1 -69 3 -95 22 -137 24 -56 116 -174 206 -267 29 -30 65 -72 81 -93 28
-38 146 -130 209 -162 19 -10 37 -21 40 -24 16 -20 156 -93 224 -115 207 -70
355 -68 406 5 25 34 39 157 23 192 -6 12 -22 47 -37 77 -27 59 -132 172 -226
245 -31 24 -106 76 -168 118 -62 41 -107 77 -100 79 7 3 74 -10 148 -28 192
-47 184 -46 290 -68 96 -19 122 -24 195 -31 33 -4 67 -8 75 -10 8 -2 35 -7 60
-10 100 -13 97 -11 120 -81 12 -36 36 -86 54 -112 37 -55 106 -132 119 -132 5
0 33 -20 61 -45 29 -25 58 -45 64 -45 5 0 12 -7 16 -15 3 -8 10 -15 17 -15 6
0 25 -12 42 -26 50 -42 225 -121 332 -149 88 -24 119 -27 255 -27 220 0 352
12 401 38 38 19 64 77 48 106 -25 47 -119 165 -172 215 -62 59 -269 203 -292
203 -8 0 -15 4 -15 9 0 13 54 18 225 20 172 2 256 6 375 17 133 12 120 16 161
-59 21 -37 56 -90 78 -118 23 -29 41 -55 41 -58 0 -13 125 -90 210 -129 145
-67 253 -90 430 -93 133 -2 192 7 293 48 94 37 434 207 454 226 16 16 24 65
17 106 -8 41 -49 61 -126 61 -97 0 -671 213 -642 239 5 4 32 16 59 26 28 10
118 51 202 91 149 71 154 73 237 75 73 2 135 8 221 23 37 7 110 27 130 36 11
5 55 23 97 40 43 17 88 39 100 49 13 10 59 39 103 66 44 27 84 55 88 62 4 7
14 13 21 13 7 0 30 15 52 33 21 18 55 44 74 57 35 23 92 74 133 119 89 95 108
121 120 156 25 71 4 119 -72 163 -42 25 -56 27 -167 29 -66 2 -123 1 -125 -1z
m101 -203 c0 -24 -223 -203 -272 -219 -13 -4 -55 -29 -94 -55 -39 -27 -100
-62 -136 -79 -67 -31 -183 -61 -206 -52 -52 19 159 260 286 326 61 32 165 61
257 72 22 3 41 7 42 8 8 7 123 6 123 -1z m-4453 -38 c2 -6 -18 -35 -43 -65
-26 -30 -70 -86 -99 -125 -91 -122 -196 -208 -295 -240 -79 -26 -341 -28 -366
-2 -22 22 78 176 153 235 57 46 205 113 342 156 143 45 299 66 308 41z m2763
-155 c0 -5 -15 -44 -34 -87 -19 -43 -37 -90 -39 -103 -3 -14 -22 -60 -42 -102
-38 -79 -80 -132 -96 -122 -5 3 -7 9 -5 12 2 4 7 28 11 52 3 25 8 53 11 62 3
9 6 25 8 35 7 35 46 123 72 165 43 67 114 123 114 88z m-1250 -93 c0 -28 -127
-194 -220 -288 -77 -78 -110 -103 -173 -133 -67 -32 -91 -39 -168 -43 l-89 -6
0 27 c0 83 175 306 260 331 14 4 32 13 40 20 21 18 74 40 150 63 144 44 200
52 200 29z m-2093 -632 c70 -32 97 -48 268 -160 44 -29 109 -71 145 -93 36
-23 81 -57 100 -77 19 -19 37 -35 42 -35 27 0 115 -121 103 -141 -26 -41 -259
52 -425 169 -116 82 -268 231 -333 326 -45 67 -27 69 100 11z m3460 -81 c69
-15 445 -161 501 -196 30 -18 35 -38 10 -38 -5 0 -22 -9 -37 -19 -42 -30 -171
-51 -291 -46 -122 4 -227 29 -331 80 -80 39 -112 62 -188 133 -59 54 -58 59
19 86 56 19 222 19 317 0z m-1820 -124 c22 -5 58 -12 80 -16 89 -14 360 -136
462 -208 66 -47 113 -94 106 -106 -12 -19 -268 -11 -349 12 -124 34 -298 143
-484 303 -19 16 -21 20 -7 25 22 8 141 1 192 -10z"/>
</g>
</svg>
